<svg width="1976" height="1336" viewBox="0 0 1976 1336" fill="none" xmlns="http://www.w3.org/2000/svg">
<rect width="1976" height="1336" fill="#111111"/>
<rect x="784.5" y="133.5" width="406" height="843" rx="47.5" fill="white" stroke="#AAAAAA" stroke-width="3"/>
<path fill-rule="evenodd" clip-rule="evenodd" d="M840 149C817.909 149 800 166.909 800 189V921C800 943.091 817.909 961 840 961H1135C1157.09 961 1175 943.091 1175 921V189C1175 166.909 1157.09 149 1135 149H1092V157C1092 169.15 1082.15 179 1070 179H905C892.85 179 883 169.15 883 157V149H840Z" fill="#EEEEEE"/>
<path d="M803.44 1147C801.947 1141.19 798.213 1138.28 792.24 1138.28C788.027 1138.28 784.667 1139.96 782.16 1143.32C779.653 1146.68 778.4 1151.16 778.4 1156.76C778.4 1162.47 779.68 1167.03 782.24 1170.44C784.853 1173.85 788.347 1175.56 792.72 1175.56C798.533 1175.56 802.107 1172.65 803.44 1166.84H813.44C813.173 1169.29 812.64 1171.43 811.84 1173.24C810.347 1176.65 807.893 1179.32 804.48 1181.24C801.12 1183.11 797.12 1184.04 792.48 1184.04C785.173 1184.04 779.36 1181.59 775.04 1176.68C770.773 1171.77 768.64 1165.13 768.64 1156.76C768.64 1148.44 770.747 1141.88 774.96 1137.08C779.173 1132.28 784.933 1129.88 792.24 1129.88C798.107 1129.88 802.96 1131.45 806.8 1134.6C810.64 1137.69 812.773 1141.83 813.2 1147H803.44ZM836.889 1141.88C842.809 1141.88 847.556 1143.8 851.129 1147.64C854.756 1151.43 856.569 1156.41 856.569 1162.6C856.569 1169.05 854.809 1174.2 851.289 1178.04C847.823 1181.83 843.103 1183.72 837.129 1183.72C831.103 1183.72 826.329 1181.85 822.809 1178.12C819.289 1174.39 817.529 1169.35 817.529 1163C817.529 1156.6 819.289 1151.48 822.809 1147.64C826.329 1143.8 831.023 1141.88 836.889 1141.88ZM837.049 1149.24C833.743 1149.24 831.103 1150.52 829.129 1153.08C827.209 1155.59 826.249 1158.95 826.249 1163.16C826.249 1167.21 827.236 1170.44 829.209 1172.84C831.183 1175.24 833.823 1176.44 837.129 1176.44C840.436 1176.44 843.023 1175.24 844.889 1172.84C846.756 1170.44 847.689 1167.13 847.689 1162.92C847.689 1158.76 846.729 1155.45 844.809 1153C842.889 1150.49 840.303 1149.24 837.049 1149.24ZM863.051 1143H871.531V1148.36C874.091 1144.04 877.797 1141.88 882.651 1141.88C888.197 1141.88 891.771 1144.15 893.371 1148.68C896.091 1144.15 900.064 1141.88 905.291 1141.88C908.917 1141.88 911.957 1142.92 914.411 1145C915.584 1146.01 916.544 1147.35 917.291 1149C918.091 1150.81 918.491 1154.17 918.491 1159.08V1183H909.371V1161.88C909.371 1158.73 909.344 1156.71 909.291 1155.8C909.024 1151.75 907.077 1149.72 903.451 1149.72C901.317 1149.72 899.557 1150.41 898.171 1151.8C896.784 1153.13 895.904 1154.87 895.531 1157C895.317 1157.96 895.211 1159.64 895.211 1162.04V1183H886.171V1159C886.171 1156.01 885.877 1153.88 885.291 1152.6C884.437 1150.68 882.784 1149.72 880.331 1149.72C878.517 1149.72 876.891 1150.31 875.451 1151.48C874.064 1152.6 873.131 1154.04 872.651 1155.8C872.277 1157.13 872.091 1159.45 872.091 1162.76V1183H863.051V1143ZM926.418 1129.96H935.458V1138.28H926.418V1129.96ZM926.418 1143H935.458V1183H926.418V1143ZM943.678 1143H952.798V1147.32C955.411 1143.59 959.198 1141.72 964.158 1141.72C967.838 1141.72 970.878 1142.57 973.278 1144.28C975.731 1145.99 977.331 1148.25 978.078 1151.08C978.451 1152.57 978.638 1154.89 978.638 1158.04V1183H969.598V1160.2C969.598 1158.17 969.518 1156.52 969.358 1155.24C969.144 1153.43 968.398 1151.99 967.118 1150.92C965.838 1149.85 964.238 1149.32 962.318 1149.32C959.278 1149.32 956.904 1150.36 955.198 1152.44C954.024 1153.88 953.278 1155.83 952.958 1158.28C952.851 1159.29 952.798 1161.45 952.798 1164.76V1183H943.678V1143ZM1021.29 1143L1021.21 1178.76C1021.11 1183.83 1020.55 1187.24 1019.53 1189C1017.13 1193.27 1011.64 1195.4 1003.05 1195.4C991.532 1195.4 985.452 1191.51 984.812 1183.72H994.252C994.679 1187.13 997.425 1188.84 1002.49 1188.84C1005.32 1188.84 1007.67 1188.31 1009.53 1187.24C1011.45 1186.23 1012.41 1183.8 1012.41 1179.96C1012.41 1178.68 1012.39 1177.37 1012.33 1176.04C1011.96 1176.47 1011.48 1177 1010.89 1177.64C1008.49 1179.88 1005.32 1181 1001.37 1181C996.199 1181 992.039 1179.21 988.892 1175.64C985.745 1172.07 984.172 1167.32 984.172 1161.4C984.172 1155.48 985.772 1150.73 988.972 1147.16C992.225 1143.59 996.519 1141.8 1001.85 1141.8C1004.04 1141.8 1005.96 1142.15 1007.61 1142.84C1009.27 1143.48 1010.92 1144.76 1012.57 1146.68V1143H1021.29ZM1012.41 1161.64V1161.08C1012.41 1152.97 1009.37 1148.92 1003.29 1148.92C1000.2 1148.92 997.745 1150.07 995.932 1152.36C994.119 1154.6 993.212 1157.61 993.212 1161.4C993.212 1165.13 994.092 1168.15 995.852 1170.44C997.665 1172.68 1000.04 1173.8 1002.97 1173.8C1009.27 1173.8 1012.41 1169.75 1012.41 1161.64ZM1069.71 1154.28C1069.23 1150.55 1066.43 1148.68 1061.31 1148.68C1058.97 1148.68 1057.1 1149.16 1055.71 1150.12C1054.33 1151.03 1053.63 1152.25 1053.63 1153.8C1053.63 1154.6 1053.82 1155.27 1054.19 1155.8C1054.67 1156.55 1055.55 1157.08 1056.83 1157.4C1058.11 1157.67 1060.75 1157.96 1064.75 1158.28C1074.57 1159.13 1079.47 1163.27 1079.47 1170.68C1079.47 1174.89 1077.93 1178.17 1074.83 1180.52C1071.74 1182.81 1067.42 1183.96 1061.87 1183.96C1056.38 1183.96 1051.98 1182.73 1048.67 1180.28C1045.85 1178.2 1044.06 1174.92 1043.31 1170.44H1052.75C1053.02 1172.36 1053.98 1173.91 1055.63 1175.08C1057.34 1176.2 1059.53 1176.76 1062.19 1176.76C1064.7 1176.76 1066.67 1176.28 1068.11 1175.32C1069.55 1174.31 1070.27 1172.97 1070.27 1171.32C1070.27 1169.93 1069.87 1168.95 1069.07 1168.36C1068.33 1167.77 1067.31 1167.4 1066.03 1167.24C1064.97 1167.08 1062.81 1166.81 1059.55 1166.44C1053.53 1165.69 1049.42 1164.31 1047.23 1162.28C1045.37 1160.57 1044.43 1158.09 1044.43 1154.84C1044.43 1150.89 1045.95 1147.75 1048.99 1145.4C1052.09 1143 1056.22 1141.8 1061.39 1141.8C1067.37 1141.8 1071.87 1143.27 1074.91 1146.2C1076.94 1148.17 1078.11 1150.44 1078.43 1153L1078.59 1154.28H1069.71ZM1102.91 1141.88C1108.83 1141.88 1113.57 1143.8 1117.15 1147.64C1120.77 1151.43 1122.59 1156.41 1122.59 1162.6C1122.59 1169.05 1120.83 1174.2 1117.31 1178.04C1113.84 1181.83 1109.12 1183.72 1103.15 1183.72C1097.12 1183.72 1092.35 1181.85 1088.83 1178.12C1085.31 1174.39 1083.55 1169.35 1083.55 1163C1083.55 1156.6 1085.31 1151.48 1088.83 1147.64C1092.35 1143.8 1097.04 1141.88 1102.91 1141.88ZM1103.07 1149.24C1099.76 1149.24 1097.12 1150.52 1095.15 1153.08C1093.23 1155.59 1092.27 1158.95 1092.27 1163.16C1092.27 1167.21 1093.25 1170.44 1095.23 1172.84C1097.2 1175.24 1099.84 1176.44 1103.15 1176.44C1106.45 1176.44 1109.04 1175.24 1110.91 1172.84C1112.77 1170.44 1113.71 1167.13 1113.71 1162.92C1113.71 1158.76 1112.75 1155.45 1110.83 1153C1108.91 1150.49 1106.32 1149.24 1103.07 1149.24ZM1146.19 1141.88C1152.11 1141.88 1156.85 1143.8 1160.43 1147.64C1164.05 1151.43 1165.87 1156.41 1165.87 1162.6C1165.87 1169.05 1164.11 1174.2 1160.59 1178.04C1157.12 1181.83 1152.4 1183.72 1146.43 1183.72C1140.4 1183.72 1135.63 1181.85 1132.11 1178.12C1128.59 1174.39 1126.83 1169.35 1126.83 1163C1126.83 1156.6 1128.59 1151.48 1132.11 1147.64C1135.63 1143.8 1140.32 1141.88 1146.19 1141.88ZM1146.35 1149.24C1143.04 1149.24 1140.4 1150.52 1138.43 1153.08C1136.51 1155.59 1135.55 1158.95 1135.55 1163.16C1135.55 1167.21 1136.53 1170.44 1138.51 1172.84C1140.48 1175.24 1143.12 1176.44 1146.43 1176.44C1149.73 1176.44 1152.32 1175.24 1154.19 1172.84C1156.05 1170.44 1156.99 1167.13 1156.99 1162.92C1156.99 1158.76 1156.03 1155.45 1154.11 1153C1152.19 1150.49 1149.6 1149.24 1146.35 1149.24ZM1172.43 1143H1181.55V1147.32C1184.16 1143.59 1187.95 1141.72 1192.91 1141.72C1196.59 1141.72 1199.63 1142.57 1202.03 1144.28C1204.48 1145.99 1206.08 1148.25 1206.83 1151.08C1207.2 1152.57 1207.39 1154.89 1207.39 1158.04V1183H1198.35V1160.2C1198.35 1158.17 1198.27 1156.52 1198.11 1155.24C1197.89 1153.43 1197.15 1151.99 1195.87 1150.92C1194.59 1149.85 1192.99 1149.32 1191.07 1149.32C1188.03 1149.32 1185.65 1150.36 1183.95 1152.44C1182.77 1153.88 1182.03 1155.83 1181.71 1158.28C1181.6 1159.29 1181.55 1161.45 1181.55 1164.76V1183H1172.43V1143Z" fill="white"/>
<path d="M918.578 475.555C916.185 475.555 913.89 476.506 912.198 478.198C910.506 479.89 909.556 482.185 909.556 484.578V520.667H954.667V475.555H918.578ZM943.389 509.389H920.833V486.833H943.389V509.389Z" fill="#0B0C0C"/>
<path d="M909.556 624.422C909.556 626.815 910.506 629.11 912.198 630.802C913.89 632.494 916.185 633.444 918.578 633.444H954.667V588.333H909.556V624.422ZM920.833 599.611H943.389V622.167H920.833V599.611Z" fill="#0B0C0C"/>
<path d="M1022.33 633.444H1058.42C1060.82 633.444 1063.11 632.494 1064.8 630.802C1066.49 629.11 1067.44 626.815 1067.44 624.422V588.333H1022.33V633.444ZM1033.61 599.611H1056.17V622.167H1033.61V599.611Z" fill="#0B0C0C"/>
<path d="M1058.42 475.555H1022.33V520.667H1067.44V484.578C1067.44 482.185 1066.49 479.89 1064.8 478.198C1063.11 476.506 1060.82 475.555 1058.42 475.555V475.555ZM1056.17 509.389H1033.61V486.833H1056.17V509.389Z" fill="#0B0C0C"/>
<path d="M999.778 509.389V498.111H977.222V520.667H988.5V509.389H999.778Z" fill="#0B0C0C"/>
<path d="M954.667 520.667H965.945V531.944H954.667V520.667Z" fill="#0B0C0C"/>
<path d="M965.944 531.945H988.5V543.222H965.944V531.945Z" fill="#0B0C0C"/>
<path d="M999.778 486.833V498.111H1011.06V475.555H965.944V498.111H977.222V486.833H999.778Z" fill="#0B0C0C"/>
<path d="M909.556 531.945H920.833V554.5H909.556V531.945Z" fill="#0B0C0C"/>
<path d="M954.667 543.222V554.5H943.389V531.945H932.111V554.5H920.833V565.778H909.556V577.056H932.111V565.778H943.389V577.056H954.667V565.778H965.945V543.222H954.667Z" fill="#0B0C0C"/>
<path d="M999.778 543.222H1011.06V554.5H1022.33V543.222H1033.61V531.944H1011.06V509.389H999.778V520.667H988.5V531.944H999.778V543.222Z" fill="#0B0C0C"/>
<path d="M988.5 622.167H965.944V633.444H1011.06V622.167H999.778V610.889H988.5V622.167Z" fill="#0B0C0C"/>
<path d="M1011.06 565.778V554.5H999.778V543.222H988.5V554.5H977.222V565.778H988.5V577.055H999.778V565.778H1011.06Z" fill="#0B0C0C"/>
<path d="M1056.17 565.778H1067.44V577.056H1056.17V565.778Z" fill="#0B0C0C"/>
<path d="M1011.06 565.778H1044.89V577.056H1011.06V565.778Z" fill="#0B0C0C"/>
<path d="M1056.17 531.945H1044.89V543.222H1033.61V554.5H1044.89V565.778H1056.17V554.5H1067.44V543.222H1056.17V531.945Z" fill="#0B0C0C"/>
<path d="M999.778 577.055H1011.06V610.889H999.778V577.055Z" fill="#0B0C0C"/>
<path d="M965.944 610.889H977.222V599.611H988.5V588.333H977.222V565.778H965.944V610.889Z" fill="#0B0C0C"/>
</svg>
