<svg width="696" height="136" viewBox="0 0 696 136" fill="none" xmlns="http://www.w3.org/2000/svg">
<g filter="url(#filter0_di_211_2936)">
<rect width="328" height="128" transform="translate(4)" fill="white"/>
<path d="M39.8101 33.5005C39.7049 34.9539 39.1668 36.0981 38.1958 36.9331C37.231 37.7681 35.9569 38.1855 34.3735 38.1855C32.6418 38.1855 31.278 37.6042 30.2822 36.4414C29.2926 35.2725 28.7979 33.6706 28.7979 31.6357V30.8101C28.7979 29.5112 29.0267 28.367 29.4844 27.3774C29.9421 26.3879 30.5946 25.6302 31.4419 25.1045C32.2954 24.5726 33.285 24.3066 34.4106 24.3066C35.9692 24.3066 37.2248 24.7241 38.1772 25.5591C39.1297 26.394 39.6802 27.5661 39.8286 29.0752H37.0454C36.9774 28.2031 36.7331 27.5723 36.3125 27.1826C35.8981 26.7868 35.2642 26.5889 34.4106 26.5889C33.4829 26.5889 32.7871 26.9229 32.3232 27.5908C31.8656 28.2526 31.6305 29.2824 31.6182 30.6802V31.7007C31.6182 33.1603 31.8377 34.2272 32.2769 34.9014C32.7222 35.5755 33.4211 35.9126 34.3735 35.9126C35.2332 35.9126 35.8734 35.7178 36.2939 35.3281C36.7207 34.9323 36.965 34.3231 37.0269 33.5005H39.8101ZM44.0776 29.0566C44.7889 28.2031 45.6826 27.7764 46.7588 27.7764C48.9359 27.7764 50.0399 29.0412 50.0708 31.5708V38H47.3896V31.645C47.3896 31.0698 47.266 30.6462 47.0186 30.374C46.7712 30.0957 46.3599 29.9565 45.7847 29.9565C44.9992 29.9565 44.4302 30.2596 44.0776 30.8657V38H41.3965V23.75H44.0776V29.0566ZM54.9229 38H52.2324V27.9619H54.9229V38ZM52.0747 25.3643C52.0747 24.9622 52.2077 24.6313 52.4736 24.3716C52.7458 24.1118 53.1138 23.9819 53.5776 23.9819C54.0353 23.9819 54.4002 24.1118 54.6724 24.3716C54.9445 24.6313 55.0806 24.9622 55.0806 25.3643C55.0806 25.7725 54.9414 26.1064 54.6631 26.3662C54.391 26.626 54.0291 26.7559 53.5776 26.7559C53.1261 26.7559 52.7612 26.626 52.4829 26.3662C52.2108 26.1064 52.0747 25.7725 52.0747 25.3643ZM59.9697 38H57.2793V23.75H59.9697V38ZM61.7695 32.9067C61.7695 31.342 62.119 30.0957 62.8179 29.168C63.5229 28.2402 64.4847 27.7764 65.7031 27.7764C66.6803 27.7764 67.4875 28.1413 68.1245 28.8711V23.75H70.8149V38H68.3936L68.2637 36.9331C67.5957 37.7681 66.736 38.1855 65.6846 38.1855C64.5033 38.1855 63.5539 37.7217 62.8364 36.7939C62.1252 35.86 61.7695 34.5643 61.7695 32.9067ZM64.4507 33.1016C64.4507 34.0417 64.6146 34.7622 64.9424 35.2632C65.2702 35.7642 65.7464 36.0146 66.3711 36.0146C67.1999 36.0146 67.7843 35.6652 68.1245 34.9663V31.0049C67.7905 30.306 67.2122 29.9565 66.3896 29.9565C65.097 29.9565 64.4507 31.0049 64.4507 33.1016ZM77.0679 36.0239C77.5627 36.0239 77.9647 35.8879 78.2739 35.6157C78.5832 35.3436 78.744 34.9818 78.7563 34.5303H81.2705C81.2643 35.2106 81.0788 35.8353 80.7139 36.4043C80.349 36.9671 79.848 37.4062 79.2109 37.7217C78.5801 38.0309 77.8812 38.1855 77.1143 38.1855C75.6794 38.1855 74.5475 37.731 73.7188 36.8218C72.89 35.9064 72.4756 34.6447 72.4756 33.0366V32.8604C72.4756 31.3141 72.8869 30.0802 73.7095 29.1587C74.5321 28.2371 75.6608 27.7764 77.0957 27.7764C78.3512 27.7764 79.3563 28.1351 80.1108 28.8525C80.8716 29.5638 81.2581 30.5132 81.2705 31.7007H78.7563C78.744 31.1812 78.5832 30.7606 78.2739 30.439C77.9647 30.1112 77.5565 29.9473 77.0493 29.9473C76.4246 29.9473 75.9515 30.1761 75.6299 30.6338C75.3145 31.0853 75.1567 31.8213 75.1567 32.8418V33.1201C75.1567 34.153 75.3145 34.8952 75.6299 35.3467C75.9453 35.7982 76.4246 36.0239 77.0679 36.0239ZM88.6182 38C88.4945 37.7588 88.4048 37.4588 88.3491 37.1001C87.6997 37.8237 86.8555 38.1855 85.8164 38.1855C84.833 38.1855 84.0166 37.901 83.3672 37.332C82.724 36.763 82.4023 36.0456 82.4023 35.1797C82.4023 34.1159 82.7951 33.2995 83.5806 32.7305C84.3722 32.1615 85.5133 31.8739 87.0039 31.8677H88.2378V31.2925C88.2378 30.8286 88.1172 30.4575 87.876 30.1792C87.641 29.9009 87.2668 29.7617 86.7534 29.7617C86.3019 29.7617 85.9463 29.87 85.6865 30.0864C85.4329 30.3029 85.3062 30.5998 85.3062 30.9771H82.625C82.625 30.3957 82.8044 29.8576 83.1631 29.3628C83.5218 28.868 84.029 28.4814 84.6846 28.2031C85.3402 27.9186 86.0762 27.7764 86.8926 27.7764C88.1296 27.7764 89.1099 28.0887 89.8335 28.7134C90.5633 29.3319 90.9282 30.2039 90.9282 31.3296V35.6807C90.9344 36.6331 91.0674 37.3537 91.3271 37.8423V38H88.6182ZM86.4009 36.1353C86.7967 36.1353 87.1616 36.0487 87.4956 35.8755C87.8296 35.6961 88.077 35.458 88.2378 35.1611V33.4355H87.2358C85.8937 33.4355 85.1794 33.8994 85.0928 34.8271L85.0835 34.9849C85.0835 35.3188 85.201 35.5941 85.436 35.8105C85.6711 36.027 85.9927 36.1353 86.4009 36.1353ZM98.6284 30.4761C98.2635 30.4266 97.9419 30.4019 97.6636 30.4019C96.6493 30.4019 95.9844 30.7451 95.6689 31.4316V38H92.9878V27.9619H95.5205L95.5947 29.1587C96.1328 28.2371 96.8781 27.7764 97.8306 27.7764C98.1274 27.7764 98.4058 27.8166 98.6655 27.897L98.6284 30.4761ZM104.362 38.1855C102.89 38.1855 101.69 37.734 100.762 36.8311C99.8407 35.9281 99.3799 34.7251 99.3799 33.2222V32.9624C99.3799 31.9543 99.5747 31.0544 99.9644 30.2627C100.354 29.4648 100.904 28.8525 101.616 28.4258C102.333 27.9928 103.15 27.7764 104.065 27.7764C105.438 27.7764 106.517 28.2093 107.303 29.0752C108.094 29.9411 108.49 31.1688 108.49 32.7583V33.853H102.098C102.185 34.5086 102.444 35.0343 102.877 35.4302C103.317 35.826 103.87 36.0239 104.538 36.0239C105.571 36.0239 106.378 35.6497 106.959 34.9014L108.277 36.3765C107.875 36.9455 107.331 37.3908 106.644 37.7124C105.958 38.0278 105.197 38.1855 104.362 38.1855ZM104.056 29.9473C103.524 29.9473 103.091 30.1266 102.757 30.4854C102.429 30.8441 102.219 31.3574 102.126 32.0254H105.855V31.812C105.843 31.2183 105.682 30.7606 105.373 30.439C105.064 30.1112 104.625 29.9473 104.056 29.9473ZM114.381 34.3633C114.381 33.7386 114.555 33.1603 114.901 32.6284C115.253 32.0965 115.897 31.5059 116.831 30.8564C116.429 30.3184 116.113 29.8143 115.884 29.3442C115.655 28.868 115.541 28.3732 115.541 27.8599C115.541 26.8084 115.872 25.9549 116.534 25.2993C117.202 24.6375 118.098 24.3066 119.224 24.3066C120.232 24.3066 121.058 24.6066 121.701 25.2065C122.351 25.8065 122.675 26.5549 122.675 27.4517C122.675 28.5278 122.131 29.4772 121.042 30.2998L120.003 31.0513L122.332 33.7603C122.697 33.0428 122.879 32.2511 122.879 31.3853H125.162C125.162 33.1418 124.757 34.5643 123.946 35.6528L125.969 38H122.926L122.23 37.2021C121.234 37.8577 120.09 38.1855 118.797 38.1855C117.461 38.1855 116.391 37.8361 115.587 37.1372C114.783 36.4321 114.381 35.5075 114.381 34.3633ZM118.927 36.0332C119.57 36.0332 120.18 35.8538 120.755 35.4951L118.092 32.415L117.897 32.5542C117.347 33.0243 117.072 33.5778 117.072 34.2148C117.072 34.7529 117.242 35.1921 117.582 35.5322C117.928 35.8662 118.377 36.0332 118.927 36.0332ZM117.944 27.8228C117.944 28.2866 118.216 28.8711 118.76 29.5762L119.475 29.103C119.84 28.868 120.09 28.6392 120.226 28.4165C120.368 28.1938 120.439 27.9279 120.439 27.6187C120.439 27.3094 120.325 27.0404 120.096 26.8115C119.867 26.5827 119.574 26.4683 119.215 26.4683C118.831 26.4683 118.522 26.592 118.287 26.8394C118.058 27.0868 117.944 27.4146 117.944 27.8228ZM140.989 33.0737C140.989 34.62 140.636 35.86 139.931 36.7939C139.232 37.7217 138.286 38.1855 137.092 38.1855C136.078 38.1855 135.258 37.833 134.634 37.1279V41.8594H131.953V27.9619H134.439L134.532 28.9453C135.181 28.166 136.028 27.7764 137.074 27.7764C138.311 27.7764 139.272 28.234 139.959 29.1494C140.646 30.0648 140.989 31.3265 140.989 32.9346V33.0737ZM138.308 32.8789C138.308 31.945 138.141 31.2244 137.807 30.7173C137.479 30.2101 137 29.9565 136.369 29.9565C135.528 29.9565 134.949 30.2782 134.634 30.9214V35.0312C134.962 35.693 135.546 36.0239 136.387 36.0239C137.667 36.0239 138.308 34.9756 138.308 32.8789ZM148.476 38C148.352 37.7588 148.262 37.4588 148.207 37.1001C147.557 37.8237 146.713 38.1855 145.674 38.1855C144.69 38.1855 143.874 37.901 143.225 37.332C142.581 36.763 142.26 36.0456 142.26 35.1797C142.26 34.1159 142.653 33.2995 143.438 32.7305C144.23 32.1615 145.371 31.8739 146.861 31.8677H148.095V31.2925C148.095 30.8286 147.975 30.4575 147.733 30.1792C147.498 29.9009 147.124 29.7617 146.611 29.7617C146.159 29.7617 145.804 29.87 145.544 30.0864C145.29 30.3029 145.164 30.5998 145.164 30.9771H142.482C142.482 30.3957 142.662 29.8576 143.021 29.3628C143.379 28.868 143.886 28.4814 144.542 28.2031C145.198 27.9186 145.934 27.7764 146.75 27.7764C147.987 27.7764 148.967 28.0887 149.691 28.7134C150.421 29.3319 150.786 30.2039 150.786 31.3296V35.6807C150.792 36.6331 150.925 37.3537 151.185 37.8423V38H148.476ZM146.258 36.1353C146.654 36.1353 147.019 36.0487 147.353 35.8755C147.687 35.6961 147.934 35.458 148.095 35.1611V33.4355H147.093C145.751 33.4355 145.037 33.8994 144.95 34.8271L144.941 34.9849C144.941 35.3188 145.058 35.5941 145.293 35.8105C145.528 36.027 145.85 36.1353 146.258 36.1353ZM158.486 30.4761C158.121 30.4266 157.799 30.4019 157.521 30.4019C156.507 30.4019 155.842 30.7451 155.526 31.4316V38H152.845V27.9619H155.378L155.452 29.1587C155.99 28.2371 156.736 27.7764 157.688 27.7764C157.985 27.7764 158.263 27.8166 158.523 27.897L158.486 30.4761ZM164.219 38.1855C162.747 38.1855 161.547 37.734 160.62 36.8311C159.698 35.9281 159.237 34.7251 159.237 33.2222V32.9624C159.237 31.9543 159.432 31.0544 159.822 30.2627C160.211 29.4648 160.762 28.8525 161.473 28.4258C162.191 27.9928 163.007 27.7764 163.922 27.7764C165.295 27.7764 166.375 28.2093 167.16 29.0752C167.952 29.9411 168.348 31.1688 168.348 32.7583V33.853H161.956C162.042 34.5086 162.302 35.0343 162.735 35.4302C163.174 35.826 163.728 36.0239 164.396 36.0239C165.428 36.0239 166.236 35.6497 166.817 34.9014L168.134 36.3765C167.732 36.9455 167.188 37.3908 166.501 37.7124C165.815 38.0278 165.054 38.1855 164.219 38.1855ZM163.913 29.9473C163.381 29.9473 162.948 30.1266 162.614 30.4854C162.286 30.8441 162.076 31.3574 161.983 32.0254H165.713V31.812C165.701 31.2183 165.54 30.7606 165.23 30.439C164.921 30.1112 164.482 29.9473 163.913 29.9473ZM172.346 27.9619L172.43 29.1216C173.147 28.2248 174.109 27.7764 175.315 27.7764C176.379 27.7764 177.17 28.0887 177.69 28.7134C178.209 29.3381 178.475 30.272 178.488 31.5151V38H175.807V31.5801C175.807 31.0111 175.683 30.5998 175.436 30.3462C175.188 30.0864 174.777 29.9565 174.202 29.9565C173.447 29.9565 172.881 30.2782 172.504 30.9214V38H169.823V27.9619H172.346ZM183.739 25.4941V27.9619H185.455V29.9287H183.739V34.9385C183.739 35.3096 183.81 35.5755 183.952 35.7363C184.094 35.8971 184.367 35.9775 184.769 35.9775C185.065 35.9775 185.328 35.9559 185.557 35.9126V37.9443C185.031 38.1051 184.49 38.1855 183.934 38.1855C182.053 38.1855 181.095 37.2362 181.058 35.3374V29.9287H179.592V27.9619H181.058V25.4941H183.739ZM189.778 38H187.088V27.9619H189.778V38ZM186.93 25.3643C186.93 24.9622 187.063 24.6313 187.329 24.3716C187.601 24.1118 187.969 23.9819 188.433 23.9819C188.891 23.9819 189.256 24.1118 189.528 24.3716C189.8 24.6313 189.936 24.9622 189.936 25.3643C189.936 25.7725 189.797 26.1064 189.519 26.3662C189.246 26.626 188.885 26.7559 188.433 26.7559C187.982 26.7559 187.617 26.626 187.338 26.3662C187.066 26.1064 186.93 25.7725 186.93 25.3643ZM194.463 27.9619L194.547 29.1216C195.264 28.2248 196.226 27.7764 197.432 27.7764C198.496 27.7764 199.288 28.0887 199.807 28.7134C200.327 29.3381 200.593 30.272 200.605 31.5151V38H197.924V31.5801C197.924 31.0111 197.8 30.5998 197.553 30.3462C197.305 30.0864 196.894 29.9565 196.319 29.9565C195.564 29.9565 194.998 30.2782 194.621 30.9214V38H191.94V27.9619H194.463ZM202.256 32.9067C202.256 31.3667 202.621 30.1266 203.351 29.1865C204.087 28.2464 205.077 27.7764 206.32 27.7764C207.421 27.7764 208.277 28.1536 208.89 28.9082L209.001 27.9619H211.432V37.666C211.432 38.5443 211.231 39.3081 210.829 39.9575C210.433 40.6069 209.873 41.1017 209.149 41.4419C208.426 41.7821 207.578 41.9521 206.607 41.9521C205.871 41.9521 205.154 41.8037 204.455 41.5068C203.756 41.2161 203.227 40.8389 202.869 40.375L204.056 38.7422C204.724 39.4906 205.534 39.8647 206.487 39.8647C207.198 39.8647 207.752 39.673 208.147 39.2896C208.543 38.9123 208.741 38.3742 208.741 37.6753V37.1372C208.123 37.8361 207.309 38.1855 206.301 38.1855C205.095 38.1855 204.118 37.7155 203.37 36.7754C202.627 35.8291 202.256 34.5767 202.256 33.0181V32.9067ZM204.938 33.1016C204.938 34.0107 205.12 34.7251 205.485 35.2446C205.85 35.758 206.351 36.0146 206.988 36.0146C207.804 36.0146 208.389 35.7085 208.741 35.0962V30.875C208.382 30.2627 207.804 29.9565 207.006 29.9565C206.363 29.9565 205.856 30.2194 205.485 30.7451C205.12 31.2708 204.938 32.0563 204.938 33.1016Z" fill="#0B0C0C"/>
<path d="M28 39.8555H212.461V40.7832H28V39.8555Z" fill="#0B0C0C"/>
<path d="M30.6094 66H29.6484V54.625H30.6094V66ZM34.375 57.5469L34.4062 58.9922C34.724 58.4714 35.1198 58.0755 35.5938 57.8047C36.0677 57.5286 36.5911 57.3906 37.1641 57.3906C38.0703 57.3906 38.7448 57.6458 39.1875 58.1562C39.6302 58.6667 39.8542 59.4323 39.8594 60.4531V66H38.9297V60.4453C38.9245 59.6901 38.763 59.1276 38.4453 58.7578C38.1328 58.388 37.6302 58.2031 36.9375 58.2031C36.3594 58.2031 35.8464 58.3854 35.3984 58.75C34.9557 59.1094 34.6276 59.5964 34.4141 60.2109V66H33.4844V57.5469H34.375ZM45.4062 65.3672C46.0573 65.3672 46.6016 65.1849 47.0391 64.8203C47.4818 64.4505 47.7214 63.974 47.7578 63.3906H48.6562C48.6302 63.9062 48.4688 64.3776 48.1719 64.8047C47.875 65.2266 47.4792 65.5573 46.9844 65.7969C46.4948 66.0365 45.9688 66.1562 45.4062 66.1562C44.2969 66.1562 43.4167 65.7708 42.7656 65C42.1198 64.2292 41.7969 63.1927 41.7969 61.8906V61.6094C41.7969 60.776 41.9427 60.0391 42.2344 59.3984C42.526 58.7578 42.9427 58.263 43.4844 57.9141C44.0312 57.5651 44.6693 57.3906 45.3984 57.3906C46.3255 57.3906 47.0885 57.6667 47.6875 58.2188C48.2917 58.7708 48.6146 59.4974 48.6562 60.3984H47.7578C47.7161 59.737 47.4766 59.2031 47.0391 58.7969C46.6068 58.3906 46.0599 58.1875 45.3984 58.1875C44.5547 58.1875 43.8984 58.4922 43.4297 59.1016C42.9661 59.7109 42.7344 60.5651 42.7344 61.6641V61.9375C42.7344 63.0156 42.9661 63.8568 43.4297 64.4609C43.8984 65.0651 44.5573 65.3672 45.4062 65.3672ZM51.5781 66H50.6406V54H51.5781V66ZM59.5625 64.9297C59 65.7474 58.1016 66.1562 56.8672 66.1562C55.9661 66.1562 55.2812 65.8958 54.8125 65.375C54.3438 64.849 54.1042 64.0729 54.0938 63.0469V57.5469H55.0234V62.9297C55.0234 64.5391 55.6745 65.3438 56.9766 65.3438C58.3307 65.3438 59.1875 64.7839 59.5469 63.6641V57.5469H60.4844V66H59.5781L59.5625 64.9297ZM62.5469 61.6953C62.5469 60.3828 62.8385 59.3385 63.4219 58.5625C64.0104 57.7812 64.8073 57.3906 65.8125 57.3906C66.9531 57.3906 67.8229 57.8411 68.4219 58.7422V54H69.3516V66H68.4766L68.4375 64.875C67.8385 65.7292 66.9583 66.1562 65.7969 66.1562C64.8229 66.1562 64.0365 65.7656 63.4375 64.9844C62.8438 64.1979 62.5469 63.138 62.5469 61.8047V61.6953ZM63.4922 61.8594C63.4922 62.9375 63.7083 63.7891 64.1406 64.4141C64.5729 65.0339 65.1823 65.3438 65.9688 65.3438C67.1198 65.3438 67.9375 64.8359 68.4219 63.8203V59.8516C67.9375 58.7526 67.125 58.2031 65.9844 58.2031C65.1979 58.2031 64.5859 58.513 64.1484 59.1328C63.7109 59.7474 63.4922 60.6562 63.4922 61.8594ZM75.0859 66.1562C74.3672 66.1562 73.7161 65.9792 73.1328 65.625C72.5547 65.2708 72.1042 64.7786 71.7812 64.1484C71.4583 63.513 71.2969 62.8021 71.2969 62.0156V61.6797C71.2969 60.8672 71.4531 60.1354 71.7656 59.4844C72.0833 58.8333 72.5234 58.3229 73.0859 57.9531C73.6484 57.5781 74.2578 57.3906 74.9141 57.3906C75.9401 57.3906 76.7526 57.7422 77.3516 58.4453C77.9557 59.1432 78.2578 60.099 78.2578 61.3125V61.8359H72.2266V62.0156C72.2266 62.974 72.5 63.7734 73.0469 64.4141C73.599 65.0495 74.2917 65.3672 75.125 65.3672C75.625 65.3672 76.0651 65.276 76.4453 65.0938C76.8307 64.9115 77.1797 64.6198 77.4922 64.2188L78.0781 64.6641C77.3906 65.6589 76.3932 66.1562 75.0859 66.1562ZM74.9141 58.1875C74.2109 58.1875 73.6172 58.4453 73.1328 58.9609C72.6536 59.4766 72.362 60.1693 72.2578 61.0391H77.3281V60.9375C77.3021 60.125 77.0703 59.4635 76.6328 58.9531C76.1953 58.4427 75.6224 58.1875 74.9141 58.1875ZM85.1406 63.8516C85.1406 63.388 84.9531 63.0156 84.5781 62.7344C84.2083 62.4531 83.6484 62.2344 82.8984 62.0781C82.1484 61.9167 81.5651 61.7344 81.1484 61.5312C80.737 61.3229 80.4297 61.0703 80.2266 60.7734C80.0286 60.4766 79.9297 60.1172 79.9297 59.6953C79.9297 59.0286 80.2083 58.4792 80.7656 58.0469C81.3229 57.6094 82.0365 57.3906 82.9062 57.3906C83.849 57.3906 84.6042 57.625 85.1719 58.0938C85.7448 58.5573 86.0312 59.1641 86.0312 59.9141H85.0938C85.0938 59.4193 84.8854 59.0078 84.4688 58.6797C84.0573 58.3516 83.5365 58.1875 82.9062 58.1875C82.2917 58.1875 81.7969 58.3255 81.4219 58.6016C81.0521 58.8724 80.8672 59.2266 80.8672 59.6641C80.8672 60.0859 81.0208 60.4141 81.3281 60.6484C81.6406 60.8776 82.2057 61.0885 83.0234 61.2812C83.8464 61.474 84.4609 61.6797 84.8672 61.8984C85.2786 62.1172 85.5833 62.3802 85.7812 62.6875C85.9792 62.9948 86.0781 63.3672 86.0781 63.8047C86.0781 64.5182 85.7891 65.0885 85.2109 65.5156C84.638 65.9427 83.888 66.1562 82.9609 66.1562C81.9766 66.1562 81.1771 65.9193 80.5625 65.4453C79.9531 64.9661 79.6484 64.362 79.6484 63.6328H80.5859C80.6224 64.1797 80.8516 64.6068 81.2734 64.9141C81.7005 65.2161 82.263 65.3672 82.9609 65.3672C83.612 65.3672 84.138 65.224 84.5391 64.9375C84.9401 64.651 85.1406 64.2891 85.1406 63.8516ZM91.7031 61.6953C91.7031 60.3724 91.9948 59.3255 92.5781 58.5547C93.1667 57.7786 93.9635 57.3906 94.9688 57.3906C96.1198 57.3906 96.9948 57.849 97.5938 58.7656L97.6406 57.5469H98.5156V65.8281C98.5156 66.9167 98.2109 67.7786 97.6016 68.4141C96.9922 69.0495 96.1667 69.3672 95.125 69.3672C94.5365 69.3672 93.974 69.2344 93.4375 68.9688C92.9062 68.7083 92.487 68.3594 92.1797 67.9219L92.7031 67.3594C93.3646 68.1719 94.151 68.5781 95.0625 68.5781C95.8438 68.5781 96.4531 68.3464 96.8906 67.8828C97.3281 67.4245 97.5547 66.7865 97.5703 65.9688V64.9062C96.9714 65.7396 96.099 66.1562 94.9531 66.1562C93.974 66.1562 93.1875 65.7656 92.5938 64.9844C92 64.2031 91.7031 63.1484 91.7031 61.8203V61.6953ZM92.6484 61.8594C92.6484 62.9375 92.8646 63.7891 93.2969 64.4141C93.7292 65.0339 94.3385 65.3438 95.125 65.3438C96.276 65.3438 97.0911 64.8281 97.5703 63.7969V59.8672C97.3516 59.3255 97.0365 58.9141 96.625 58.6328C96.2135 58.3464 95.7188 58.2031 95.1406 58.2031C94.3542 58.2031 93.7422 58.513 93.3047 59.1328C92.8672 59.7474 92.6484 60.6562 92.6484 61.8594ZM102 66H101.062V57.5469H102V66ZM100.898 55.1016C100.898 54.9245 100.956 54.776 101.07 54.6562C101.185 54.5312 101.341 54.4688 101.539 54.4688C101.737 54.4688 101.893 54.5312 102.008 54.6562C102.128 54.776 102.188 54.9245 102.188 55.1016C102.188 55.2786 102.128 55.4271 102.008 55.5469C101.893 55.6667 101.737 55.7266 101.539 55.7266C101.341 55.7266 101.185 55.6667 101.07 55.5469C100.956 55.4271 100.898 55.2786 100.898 55.1016ZM107.18 64.7109L109.75 57.5469H110.711L107.555 66H106.797L103.625 57.5469H104.586L107.18 64.7109ZM113.297 66H112.359V57.5469H113.297V66ZM112.195 55.1016C112.195 54.9245 112.253 54.776 112.367 54.6562C112.482 54.5312 112.638 54.4688 112.836 54.4688C113.034 54.4688 113.19 54.5312 113.305 54.6562C113.424 54.776 113.484 54.9245 113.484 55.1016C113.484 55.2786 113.424 55.4271 113.305 55.5469C113.19 55.6667 113.034 55.7266 112.836 55.7266C112.638 55.7266 112.482 55.6667 112.367 55.5469C112.253 55.4271 112.195 55.2786 112.195 55.1016ZM116.734 57.5469L116.766 58.9922C117.083 58.4714 117.479 58.0755 117.953 57.8047C118.427 57.5286 118.951 57.3906 119.523 57.3906C120.43 57.3906 121.104 57.6458 121.547 58.1562C121.99 58.6667 122.214 59.4323 122.219 60.4531V66H121.289V60.4453C121.284 59.6901 121.122 59.1276 120.805 58.7578C120.492 58.388 119.99 58.2031 119.297 58.2031C118.719 58.2031 118.206 58.3854 117.758 58.75C117.315 59.1094 116.987 59.5964 116.773 60.2109V66H115.844V57.5469H116.734ZM124.266 61.6953C124.266 60.3724 124.557 59.3255 125.141 58.5547C125.729 57.7786 126.526 57.3906 127.531 57.3906C128.682 57.3906 129.557 57.849 130.156 58.7656L130.203 57.5469H131.078V65.8281C131.078 66.9167 130.773 67.7786 130.164 68.4141C129.555 69.0495 128.729 69.3672 127.688 69.3672C127.099 69.3672 126.536 69.2344 126 68.9688C125.469 68.7083 125.049 68.3594 124.742 67.9219L125.266 67.3594C125.927 68.1719 126.714 68.5781 127.625 68.5781C128.406 68.5781 129.016 68.3464 129.453 67.8828C129.891 67.4245 130.117 66.7865 130.133 65.9688V64.9062C129.534 65.7396 128.661 66.1562 127.516 66.1562C126.536 66.1562 125.75 65.7656 125.156 64.9844C124.562 64.2031 124.266 63.1484 124.266 61.8203V61.6953ZM125.211 61.8594C125.211 62.9375 125.427 63.7891 125.859 64.4141C126.292 65.0339 126.901 65.3438 127.688 65.3438C128.839 65.3438 129.654 64.8281 130.133 63.7969V59.8672C129.914 59.3255 129.599 58.9141 129.188 58.6328C128.776 58.3464 128.281 58.2031 127.703 58.2031C126.917 58.2031 126.305 58.513 125.867 59.1328C125.43 59.7474 125.211 60.6562 125.211 61.8594ZM144.211 61.8594C144.211 63.1771 143.919 64.224 143.336 65C142.753 65.7708 141.969 66.1562 140.984 66.1562C139.807 66.1562 138.917 65.7188 138.312 64.8438L138.273 66H137.398V54H138.328V58.7734C138.922 57.8516 139.802 57.3906 140.969 57.3906C141.969 57.3906 142.758 57.7734 143.336 58.5391C143.919 59.2995 144.211 60.3594 144.211 61.7188V61.8594ZM143.273 61.6953C143.273 60.5807 143.057 59.7214 142.625 59.1172C142.193 58.5078 141.583 58.2031 140.797 58.2031C140.198 58.2031 139.69 58.3516 139.273 58.6484C138.857 58.9401 138.542 59.3698 138.328 59.9375V63.75C138.797 64.8125 139.625 65.3438 140.812 65.3438C141.583 65.3438 142.185 65.0391 142.617 64.4297C143.055 63.8203 143.273 62.9089 143.273 61.6953ZM147.328 66H146.391V57.5469H147.328V66ZM146.227 55.1016C146.227 54.9245 146.284 54.776 146.398 54.6562C146.513 54.5312 146.669 54.4688 146.867 54.4688C147.065 54.4688 147.221 54.5312 147.336 54.6562C147.456 54.776 147.516 54.9245 147.516 55.1016C147.516 55.2786 147.456 55.4271 147.336 55.5469C147.221 55.6667 147.065 55.7266 146.867 55.7266C146.669 55.7266 146.513 55.6667 146.398 55.5469C146.284 55.4271 146.227 55.2786 146.227 55.1016ZM153.781 58.3438C153.583 58.3073 153.372 58.2891 153.148 58.2891C152.565 58.2891 152.07 58.4531 151.664 58.7812C151.263 59.1042 150.977 59.5755 150.805 60.1953V66H149.875V57.5469H150.789L150.805 58.8906C151.299 57.8906 152.094 57.3906 153.188 57.3906C153.448 57.3906 153.654 57.4245 153.805 57.4922L153.781 58.3438ZM157.109 55.3828V57.5469H158.859V58.3125H157.109V63.9453C157.109 64.4141 157.193 64.763 157.359 64.9922C157.531 65.2214 157.815 65.3359 158.211 65.3359C158.367 65.3359 158.62 65.3099 158.969 65.2578L159.008 66.0234C158.763 66.112 158.43 66.1562 158.008 66.1562C157.367 66.1562 156.901 65.9714 156.609 65.6016C156.318 65.2266 156.172 64.6771 156.172 63.9531V58.3125H154.617V57.5469H156.172V55.3828H157.109ZM161.727 58.9766C162.034 58.4714 162.427 58.0807 162.906 57.8047C163.385 57.5286 163.909 57.3906 164.477 57.3906C165.383 57.3906 166.057 57.6458 166.5 58.1562C166.943 58.6667 167.167 59.4323 167.172 60.4531V66H166.242V60.4453C166.237 59.6901 166.076 59.1276 165.758 58.7578C165.445 58.388 164.943 58.2031 164.25 58.2031C163.672 58.2031 163.159 58.3854 162.711 58.75C162.268 59.1094 161.94 59.5964 161.727 60.2109V66H160.797V54H161.727V58.9766ZM169.383 68.125L168.828 67.7188C169.302 67.0833 169.547 66.4245 169.562 65.7422V64.5312H170.477V65.5078C170.477 66.5911 170.112 67.4635 169.383 68.125ZM177.203 66V58.3125H175.805V57.5469H177.203V56.5234C177.203 55.6589 177.422 54.9948 177.859 54.5312C178.302 54.0677 178.917 53.8359 179.703 53.8359C180.057 53.8359 180.388 53.8802 180.695 53.9688L180.625 54.75C180.365 54.6875 180.081 54.6562 179.773 54.6562C179.258 54.6562 178.857 54.8177 178.57 55.1406C178.284 55.4583 178.141 55.9115 178.141 56.5V57.5469H180.156V58.3125H178.141V66H177.203ZM181.312 61.6484C181.312 60.8359 181.469 60.1042 181.781 59.4531C182.099 58.8021 182.544 58.2969 183.117 57.9375C183.695 57.5729 184.349 57.3906 185.078 57.3906C186.203 57.3906 187.115 57.7865 187.812 58.5781C188.51 59.3646 188.859 60.4089 188.859 61.7109V61.9062C188.859 62.724 188.701 63.4609 188.383 64.1172C188.07 64.7682 187.628 65.2708 187.055 65.625C186.482 65.9792 185.828 66.1562 185.094 66.1562C183.974 66.1562 183.062 65.763 182.359 64.9766C181.661 64.1849 181.312 63.138 181.312 61.8359V61.6484ZM182.25 61.9062C182.25 62.9167 182.51 63.7474 183.031 64.3984C183.557 65.0443 184.245 65.3672 185.094 65.3672C185.938 65.3672 186.62 65.0443 187.141 64.3984C187.667 63.7474 187.93 62.8906 187.93 61.8281V61.6484C187.93 61.0026 187.81 60.4115 187.57 59.875C187.331 59.3385 186.995 58.9245 186.562 58.6328C186.13 58.3359 185.635 58.1875 185.078 58.1875C184.245 58.1875 183.565 58.5156 183.039 59.1719C182.513 59.8229 182.25 60.6771 182.25 61.7344V61.9062ZM195.859 63.8516C195.859 63.388 195.672 63.0156 195.297 62.7344C194.927 62.4531 194.367 62.2344 193.617 62.0781C192.867 61.9167 192.284 61.7344 191.867 61.5312C191.456 61.3229 191.148 61.0703 190.945 60.7734C190.747 60.4766 190.648 60.1172 190.648 59.6953C190.648 59.0286 190.927 58.4792 191.484 58.0469C192.042 57.6094 192.755 57.3906 193.625 57.3906C194.568 57.3906 195.323 57.625 195.891 58.0938C196.464 58.5573 196.75 59.1641 196.75 59.9141H195.812C195.812 59.4193 195.604 59.0078 195.188 58.6797C194.776 58.3516 194.255 58.1875 193.625 58.1875C193.01 58.1875 192.516 58.3255 192.141 58.6016C191.771 58.8724 191.586 59.2266 191.586 59.6641C191.586 60.0859 191.74 60.4141 192.047 60.6484C192.359 60.8776 192.924 61.0885 193.742 61.2812C194.565 61.474 195.18 61.6797 195.586 61.8984C195.997 62.1172 196.302 62.3802 196.5 62.6875C196.698 62.9948 196.797 63.3672 196.797 63.8047C196.797 64.5182 196.508 65.0885 195.93 65.5156C195.357 65.9427 194.607 66.1562 193.68 66.1562C192.695 66.1562 191.896 65.9193 191.281 65.4453C190.672 64.9661 190.367 64.362 190.367 63.6328H191.305C191.341 64.1797 191.57 64.6068 191.992 64.9141C192.419 65.2161 192.982 65.3672 193.68 65.3672C194.331 65.3672 194.857 65.224 195.258 64.9375C195.659 64.651 195.859 64.2891 195.859 63.8516ZM200.359 55.3828V57.5469H202.109V58.3125H200.359V63.9453C200.359 64.4141 200.443 64.763 200.609 64.9922C200.781 65.2214 201.065 65.3359 201.461 65.3359C201.617 65.3359 201.87 65.3099 202.219 65.2578L202.258 66.0234C202.013 66.112 201.68 66.1562 201.258 66.1562C200.617 66.1562 200.151 65.9714 199.859 65.6016C199.568 65.2266 199.422 64.6771 199.422 63.9531V58.3125H197.867V57.5469H199.422V55.3828H200.359ZM207.32 66.1562C206.602 66.1562 205.951 65.9792 205.367 65.625C204.789 65.2708 204.339 64.7786 204.016 64.1484C203.693 63.513 203.531 62.8021 203.531 62.0156V61.6797C203.531 60.8672 203.688 60.1354 204 59.4844C204.318 58.8333 204.758 58.3229 205.32 57.9531C205.883 57.5781 206.492 57.3906 207.148 57.3906C208.174 57.3906 208.987 57.7422 209.586 58.4453C210.19 59.1432 210.492 60.099 210.492 61.3125V61.8359H204.461V62.0156C204.461 62.974 204.734 63.7734 205.281 64.4141C205.833 65.0495 206.526 65.3672 207.359 65.3672C207.859 65.3672 208.299 65.276 208.68 65.0938C209.065 64.9115 209.414 64.6198 209.727 64.2188L210.312 64.6641C209.625 65.6589 208.628 66.1562 207.32 66.1562ZM207.148 58.1875C206.445 58.1875 205.852 58.4453 205.367 58.9609C204.888 59.4766 204.596 60.1693 204.492 61.0391H209.562V60.9375C209.536 60.125 209.305 59.4635 208.867 58.9531C208.43 58.4427 207.857 58.1875 207.148 58.1875ZM216.219 58.3438C216.021 58.3073 215.81 58.2891 215.586 58.2891C215.003 58.2891 214.508 58.4531 214.102 58.7812C213.701 59.1042 213.414 59.5755 213.242 60.1953V66H212.312V57.5469H213.227L213.242 58.8906C213.737 57.8906 214.531 57.3906 215.625 57.3906C215.885 57.3906 216.091 57.4245 216.242 57.4922L216.219 58.3438ZM218.75 66H217.812V57.5469H218.75V66ZM217.648 55.1016C217.648 54.9245 217.706 54.776 217.82 54.6562C217.935 54.5312 218.091 54.4688 218.289 54.4688C218.487 54.4688 218.643 54.5312 218.758 54.6562C218.878 54.776 218.938 54.9245 218.938 55.1016C218.938 55.2786 218.878 55.4271 218.758 55.5469C218.643 55.6667 218.487 55.7266 218.289 55.7266C218.091 55.7266 217.935 55.6667 217.82 55.5469C217.706 55.4271 217.648 55.2786 217.648 55.1016ZM222.188 57.5469L222.219 58.9922C222.536 58.4714 222.932 58.0755 223.406 57.8047C223.88 57.5286 224.404 57.3906 224.977 57.3906C225.883 57.3906 226.557 57.6458 227 58.1562C227.443 58.6667 227.667 59.4323 227.672 60.4531V66H226.742V60.4453C226.737 59.6901 226.576 59.1276 226.258 58.7578C225.945 58.388 225.443 58.2031 224.75 58.2031C224.172 58.2031 223.659 58.3854 223.211 58.75C222.768 59.1094 222.44 59.5964 222.227 60.2109V66H221.297V57.5469H222.188ZM229.719 61.6953C229.719 60.3724 230.01 59.3255 230.594 58.5547C231.182 57.7786 231.979 57.3906 232.984 57.3906C234.135 57.3906 235.01 57.849 235.609 58.7656L235.656 57.5469H236.531V65.8281C236.531 66.9167 236.227 67.7786 235.617 68.4141C235.008 69.0495 234.182 69.3672 233.141 69.3672C232.552 69.3672 231.99 69.2344 231.453 68.9688C230.922 68.7083 230.503 68.3594 230.195 67.9219L230.719 67.3594C231.38 68.1719 232.167 68.5781 233.078 68.5781C233.859 68.5781 234.469 68.3464 234.906 67.8828C235.344 67.4245 235.57 66.7865 235.586 65.9688V64.9062C234.987 65.7396 234.115 66.1562 232.969 66.1562C231.99 66.1562 231.203 65.7656 230.609 64.9844C230.016 64.2031 229.719 63.1484 229.719 61.8203V61.6953ZM230.664 61.8594C230.664 62.9375 230.88 63.7891 231.312 64.4141C231.745 65.0339 232.354 65.3438 233.141 65.3438C234.292 65.3438 235.107 64.8281 235.586 63.7969V59.8672C235.367 59.3255 235.052 58.9141 234.641 58.6328C234.229 58.3464 233.734 58.2031 233.156 58.2031C232.37 58.2031 231.758 58.513 231.32 59.1328C230.883 59.7474 230.664 60.6562 230.664 61.8594ZM238.773 68.125L238.219 67.7188C238.693 67.0833 238.938 66.4245 238.953 65.7422V64.5312H239.867V65.5078C239.867 66.5911 239.503 67.4635 238.773 68.125ZM34.5547 85C34.4609 84.7344 34.401 84.3411 34.375 83.8203C34.0469 84.2474 33.6276 84.5781 33.1172 84.8125C32.612 85.0417 32.0755 85.1562 31.5078 85.1562C30.6953 85.1562 30.0365 84.9297 29.5312 84.4766C29.0312 84.0234 28.7812 83.4505 28.7812 82.7578C28.7812 81.9349 29.1224 81.2839 29.8047 80.8047C30.4922 80.3255 31.4479 80.0859 32.6719 80.0859H34.3672V79.125C34.3672 78.5208 34.1797 78.0469 33.8047 77.7031C33.4349 77.3542 32.8932 77.1797 32.1797 77.1797C31.5286 77.1797 30.9896 77.3464 30.5625 77.6797C30.1354 78.013 29.9219 78.4141 29.9219 78.8828L28.9844 78.875C28.9844 78.2031 29.2969 77.6224 29.9219 77.1328C30.5469 76.638 31.3151 76.3906 32.2266 76.3906C33.1693 76.3906 33.9115 76.6276 34.4531 77.1016C35 77.5703 35.2812 78.2266 35.2969 79.0703V83.0703C35.2969 83.888 35.3828 84.5 35.5547 84.9062V85H34.5547ZM31.6172 84.3281C32.2422 84.3281 32.7995 84.1771 33.2891 83.875C33.7839 83.5729 34.1432 83.1693 34.3672 82.6641V80.8047H32.6953C31.763 80.8151 31.0339 80.987 30.5078 81.3203C29.9818 81.6484 29.7188 82.1016 29.7188 82.6797C29.7188 83.1536 29.8932 83.5469 30.2422 83.8594C30.5964 84.1719 31.0547 84.3281 31.6172 84.3281ZM37.4219 80.6953C37.4219 79.3828 37.7135 78.3385 38.2969 77.5625C38.8854 76.7812 39.6823 76.3906 40.6875 76.3906C41.8281 76.3906 42.6979 76.8411 43.2969 77.7422V73H44.2266V85H43.3516L43.3125 83.875C42.7135 84.7292 41.8333 85.1562 40.6719 85.1562C39.6979 85.1562 38.9115 84.7656 38.3125 83.9844C37.7188 83.1979 37.4219 82.138 37.4219 80.8047V80.6953ZM38.3672 80.8594C38.3672 81.9375 38.5833 82.7891 39.0156 83.4141C39.4479 84.0339 40.0573 84.3438 40.8438 84.3438C41.9948 84.3438 42.8125 83.8359 43.2969 82.8203V78.8516C42.8125 77.7526 42 77.2031 40.8594 77.2031C40.0729 77.2031 39.4609 77.513 39.0234 78.1328C38.5859 78.7474 38.3672 79.6562 38.3672 80.8594ZM46.1719 80.6484C46.1719 79.8359 46.3281 79.1042 46.6406 78.4531C46.9583 77.8021 47.4036 77.2969 47.9766 76.9375C48.5547 76.5729 49.2083 76.3906 49.9375 76.3906C51.0625 76.3906 51.974 76.7865 52.6719 77.5781C53.3698 78.3646 53.7188 79.4089 53.7188 80.7109V80.9062C53.7188 81.724 53.5599 82.4609 53.2422 83.1172C52.9297 83.7682 52.487 84.2708 51.9141 84.625C51.3411 84.9792 50.6875 85.1562 49.9531 85.1562C48.8333 85.1562 47.9219 84.763 47.2188 83.9766C46.5208 83.1849 46.1719 82.138 46.1719 80.8359V80.6484ZM47.1094 80.9062C47.1094 81.9167 47.3698 82.7474 47.8906 83.3984C48.4167 84.0443 49.1042 84.3672 49.9531 84.3672C50.7969 84.3672 51.4792 84.0443 52 83.3984C52.526 82.7474 52.7891 81.8906 52.7891 80.8281V80.6484C52.7891 80.0026 52.6693 79.4115 52.4297 78.875C52.1901 78.3385 51.8542 77.9245 51.4219 77.6328C50.9896 77.3359 50.4948 77.1875 49.9375 77.1875C49.1042 77.1875 48.4245 77.5156 47.8984 78.1719C47.3724 78.8229 47.1094 79.6771 47.1094 80.7344V80.9062ZM62.4531 80.8594C62.4531 82.1771 62.1615 83.224 61.5781 84C60.9948 84.7708 60.2135 85.1562 59.2344 85.1562C58.0781 85.1562 57.1927 84.75 56.5781 83.9375V88.25H55.6484V76.5469H56.5156L56.5625 77.7422C57.1719 76.8411 58.0547 76.3906 59.2109 76.3906C60.2214 76.3906 61.013 76.7734 61.5859 77.5391C62.1641 78.3047 62.4531 79.3672 62.4531 80.7266V80.8594ZM61.5156 80.6953C61.5156 79.6172 61.2943 78.7656 60.8516 78.1406C60.4089 77.5156 59.7917 77.2031 59 77.2031C58.4271 77.2031 57.9349 77.3411 57.5234 77.6172C57.112 77.8932 56.7969 78.2943 56.5781 78.8203V82.875C56.8021 83.3594 57.1224 83.7292 57.5391 83.9844C57.9557 84.2396 58.4479 84.3672 59.0156 84.3672C59.8021 84.3672 60.4141 84.0547 60.8516 83.4297C61.2943 82.7995 61.5156 81.888 61.5156 80.6953ZM65.9844 74.3828V76.5469H67.7344V77.3125H65.9844V82.9453C65.9844 83.4141 66.0677 83.763 66.2344 83.9922C66.4062 84.2214 66.6901 84.3359 67.0859 84.3359C67.2422 84.3359 67.4948 84.3099 67.8438 84.2578L67.8828 85.0234C67.638 85.112 67.3047 85.1562 66.8828 85.1562C66.2422 85.1562 65.776 84.9714 65.4844 84.6016C65.1927 84.2266 65.0469 83.6771 65.0469 82.9531V77.3125H63.4922V76.5469H65.0469V74.3828H65.9844ZM70.7188 85H69.7812V76.5469H70.7188V85ZM69.6172 74.1016C69.6172 73.9245 69.6745 73.776 69.7891 73.6562C69.9036 73.5312 70.0599 73.4688 70.2578 73.4688C70.4557 73.4688 70.612 73.5312 70.7266 73.6562C70.8464 73.776 70.9062 73.9245 70.9062 74.1016C70.9062 74.2786 70.8464 74.4271 70.7266 74.5469C70.612 74.6667 70.4557 74.7266 70.2578 74.7266C70.0599 74.7266 69.9036 74.6667 69.7891 74.5469C69.6745 74.4271 69.6172 74.2786 69.6172 74.1016ZM74.1562 76.5469L74.1875 77.9922C74.5052 77.4714 74.901 77.0755 75.375 76.8047C75.849 76.5286 76.3724 76.3906 76.9453 76.3906C77.8516 76.3906 78.526 76.6458 78.9688 77.1562C79.4115 77.6667 79.6354 78.4323 79.6406 79.4531V85H78.7109V79.4453C78.7057 78.6901 78.5443 78.1276 78.2266 77.7578C77.9141 77.388 77.4115 77.2031 76.7188 77.2031C76.1406 77.2031 75.6276 77.3854 75.1797 77.75C74.737 78.1094 74.4089 78.5964 74.1953 79.2109V85H73.2656V76.5469H74.1562ZM81.6875 80.6953C81.6875 79.3724 81.9792 78.3255 82.5625 77.5547C83.151 76.7786 83.9479 76.3906 84.9531 76.3906C86.1042 76.3906 86.9792 76.849 87.5781 77.7656L87.625 76.5469H88.5V84.8281C88.5 85.9167 88.1953 86.7786 87.5859 87.4141C86.9766 88.0495 86.151 88.3672 85.1094 88.3672C84.5208 88.3672 83.9583 88.2344 83.4219 87.9688C82.8906 87.7083 82.4714 87.3594 82.1641 86.9219L82.6875 86.3594C83.349 87.1719 84.1354 87.5781 85.0469 87.5781C85.8281 87.5781 86.4375 87.3464 86.875 86.8828C87.3125 86.4245 87.5391 85.7865 87.5547 84.9688V83.9062C86.9557 84.7396 86.0833 85.1562 84.9375 85.1562C83.9583 85.1562 83.1719 84.7656 82.5781 83.9844C81.9844 83.2031 81.6875 82.1484 81.6875 80.8203V80.6953ZM82.6328 80.8594C82.6328 81.9375 82.849 82.7891 83.2812 83.4141C83.7135 84.0339 84.3229 84.3438 85.1094 84.3438C86.2604 84.3438 87.0755 83.8281 87.5547 82.7969V78.8672C87.3359 78.3255 87.0208 77.9141 86.6094 77.6328C86.1979 77.3464 85.7031 77.2031 85.125 77.2031C84.3385 77.2031 83.7266 77.513 83.2891 78.1328C82.8516 78.7474 82.6328 79.6562 82.6328 80.8594ZM90.7422 87.125L90.1875 86.7188C90.6615 86.0833 90.9062 85.4245 90.9219 84.7422V83.5312H91.8359V84.5078C91.8359 85.5911 91.4714 86.4635 90.7422 87.125ZM104.695 80.8594C104.695 82.1771 104.404 83.224 103.82 84C103.237 84.7708 102.453 85.1562 101.469 85.1562C100.292 85.1562 99.401 84.7188 98.7969 83.8438L98.7578 85H97.8828V73H98.8125V77.7734C99.4062 76.8516 100.286 76.3906 101.453 76.3906C102.453 76.3906 103.242 76.7734 103.82 77.5391C104.404 78.2995 104.695 79.3594 104.695 80.7188V80.8594ZM103.758 80.6953C103.758 79.5807 103.542 78.7214 103.109 78.1172C102.677 77.5078 102.068 77.2031 101.281 77.2031C100.682 77.2031 100.174 77.3516 99.7578 77.6484C99.3411 77.9401 99.026 78.3698 98.8125 78.9375V82.75C99.2812 83.8125 100.109 84.3438 101.297 84.3438C102.068 84.3438 102.669 84.0391 103.102 83.4297C103.539 82.8203 103.758 81.9089 103.758 80.6953ZM110.039 85.1562C109.32 85.1562 108.669 84.9792 108.086 84.625C107.508 84.2708 107.057 83.7786 106.734 83.1484C106.411 82.513 106.25 81.8021 106.25 81.0156V80.6797C106.25 79.8672 106.406 79.1354 106.719 78.4844C107.036 77.8333 107.477 77.3229 108.039 76.9531C108.602 76.5781 109.211 76.3906 109.867 76.3906C110.893 76.3906 111.706 76.7422 112.305 77.4453C112.909 78.1432 113.211 79.099 113.211 80.3125V80.8359H107.18V81.0156C107.18 81.974 107.453 82.7734 108 83.4141C108.552 84.0495 109.245 84.3672 110.078 84.3672C110.578 84.3672 111.018 84.276 111.398 84.0938C111.784 83.9115 112.133 83.6198 112.445 83.2188L113.031 83.6641C112.344 84.6589 111.346 85.1562 110.039 85.1562ZM109.867 77.1875C109.164 77.1875 108.57 77.4453 108.086 77.9609C107.607 78.4766 107.315 79.1693 107.211 80.0391H112.281V79.9375C112.255 79.125 112.023 78.4635 111.586 77.9531C111.148 77.4427 110.576 77.1875 109.867 77.1875ZM115.922 76.5469L115.953 77.9922C116.271 77.4714 116.667 77.0755 117.141 76.8047C117.615 76.5286 118.138 76.3906 118.711 76.3906C119.617 76.3906 120.292 76.6458 120.734 77.1562C121.177 77.6667 121.401 78.4323 121.406 79.4531V85H120.477V79.4453C120.471 78.6901 120.31 78.1276 119.992 77.7578C119.68 77.388 119.177 77.2031 118.484 77.2031C117.906 77.2031 117.393 77.3854 116.945 77.75C116.503 78.1094 116.174 78.5964 115.961 79.2109V85H115.031V76.5469H115.922ZM127.102 85.1562C126.383 85.1562 125.732 84.9792 125.148 84.625C124.57 84.2708 124.12 83.7786 123.797 83.1484C123.474 82.513 123.312 81.8021 123.312 81.0156V80.6797C123.312 79.8672 123.469 79.1354 123.781 78.4844C124.099 77.8333 124.539 77.3229 125.102 76.9531C125.664 76.5781 126.273 76.3906 126.93 76.3906C127.956 76.3906 128.768 76.7422 129.367 77.4453C129.971 78.1432 130.273 79.099 130.273 80.3125V80.8359H124.242V81.0156C124.242 81.974 124.516 82.7734 125.062 83.4141C125.615 84.0495 126.307 84.3672 127.141 84.3672C127.641 84.3672 128.081 84.276 128.461 84.0938C128.846 83.9115 129.195 83.6198 129.508 83.2188L130.094 83.6641C129.406 84.6589 128.409 85.1562 127.102 85.1562ZM126.93 77.1875C126.227 77.1875 125.633 77.4453 125.148 77.9609C124.669 78.4766 124.378 79.1693 124.273 80.0391H129.344V79.9375C129.318 79.125 129.086 78.4635 128.648 77.9531C128.211 77.4427 127.638 77.1875 126.93 77.1875ZM132.656 85V77.3125H131.25V76.5469H132.656V75.6797C132.656 74.7786 132.901 74.0807 133.391 73.5859C133.88 73.0859 134.57 72.8359 135.461 72.8359C136.159 72.8359 136.878 72.9896 137.617 73.2969L137.461 74.1016C136.826 73.8255 136.18 73.6875 135.523 73.6875C134.237 73.6875 133.594 74.3568 133.594 75.6953V76.5469H135.57V77.3125H133.594V85H132.656ZM138.125 85H137.188V76.5469H138.125V85ZM142.141 74.3828V76.5469H143.891V77.3125H142.141V82.9453C142.141 83.4141 142.224 83.763 142.391 83.9922C142.562 84.2214 142.846 84.3359 143.242 84.3359C143.398 84.3359 143.651 84.3099 144 84.2578L144.039 85.0234C143.794 85.112 143.461 85.1562 143.039 85.1562C142.398 85.1562 141.932 84.9714 141.641 84.6016C141.349 84.2266 141.203 83.6771 141.203 82.9531V77.3125H139.648V76.5469H141.203V74.3828H142.141ZM150.891 82.8516C150.891 82.388 150.703 82.0156 150.328 81.7344C149.958 81.4531 149.398 81.2344 148.648 81.0781C147.898 80.9167 147.315 80.7344 146.898 80.5312C146.487 80.3229 146.18 80.0703 145.977 79.7734C145.779 79.4766 145.68 79.1172 145.68 78.6953C145.68 78.0286 145.958 77.4792 146.516 77.0469C147.073 76.6094 147.786 76.3906 148.656 76.3906C149.599 76.3906 150.354 76.625 150.922 77.0938C151.495 77.5573 151.781 78.1641 151.781 78.9141H150.844C150.844 78.4193 150.635 78.0078 150.219 77.6797C149.807 77.3516 149.286 77.1875 148.656 77.1875C148.042 77.1875 147.547 77.3255 147.172 77.6016C146.802 77.8724 146.617 78.2266 146.617 78.6641C146.617 79.0859 146.771 79.4141 147.078 79.6484C147.391 79.8776 147.956 80.0885 148.773 80.2812C149.596 80.474 150.211 80.6797 150.617 80.8984C151.029 81.1172 151.333 81.3802 151.531 81.6875C151.729 81.9948 151.828 82.3672 151.828 82.8047C151.828 83.5182 151.539 84.0885 150.961 84.5156C150.388 84.9427 149.638 85.1562 148.711 85.1562C147.727 85.1562 146.927 84.9193 146.312 84.4453C145.703 83.9661 145.398 83.362 145.398 82.6328H146.336C146.372 83.1797 146.602 83.6068 147.023 83.9141C147.451 84.2161 148.013 84.3672 148.711 84.3672C149.362 84.3672 149.888 84.224 150.289 83.9375C150.69 83.651 150.891 83.2891 150.891 82.8516ZM158.5 85V77.3125H157.102V76.5469H158.5V75.5234C158.5 74.6589 158.719 73.9948 159.156 73.5312C159.599 73.0677 160.214 72.8359 161 72.8359C161.354 72.8359 161.685 72.8802 161.992 72.9688L161.922 73.75C161.661 73.6875 161.378 73.6562 161.07 73.6562C160.555 73.6562 160.154 73.8177 159.867 74.1406C159.581 74.4583 159.438 74.9115 159.438 75.5V76.5469H161.453V77.3125H159.438V85H158.5ZM162.609 80.6484C162.609 79.8359 162.766 79.1042 163.078 78.4531C163.396 77.8021 163.841 77.2969 164.414 76.9375C164.992 76.5729 165.646 76.3906 166.375 76.3906C167.5 76.3906 168.411 76.7865 169.109 77.5781C169.807 78.3646 170.156 79.4089 170.156 80.7109V80.9062C170.156 81.724 169.997 82.4609 169.68 83.1172C169.367 83.7682 168.924 84.2708 168.352 84.625C167.779 84.9792 167.125 85.1562 166.391 85.1562C165.271 85.1562 164.359 84.763 163.656 83.9766C162.958 83.1849 162.609 82.138 162.609 80.8359V80.6484ZM163.547 80.9062C163.547 81.9167 163.807 82.7474 164.328 83.3984C164.854 84.0443 165.542 84.3672 166.391 84.3672C167.234 84.3672 167.917 84.0443 168.438 83.3984C168.964 82.7474 169.227 81.8906 169.227 80.8281V80.6484C169.227 80.0026 169.107 79.4115 168.867 78.875C168.628 78.3385 168.292 77.9245 167.859 77.6328C167.427 77.3359 166.932 77.1875 166.375 77.1875C165.542 77.1875 164.862 77.5156 164.336 78.1719C163.81 78.8229 163.547 79.6771 163.547 80.7344V80.9062ZM176 77.3438C175.802 77.3073 175.591 77.2891 175.367 77.2891C174.784 77.2891 174.289 77.4531 173.883 77.7812C173.482 78.1042 173.195 78.5755 173.023 79.1953V85H172.094V76.5469H173.008L173.023 77.8906C173.518 76.8906 174.312 76.3906 175.406 76.3906C175.667 76.3906 175.872 76.4245 176.023 76.4922L176 77.3438ZM184.5 84.3672C185.151 84.3672 185.695 84.1849 186.133 83.8203C186.576 83.4505 186.815 82.974 186.852 82.3906H187.75C187.724 82.9062 187.562 83.3776 187.266 83.8047C186.969 84.2266 186.573 84.5573 186.078 84.7969C185.589 85.0365 185.062 85.1562 184.5 85.1562C183.391 85.1562 182.51 84.7708 181.859 84C181.214 83.2292 180.891 82.1927 180.891 80.8906V80.6094C180.891 79.776 181.036 79.0391 181.328 78.3984C181.62 77.7578 182.036 77.263 182.578 76.9141C183.125 76.5651 183.763 76.3906 184.492 76.3906C185.419 76.3906 186.182 76.6667 186.781 77.2188C187.385 77.7708 187.708 78.4974 187.75 79.3984H186.852C186.81 78.737 186.57 78.2031 186.133 77.7969C185.701 77.3906 185.154 77.1875 184.492 77.1875C183.648 77.1875 182.992 77.4922 182.523 78.1016C182.06 78.7109 181.828 79.5651 181.828 80.6641V80.9375C181.828 82.0156 182.06 82.8568 182.523 83.4609C182.992 84.0651 183.651 84.3672 184.5 84.3672ZM190.555 77.9766C190.862 77.4714 191.255 77.0807 191.734 76.8047C192.214 76.5286 192.737 76.3906 193.305 76.3906C194.211 76.3906 194.885 76.6458 195.328 77.1562C195.771 77.6667 195.995 78.4323 196 79.4531V85H195.07V79.4453C195.065 78.6901 194.904 78.1276 194.586 77.7578C194.273 77.388 193.771 77.2031 193.078 77.2031C192.5 77.2031 191.987 77.3854 191.539 77.75C191.096 78.1094 190.768 78.5964 190.555 79.2109V85H189.625V73H190.555V77.9766ZM199.453 85H198.516V76.5469H199.453V85ZM198.352 74.1016C198.352 73.9245 198.409 73.776 198.523 73.6562C198.638 73.5312 198.794 73.4688 198.992 73.4688C199.19 73.4688 199.346 73.5312 199.461 73.6562C199.581 73.776 199.641 73.9245 199.641 74.1016C199.641 74.2786 199.581 74.4271 199.461 74.5469C199.346 74.6667 199.19 74.7266 198.992 74.7266C198.794 74.7266 198.638 74.6667 198.523 74.5469C198.409 74.4271 198.352 74.2786 198.352 74.1016ZM203.047 85H202.109V73H203.047V85ZM205.219 80.6953C205.219 79.3828 205.51 78.3385 206.094 77.5625C206.682 76.7812 207.479 76.3906 208.484 76.3906C209.625 76.3906 210.495 76.8411 211.094 77.7422V73H212.023V85H211.148L211.109 83.875C210.51 84.7292 209.63 85.1562 208.469 85.1562C207.495 85.1562 206.708 84.7656 206.109 83.9844C205.516 83.1979 205.219 82.138 205.219 80.8047V80.6953ZM206.164 80.8594C206.164 81.9375 206.38 82.7891 206.812 83.4141C207.245 84.0339 207.854 84.3438 208.641 84.3438C209.792 84.3438 210.609 83.8359 211.094 82.8203V78.8516C210.609 77.7526 209.797 77.2031 208.656 77.2031C207.87 77.2031 207.258 77.513 206.82 78.1328C206.383 78.7474 206.164 79.6562 206.164 80.8594ZM218.391 77.3438C218.193 77.3073 217.982 77.2891 217.758 77.2891C217.174 77.2891 216.68 77.4531 216.273 77.7812C215.872 78.1042 215.586 78.5755 215.414 79.1953V85H214.484V76.5469H215.398L215.414 77.8906C215.909 76.8906 216.703 76.3906 217.797 76.3906C218.057 76.3906 218.263 76.4245 218.414 76.4922L218.391 77.3438ZM222.992 85.1562C222.273 85.1562 221.622 84.9792 221.039 84.625C220.461 84.2708 220.01 83.7786 219.688 83.1484C219.365 82.513 219.203 81.8021 219.203 81.0156V80.6797C219.203 79.8672 219.359 79.1354 219.672 78.4844C219.99 77.8333 220.43 77.3229 220.992 76.9531C221.555 76.5781 222.164 76.3906 222.82 76.3906C223.846 76.3906 224.659 76.7422 225.258 77.4453C225.862 78.1432 226.164 79.099 226.164 80.3125V80.8359H220.133V81.0156C220.133 81.974 220.406 82.7734 220.953 83.4141C221.505 84.0495 222.198 84.3672 223.031 84.3672C223.531 84.3672 223.971 84.276 224.352 84.0938C224.737 83.9115 225.086 83.6198 225.398 83.2188L225.984 83.6641C225.297 84.6589 224.299 85.1562 222.992 85.1562ZM222.82 77.1875C222.117 77.1875 221.523 77.4453 221.039 77.9609C220.56 78.4766 220.268 79.1693 220.164 80.0391H225.234V79.9375C225.208 79.125 224.977 78.4635 224.539 77.9531C224.102 77.4427 223.529 77.1875 222.82 77.1875ZM228.875 76.5469L228.906 77.9922C229.224 77.4714 229.62 77.0755 230.094 76.8047C230.568 76.5286 231.091 76.3906 231.664 76.3906C232.57 76.3906 233.245 76.6458 233.688 77.1562C234.13 77.6667 234.354 78.4323 234.359 79.4531V85H233.43V79.4453C233.424 78.6901 233.263 78.1276 232.945 77.7578C232.633 77.388 232.13 77.2031 231.438 77.2031C230.859 77.2031 230.346 77.3854 229.898 77.75C229.456 78.1094 229.128 78.5964 228.914 79.2109V85H227.984V76.5469H228.875ZM236.586 87.125L236.031 86.7188C236.505 86.0833 236.75 85.4245 236.766 84.7422V83.5312H237.68V84.5078C237.68 85.5911 237.315 86.4635 236.586 87.125ZM32.3438 103.367C32.9948 103.367 33.5391 103.185 33.9766 102.82C34.4193 102.451 34.6589 101.974 34.6953 101.391H35.5938C35.5677 101.906 35.4062 102.378 35.1094 102.805C34.8125 103.227 34.4167 103.557 33.9219 103.797C33.4323 104.036 32.9062 104.156 32.3438 104.156C31.2344 104.156 30.3542 103.771 29.7031 103C29.0573 102.229 28.7344 101.193 28.7344 99.8906V99.6094C28.7344 98.776 28.8802 98.0391 29.1719 97.3984C29.4635 96.7578 29.8802 96.263 30.4219 95.9141C30.9688 95.5651 31.6068 95.3906 32.3359 95.3906C33.263 95.3906 34.026 95.6667 34.625 96.2188C35.2292 96.7708 35.5521 97.4974 35.5938 98.3984H34.6953C34.6536 97.737 34.4141 97.2031 33.9766 96.7969C33.5443 96.3906 32.9974 96.1875 32.3359 96.1875C31.4922 96.1875 30.8359 96.4922 30.3672 97.1016C29.9036 97.7109 29.6719 98.5651 29.6719 99.6641V99.9375C29.6719 101.016 29.9036 101.857 30.3672 102.461C30.8359 103.065 31.4948 103.367 32.3438 103.367ZM38.3984 96.9766C38.7057 96.4714 39.099 96.0807 39.5781 95.8047C40.0573 95.5286 40.5807 95.3906 41.1484 95.3906C42.0547 95.3906 42.7292 95.6458 43.1719 96.1562C43.6146 96.6667 43.8385 97.4323 43.8438 98.4531V104H42.9141V98.4453C42.9089 97.6901 42.7474 97.1276 42.4297 96.7578C42.1172 96.388 41.6146 96.2031 40.9219 96.2031C40.3438 96.2031 39.8307 96.3854 39.3828 96.75C38.9401 97.1094 38.612 97.5964 38.3984 98.2109V104H37.4688V92H38.3984V96.9766ZM47.2969 104H46.3594V95.5469H47.2969V104ZM46.1953 93.1016C46.1953 92.9245 46.2526 92.776 46.3672 92.6562C46.4818 92.5312 46.638 92.4688 46.8359 92.4688C47.0339 92.4688 47.1901 92.5312 47.3047 92.6562C47.4245 92.776 47.4844 92.9245 47.4844 93.1016C47.4844 93.2786 47.4245 93.4271 47.3047 93.5469C47.1901 93.6667 47.0339 93.7266 46.8359 93.7266C46.638 93.7266 46.4818 93.6667 46.3672 93.5469C46.2526 93.4271 46.1953 93.2786 46.1953 93.1016ZM50.8906 104H49.9531V92H50.8906V104ZM53.0625 99.6953C53.0625 98.3828 53.3542 97.3385 53.9375 96.5625C54.526 95.7812 55.3229 95.3906 56.3281 95.3906C57.4688 95.3906 58.3385 95.8411 58.9375 96.7422V92H59.8672V104H58.9922L58.9531 102.875C58.3542 103.729 57.474 104.156 56.3125 104.156C55.3385 104.156 54.5521 103.766 53.9531 102.984C53.3594 102.198 53.0625 101.138 53.0625 99.8047V99.6953ZM54.0078 99.8594C54.0078 100.938 54.224 101.789 54.6562 102.414C55.0885 103.034 55.6979 103.344 56.4844 103.344C57.6354 103.344 58.4531 102.836 58.9375 101.82V97.8516C58.4531 96.7526 57.6406 96.2031 56.5 96.2031C55.7135 96.2031 55.1016 96.513 54.6641 97.1328C54.2266 97.7474 54.0078 98.6562 54.0078 99.8594ZM65.4531 103.367C66.1042 103.367 66.6484 103.185 67.0859 102.82C67.5286 102.451 67.7682 101.974 67.8047 101.391H68.7031C68.6771 101.906 68.5156 102.378 68.2188 102.805C67.9219 103.227 67.526 103.557 67.0312 103.797C66.5417 104.036 66.0156 104.156 65.4531 104.156C64.3438 104.156 63.4635 103.771 62.8125 103C62.1667 102.229 61.8438 101.193 61.8438 99.8906V99.6094C61.8438 98.776 61.9896 98.0391 62.2812 97.3984C62.5729 96.7578 62.9896 96.263 63.5312 95.9141C64.0781 95.5651 64.7161 95.3906 65.4453 95.3906C66.3724 95.3906 67.1354 95.6667 67.7344 96.2188C68.3385 96.7708 68.6615 97.4974 68.7031 98.3984H67.8047C67.763 97.737 67.5234 97.2031 67.0859 96.7969C66.6536 96.3906 66.1068 96.1875 65.4453 96.1875C64.6016 96.1875 63.9453 96.4922 63.4766 97.1016C63.013 97.7109 62.7812 98.5651 62.7812 99.6641V99.9375C62.7812 101.016 63.013 101.857 63.4766 102.461C63.9453 103.065 64.6042 103.367 65.4531 103.367ZM75.9141 104C75.8203 103.734 75.7604 103.341 75.7344 102.82C75.4062 103.247 74.987 103.578 74.4766 103.812C73.9714 104.042 73.4349 104.156 72.8672 104.156C72.0547 104.156 71.3958 103.93 70.8906 103.477C70.3906 103.023 70.1406 102.451 70.1406 101.758C70.1406 100.935 70.4818 100.284 71.1641 99.8047C71.8516 99.3255 72.8073 99.0859 74.0312 99.0859H75.7266V98.125C75.7266 97.5208 75.5391 97.0469 75.1641 96.7031C74.7943 96.3542 74.2526 96.1797 73.5391 96.1797C72.888 96.1797 72.349 96.3464 71.9219 96.6797C71.4948 97.013 71.2812 97.4141 71.2812 97.8828L70.3438 97.875C70.3438 97.2031 70.6562 96.6224 71.2812 96.1328C71.9062 95.638 72.6745 95.3906 73.5859 95.3906C74.5286 95.3906 75.2708 95.6276 75.8125 96.1016C76.3594 96.5703 76.6406 97.2266 76.6562 98.0703V102.07C76.6562 102.888 76.7422 103.5 76.9141 103.906V104H75.9141ZM72.9766 103.328C73.6016 103.328 74.1589 103.177 74.6484 102.875C75.1432 102.573 75.5026 102.169 75.7266 101.664V99.8047H74.0547C73.1224 99.8151 72.3932 99.987 71.8672 100.32C71.3411 100.648 71.0781 101.102 71.0781 101.68C71.0781 102.154 71.2526 102.547 71.6016 102.859C71.9557 103.172 72.4141 103.328 72.9766 103.328ZM83.0625 96.3438C82.8646 96.3073 82.6536 96.2891 82.4297 96.2891C81.8464 96.2891 81.3516 96.4531 80.9453 96.7812C80.5443 97.1042 80.2578 97.5755 80.0859 98.1953V104H79.1562V95.5469H80.0703L80.0859 96.8906C80.5807 95.8906 81.375 95.3906 82.4688 95.3906C82.7292 95.3906 82.9349 95.4245 83.0859 95.4922L83.0625 96.3438ZM87.6641 104.156C86.9453 104.156 86.2943 103.979 85.7109 103.625C85.1328 103.271 84.6823 102.779 84.3594 102.148C84.0365 101.513 83.875 100.802 83.875 100.016V99.6797C83.875 98.8672 84.0312 98.1354 84.3438 97.4844C84.6615 96.8333 85.1016 96.3229 85.6641 95.9531C86.2266 95.5781 86.8359 95.3906 87.4922 95.3906C88.5182 95.3906 89.3307 95.7422 89.9297 96.4453C90.5339 97.1432 90.8359 98.099 90.8359 99.3125V99.8359H84.8047V100.016C84.8047 100.974 85.0781 101.773 85.625 102.414C86.1771 103.049 86.8698 103.367 87.7031 103.367C88.2031 103.367 88.6432 103.276 89.0234 103.094C89.4089 102.911 89.7578 102.62 90.0703 102.219L90.6562 102.664C89.9688 103.659 88.9714 104.156 87.6641 104.156ZM87.4922 96.1875C86.7891 96.1875 86.1953 96.4453 85.7109 96.9609C85.2318 97.4766 84.9401 98.1693 84.8359 99.0391H89.9062V98.9375C89.8802 98.125 89.6484 97.4635 89.2109 96.9531C88.7734 96.4427 88.2005 96.1875 87.4922 96.1875ZM101.883 104C101.789 103.734 101.729 103.341 101.703 102.82C101.375 103.247 100.956 103.578 100.445 103.812C99.9401 104.042 99.4036 104.156 98.8359 104.156C98.0234 104.156 97.3646 103.93 96.8594 103.477C96.3594 103.023 96.1094 102.451 96.1094 101.758C96.1094 100.935 96.4505 100.284 97.1328 99.8047C97.8203 99.3255 98.776 99.0859 100 99.0859H101.695V98.125C101.695 97.5208 101.508 97.0469 101.133 96.7031C100.763 96.3542 100.221 96.1797 99.5078 96.1797C98.8568 96.1797 98.3177 96.3464 97.8906 96.6797C97.4635 97.013 97.25 97.4141 97.25 97.8828L96.3125 97.875C96.3125 97.2031 96.625 96.6224 97.25 96.1328C97.875 95.638 98.6432 95.3906 99.5547 95.3906C100.497 95.3906 101.24 95.6276 101.781 96.1016C102.328 96.5703 102.609 97.2266 102.625 98.0703V102.07C102.625 102.888 102.711 103.5 102.883 103.906V104H101.883ZM98.9453 103.328C99.5703 103.328 100.128 103.177 100.617 102.875C101.112 102.573 101.471 102.169 101.695 101.664V99.8047H100.023C99.0911 99.8151 98.362 99.987 97.8359 100.32C97.3099 100.648 97.0469 101.102 97.0469 101.68C97.0469 102.154 97.2214 102.547 97.5703 102.859C97.9245 103.172 98.3828 103.328 98.9453 103.328ZM106.016 95.5469L106.047 96.9922C106.365 96.4714 106.76 96.0755 107.234 95.8047C107.708 95.5286 108.232 95.3906 108.805 95.3906C109.711 95.3906 110.385 95.6458 110.828 96.1562C111.271 96.6667 111.495 97.4323 111.5 98.4531V104H110.57V98.4453C110.565 97.6901 110.404 97.1276 110.086 96.7578C109.773 96.388 109.271 96.2031 108.578 96.2031C108 96.2031 107.487 96.3854 107.039 96.75C106.596 97.1094 106.268 97.5964 106.055 98.2109V104H105.125V95.5469H106.016ZM113.547 99.6953C113.547 98.3828 113.839 97.3385 114.422 96.5625C115.01 95.7812 115.807 95.3906 116.812 95.3906C117.953 95.3906 118.823 95.8411 119.422 96.7422V92H120.352V104H119.477L119.438 102.875C118.839 103.729 117.958 104.156 116.797 104.156C115.823 104.156 115.036 103.766 114.438 102.984C113.844 102.198 113.547 101.138 113.547 99.8047V99.6953ZM114.492 99.8594C114.492 100.938 114.708 101.789 115.141 102.414C115.573 103.034 116.182 103.344 116.969 103.344C118.12 103.344 118.938 102.836 119.422 101.82V97.8516C118.938 96.7526 118.125 96.2031 116.984 96.2031C116.198 96.2031 115.586 96.513 115.148 97.1328C114.711 97.7474 114.492 98.6562 114.492 99.8594ZM131.766 101.852C131.766 101.388 131.578 101.016 131.203 100.734C130.833 100.453 130.273 100.234 129.523 100.078C128.773 99.9167 128.19 99.7344 127.773 99.5312C127.362 99.3229 127.055 99.0703 126.852 98.7734C126.654 98.4766 126.555 98.1172 126.555 97.6953C126.555 97.0286 126.833 96.4792 127.391 96.0469C127.948 95.6094 128.661 95.3906 129.531 95.3906C130.474 95.3906 131.229 95.625 131.797 96.0938C132.37 96.5573 132.656 97.1641 132.656 97.9141H131.719C131.719 97.4193 131.51 97.0078 131.094 96.6797C130.682 96.3516 130.161 96.1875 129.531 96.1875C128.917 96.1875 128.422 96.3255 128.047 96.6016C127.677 96.8724 127.492 97.2266 127.492 97.6641C127.492 98.0859 127.646 98.4141 127.953 98.6484C128.266 98.8776 128.831 99.0885 129.648 99.2812C130.471 99.474 131.086 99.6797 131.492 99.8984C131.904 100.117 132.208 100.38 132.406 100.688C132.604 100.995 132.703 101.367 132.703 101.805C132.703 102.518 132.414 103.089 131.836 103.516C131.263 103.943 130.513 104.156 129.586 104.156C128.602 104.156 127.802 103.919 127.188 103.445C126.578 102.966 126.273 102.362 126.273 101.633H127.211C127.247 102.18 127.477 102.607 127.898 102.914C128.326 103.216 128.888 103.367 129.586 103.367C130.237 103.367 130.763 103.224 131.164 102.938C131.565 102.651 131.766 102.289 131.766 101.852ZM137.938 103.367C138.589 103.367 139.133 103.185 139.57 102.82C140.013 102.451 140.253 101.974 140.289 101.391H141.188C141.161 101.906 141 102.378 140.703 102.805C140.406 103.227 140.01 103.557 139.516 103.797C139.026 104.036 138.5 104.156 137.938 104.156C136.828 104.156 135.948 103.771 135.297 103C134.651 102.229 134.328 101.193 134.328 99.8906V99.6094C134.328 98.776 134.474 98.0391 134.766 97.3984C135.057 96.7578 135.474 96.263 136.016 95.9141C136.562 95.5651 137.201 95.3906 137.93 95.3906C138.857 95.3906 139.62 95.6667 140.219 96.2188C140.823 96.7708 141.146 97.4974 141.188 98.3984H140.289C140.247 97.737 140.008 97.2031 139.57 96.7969C139.138 96.3906 138.591 96.1875 137.93 96.1875C137.086 96.1875 136.43 96.4922 135.961 97.1016C135.497 97.7109 135.266 98.5651 135.266 99.6641V99.9375C135.266 101.016 135.497 101.857 135.961 102.461C136.43 103.065 137.089 103.367 137.938 103.367ZM143.992 96.9766C144.299 96.4714 144.693 96.0807 145.172 95.8047C145.651 95.5286 146.174 95.3906 146.742 95.3906C147.648 95.3906 148.323 95.6458 148.766 96.1562C149.208 96.6667 149.432 97.4323 149.438 98.4531V104H148.508V98.4453C148.503 97.6901 148.341 97.1276 148.023 96.7578C147.711 96.388 147.208 96.2031 146.516 96.2031C145.938 96.2031 145.424 96.3854 144.977 96.75C144.534 97.1094 144.206 97.5964 143.992 98.2109V104H143.062V92H143.992V96.9766ZM151.328 99.6484C151.328 98.8359 151.484 98.1042 151.797 97.4531C152.115 96.8021 152.56 96.2969 153.133 95.9375C153.711 95.5729 154.365 95.3906 155.094 95.3906C156.219 95.3906 157.13 95.7865 157.828 96.5781C158.526 97.3646 158.875 98.4089 158.875 99.7109V99.9062C158.875 100.724 158.716 101.461 158.398 102.117C158.086 102.768 157.643 103.271 157.07 103.625C156.497 103.979 155.844 104.156 155.109 104.156C153.99 104.156 153.078 103.763 152.375 102.977C151.677 102.185 151.328 101.138 151.328 99.8359V99.6484ZM152.266 99.9062C152.266 100.917 152.526 101.747 153.047 102.398C153.573 103.044 154.26 103.367 155.109 103.367C155.953 103.367 156.635 103.044 157.156 102.398C157.682 101.747 157.945 100.891 157.945 99.8281V99.6484C157.945 99.0026 157.826 98.4115 157.586 97.875C157.346 97.3385 157.01 96.9245 156.578 96.6328C156.146 96.3359 155.651 96.1875 155.094 96.1875C154.26 96.1875 153.581 96.5156 153.055 97.1719C152.529 97.8229 152.266 98.6771 152.266 99.7344V99.9062ZM160.297 99.6484C160.297 98.8359 160.453 98.1042 160.766 97.4531C161.083 96.8021 161.529 96.2969 162.102 95.9375C162.68 95.5729 163.333 95.3906 164.062 95.3906C165.188 95.3906 166.099 95.7865 166.797 96.5781C167.495 97.3646 167.844 98.4089 167.844 99.7109V99.9062C167.844 100.724 167.685 101.461 167.367 102.117C167.055 102.768 166.612 103.271 166.039 103.625C165.466 103.979 164.812 104.156 164.078 104.156C162.958 104.156 162.047 103.763 161.344 102.977C160.646 102.185 160.297 101.138 160.297 99.8359V99.6484ZM161.234 99.9062C161.234 100.917 161.495 101.747 162.016 102.398C162.542 103.044 163.229 103.367 164.078 103.367C164.922 103.367 165.604 103.044 166.125 102.398C166.651 101.747 166.914 100.891 166.914 99.8281V99.6484C166.914 99.0026 166.794 98.4115 166.555 97.875C166.315 97.3385 165.979 96.9245 165.547 96.6328C165.115 96.3359 164.62 96.1875 164.062 96.1875C163.229 96.1875 162.549 96.5156 162.023 97.1719C161.497 97.8229 161.234 98.6771 161.234 99.7344V99.9062ZM170.828 104H169.891V92H170.828V104ZM178.438 101.852C178.438 101.388 178.25 101.016 177.875 100.734C177.505 100.453 176.945 100.234 176.195 100.078C175.445 99.9167 174.862 99.7344 174.445 99.5312C174.034 99.3229 173.727 99.0703 173.523 98.7734C173.326 98.4766 173.227 98.1172 173.227 97.6953C173.227 97.0286 173.505 96.4792 174.062 96.0469C174.62 95.6094 175.333 95.3906 176.203 95.3906C177.146 95.3906 177.901 95.625 178.469 96.0938C179.042 96.5573 179.328 97.1641 179.328 97.9141H178.391C178.391 97.4193 178.182 97.0078 177.766 96.6797C177.354 96.3516 176.833 96.1875 176.203 96.1875C175.589 96.1875 175.094 96.3255 174.719 96.6016C174.349 96.8724 174.164 97.2266 174.164 97.6641C174.164 98.0859 174.318 98.4141 174.625 98.6484C174.938 98.8776 175.503 99.0885 176.32 99.2812C177.143 99.474 177.758 99.6797 178.164 99.8984C178.576 100.117 178.88 100.38 179.078 100.688C179.276 100.995 179.375 101.367 179.375 101.805C179.375 102.518 179.086 103.089 178.508 103.516C177.935 103.943 177.185 104.156 176.258 104.156C175.273 104.156 174.474 103.919 173.859 103.445C173.25 102.966 172.945 102.362 172.945 101.633H173.883C173.919 102.18 174.148 102.607 174.57 102.914C174.997 103.216 175.56 103.367 176.258 103.367C176.909 103.367 177.435 103.224 177.836 102.938C178.237 102.651 178.438 102.289 178.438 101.852Z" fill="black"/>
</g>
<g filter="url(#filter1_di_211_2936)">
<rect width="328" height="109" transform="translate(364)" fill="white"/>
<path d="M397.333 32.146H391.989V35.7642H398.261V38H389.206V24.4922H398.242V26.7466H391.989V29.9658H397.333V32.146ZM402.231 27.9619L402.315 29.0845C403.026 28.2124 403.988 27.7764 405.2 27.7764C406.493 27.7764 407.38 28.2866 407.863 29.3071C408.568 28.2866 409.573 27.7764 410.878 27.7764C411.966 27.7764 412.777 28.0949 413.309 28.7319C413.84 29.3628 414.106 30.3153 414.106 31.5894V38H411.416V31.5986C411.416 31.0296 411.305 30.6152 411.082 30.3555C410.859 30.0895 410.467 29.9565 409.904 29.9565C409.1 29.9565 408.543 30.34 408.234 31.1069L408.243 38H405.562V31.6079C405.562 31.0265 405.448 30.606 405.219 30.3462C404.99 30.0864 404.6 29.9565 404.05 29.9565C403.289 29.9565 402.739 30.272 402.398 30.9028V38H399.717V27.9619H402.231ZM425.211 33.0737C425.211 34.62 424.859 35.86 424.154 36.7939C423.455 37.7217 422.509 38.1855 421.315 38.1855C420.301 38.1855 419.481 37.833 418.856 37.1279V41.8594H416.175V27.9619H418.662L418.754 28.9453C419.404 28.166 420.251 27.7764 421.296 27.7764C422.533 27.7764 423.495 28.234 424.182 29.1494C424.868 30.0648 425.211 31.3265 425.211 32.9346V33.0737ZM422.53 32.8789C422.53 31.945 422.363 31.2244 422.029 30.7173C421.701 30.2101 421.222 29.9565 420.591 29.9565C419.75 29.9565 419.172 30.2782 418.856 30.9214V35.0312C419.184 35.693 419.769 36.0239 420.61 36.0239C421.89 36.0239 422.53 34.9756 422.53 32.8789ZM429.711 38H427.021V23.75H429.711V38ZM431.511 32.8882C431.511 31.8924 431.702 31.0049 432.086 30.2256C432.469 29.4463 433.02 28.8433 433.737 28.4165C434.461 27.9897 435.299 27.7764 436.251 27.7764C437.606 27.7764 438.71 28.1908 439.563 29.0195C440.423 29.8483 440.903 30.974 441.001 32.3965L441.02 33.083C441.02 34.623 440.59 35.86 439.73 36.7939C438.871 37.7217 437.717 38.1855 436.27 38.1855C434.823 38.1855 433.666 37.7217 432.8 36.7939C431.941 35.8662 431.511 34.6045 431.511 33.0088V32.8882ZM434.192 33.083C434.192 34.0355 434.371 34.7653 434.73 35.2725C435.089 35.7734 435.602 36.0239 436.27 36.0239C436.919 36.0239 437.427 35.7765 437.792 35.2817C438.156 34.7808 438.339 33.9829 438.339 32.8882C438.339 31.9543 438.156 31.2306 437.792 30.7173C437.427 30.2039 436.913 29.9473 436.251 29.9473C435.596 29.9473 435.089 30.2039 434.73 30.7173C434.371 31.2244 434.192 32.013 434.192 33.083ZM446.271 34.2056L448.126 27.9619H451.002L446.967 39.5586L446.744 40.0874C446.144 41.3986 445.155 42.0542 443.775 42.0542C443.386 42.0542 442.99 41.9954 442.588 41.8779V39.8462L442.996 39.8555C443.503 39.8555 443.881 39.7782 444.128 39.6235C444.382 39.4689 444.579 39.2122 444.722 38.8535L445.037 38.0278L441.521 27.9619H444.406L446.271 34.2056ZM454.89 38H452.199V27.9619H454.89V38ZM452.042 25.3643C452.042 24.9622 452.174 24.6313 452.44 24.3716C452.713 24.1118 453.081 23.9819 453.544 23.9819C454.002 23.9819 454.367 24.1118 454.639 24.3716C454.911 24.6313 455.047 24.9622 455.047 25.3643C455.047 25.7725 454.908 26.1064 454.63 26.3662C454.358 26.626 453.996 26.7559 453.544 26.7559C453.093 26.7559 452.728 26.626 452.45 26.3662C452.178 26.1064 452.042 25.7725 452.042 25.3643ZM459.575 27.9619L459.658 29.1216C460.376 28.2248 461.337 27.7764 462.543 27.7764C463.607 27.7764 464.399 28.0887 464.918 28.7134C465.438 29.3381 465.704 30.272 465.716 31.5151V38H463.035V31.5801C463.035 31.0111 462.911 30.5998 462.664 30.3462C462.417 30.0864 462.005 29.9565 461.43 29.9565C460.676 29.9565 460.11 30.2782 459.732 30.9214V38H457.051V27.9619H459.575ZM467.368 32.9067C467.368 31.3667 467.733 30.1266 468.462 29.1865C469.198 28.2464 470.188 27.7764 471.431 27.7764C472.532 27.7764 473.389 28.1536 474.001 28.9082L474.112 27.9619H476.543V37.666C476.543 38.5443 476.342 39.3081 475.94 39.9575C475.544 40.6069 474.984 41.1017 474.261 41.4419C473.537 41.7821 472.69 41.9521 471.719 41.9521C470.983 41.9521 470.265 41.8037 469.566 41.5068C468.868 41.2161 468.339 40.8389 467.98 40.375L469.167 38.7422C469.835 39.4906 470.646 39.8647 471.598 39.8647C472.309 39.8647 472.863 39.673 473.259 39.2896C473.655 38.9123 473.853 38.3742 473.853 37.6753V37.1372C473.234 37.8361 472.421 38.1855 471.413 38.1855C470.207 38.1855 469.229 37.7155 468.481 36.7754C467.739 35.8291 467.368 34.5767 467.368 33.0181V32.9067ZM470.049 33.1016C470.049 34.0107 470.231 34.7251 470.596 35.2446C470.961 35.758 471.462 36.0146 472.099 36.0146C472.916 36.0146 473.5 35.7085 473.853 35.0962V30.875C473.494 30.2627 472.916 29.9565 472.118 29.9565C471.474 29.9565 470.967 30.2194 470.596 30.7451C470.231 31.2708 470.049 32.0563 470.049 33.1016ZM492.379 33.0737C492.379 34.62 492.027 35.86 491.322 36.7939C490.623 37.7217 489.677 38.1855 488.483 38.1855C487.469 38.1855 486.649 37.833 486.024 37.1279V41.8594H483.343V27.9619H485.83L485.922 28.9453C486.572 28.166 487.419 27.7764 488.464 27.7764C489.701 27.7764 490.663 28.234 491.35 29.1494C492.036 30.0648 492.379 31.3265 492.379 32.9346V33.0737ZM489.698 32.8789C489.698 31.945 489.531 31.2244 489.197 30.7173C488.869 30.2101 488.39 29.9565 487.759 29.9565C486.918 29.9565 486.34 30.2782 486.024 30.9214V35.0312C486.352 35.693 486.937 36.0239 487.778 36.0239C489.058 36.0239 489.698 34.9756 489.698 32.8789ZM498.669 38.1855C497.197 38.1855 495.998 37.734 495.07 36.8311C494.148 35.9281 493.688 34.7251 493.688 33.2222V32.9624C493.688 31.9543 493.882 31.0544 494.272 30.2627C494.662 29.4648 495.212 28.8525 495.923 28.4258C496.641 27.9928 497.457 27.7764 498.373 27.7764C499.746 27.7764 500.825 28.2093 501.61 29.0752C502.402 29.9411 502.798 31.1688 502.798 32.7583V33.853H496.406C496.492 34.5086 496.752 35.0343 497.185 35.4302C497.624 35.826 498.178 36.0239 498.846 36.0239C499.879 36.0239 500.686 35.6497 501.267 34.9014L502.584 36.3765C502.182 36.9455 501.638 37.3908 500.952 37.7124C500.265 38.0278 499.504 38.1855 498.669 38.1855ZM498.363 29.9473C497.831 29.9473 497.398 30.1266 497.064 30.4854C496.737 30.8441 496.526 31.3574 496.434 32.0254H500.163V31.812C500.151 31.2183 499.99 30.7606 499.681 30.439C499.371 30.1112 498.932 29.9473 498.363 29.9473ZM503.911 32.8882C503.911 31.8924 504.103 31.0049 504.486 30.2256C504.87 29.4463 505.42 28.8433 506.138 28.4165C506.861 27.9897 507.699 27.7764 508.652 27.7764C510.006 27.7764 511.11 28.1908 511.964 29.0195C512.824 29.8483 513.303 30.974 513.402 32.3965L513.42 33.083C513.42 34.623 512.991 35.86 512.131 36.7939C511.271 37.7217 510.118 38.1855 508.67 38.1855C507.223 38.1855 506.067 37.7217 505.201 36.7939C504.341 35.8662 503.911 34.6045 503.911 33.0088V32.8882ZM506.592 33.083C506.592 34.0355 506.772 34.7653 507.13 35.2725C507.489 35.7734 508.002 36.0239 508.67 36.0239C509.32 36.0239 509.827 35.7765 510.192 35.2817C510.557 34.7808 510.739 33.9829 510.739 32.8882C510.739 31.9543 510.557 31.2306 510.192 30.7173C509.827 30.2039 509.314 29.9473 508.652 29.9473C507.996 29.9473 507.489 30.2039 507.13 30.7173C506.772 31.2244 506.592 32.013 506.592 33.083ZM524.108 33.0737C524.108 34.62 523.755 35.86 523.05 36.7939C522.351 37.7217 521.405 38.1855 520.211 38.1855C519.197 38.1855 518.378 37.833 517.753 37.1279V41.8594H515.072V27.9619H517.558L517.651 28.9453C518.3 28.166 519.148 27.7764 520.193 27.7764C521.43 27.7764 522.392 28.234 523.078 29.1494C523.765 30.0648 524.108 31.3265 524.108 32.9346V33.0737ZM521.427 32.8789C521.427 31.945 521.26 31.2244 520.926 30.7173C520.598 30.2101 520.119 29.9565 519.488 29.9565C518.647 29.9565 518.068 30.2782 517.753 30.9214V35.0312C518.081 35.693 518.665 36.0239 519.506 36.0239C520.787 36.0239 521.427 34.9756 521.427 32.8789ZM528.607 38H525.917V23.75H528.607V38ZM535.445 38.1855C533.973 38.1855 532.773 37.734 531.845 36.8311C530.924 35.9281 530.463 34.7251 530.463 33.2222V32.9624C530.463 31.9543 530.658 31.0544 531.047 30.2627C531.437 29.4648 531.987 28.8525 532.699 28.4258C533.416 27.9928 534.233 27.7764 535.148 27.7764C536.521 27.7764 537.6 28.2093 538.386 29.0752C539.177 29.9411 539.573 31.1688 539.573 32.7583V33.853H533.181C533.268 34.5086 533.528 35.0343 533.96 35.4302C534.4 35.826 534.953 36.0239 535.621 36.0239C536.654 36.0239 537.461 35.6497 538.042 34.9014L539.36 36.3765C538.958 36.9455 538.414 37.3908 537.727 37.7124C537.041 38.0278 536.28 38.1855 535.445 38.1855ZM535.139 29.9473C534.607 29.9473 534.174 30.1266 533.84 30.4854C533.512 30.8441 533.302 31.3574 533.209 32.0254H536.938V31.812C536.926 31.2183 536.765 30.7606 536.456 30.439C536.147 30.1112 535.708 29.9473 535.139 29.9473Z" fill="#0B0C0C"/>
<path d="M388 39.8555H540.065V40.7832H388V39.8555Z" fill="#0B0C0C"/>
<path d="M390.609 66H389.648V54.625H390.609V66ZM394.375 57.5469L394.406 58.9922C394.724 58.4714 395.12 58.0755 395.594 57.8047C396.068 57.5286 396.591 57.3906 397.164 57.3906C398.07 57.3906 398.745 57.6458 399.188 58.1562C399.63 58.6667 399.854 59.4323 399.859 60.4531V66H398.93V60.4453C398.924 59.6901 398.763 59.1276 398.445 58.7578C398.133 58.388 397.63 58.2031 396.938 58.2031C396.359 58.2031 395.846 58.3854 395.398 58.75C394.956 59.1094 394.628 59.5964 394.414 60.2109V66H393.484V57.5469H394.375ZM405.406 65.3672C406.057 65.3672 406.602 65.1849 407.039 64.8203C407.482 64.4505 407.721 63.974 407.758 63.3906H408.656C408.63 63.9062 408.469 64.3776 408.172 64.8047C407.875 65.2266 407.479 65.5573 406.984 65.7969C406.495 66.0365 405.969 66.1562 405.406 66.1562C404.297 66.1562 403.417 65.7708 402.766 65C402.12 64.2292 401.797 63.1927 401.797 61.8906V61.6094C401.797 60.776 401.943 60.0391 402.234 59.3984C402.526 58.7578 402.943 58.263 403.484 57.9141C404.031 57.5651 404.669 57.3906 405.398 57.3906C406.326 57.3906 407.089 57.6667 407.688 58.2188C408.292 58.7708 408.615 59.4974 408.656 60.3984H407.758C407.716 59.737 407.477 59.2031 407.039 58.7969C406.607 58.3906 406.06 58.1875 405.398 58.1875C404.555 58.1875 403.898 58.4922 403.43 59.1016C402.966 59.7109 402.734 60.5651 402.734 61.6641V61.9375C402.734 63.0156 402.966 63.8568 403.43 64.4609C403.898 65.0651 404.557 65.3672 405.406 65.3672ZM411.578 66H410.641V54H411.578V66ZM419.562 64.9297C419 65.7474 418.102 66.1562 416.867 66.1562C415.966 66.1562 415.281 65.8958 414.812 65.375C414.344 64.849 414.104 64.0729 414.094 63.0469V57.5469H415.023V62.9297C415.023 64.5391 415.674 65.3438 416.977 65.3438C418.331 65.3438 419.188 64.7839 419.547 63.6641V57.5469H420.484V66H419.578L419.562 64.9297ZM422.547 61.6953C422.547 60.3828 422.839 59.3385 423.422 58.5625C424.01 57.7812 424.807 57.3906 425.812 57.3906C426.953 57.3906 427.823 57.8411 428.422 58.7422V54H429.352V66H428.477L428.438 64.875C427.839 65.7292 426.958 66.1562 425.797 66.1562C424.823 66.1562 424.036 65.7656 423.438 64.9844C422.844 64.1979 422.547 63.138 422.547 61.8047V61.6953ZM423.492 61.8594C423.492 62.9375 423.708 63.7891 424.141 64.4141C424.573 65.0339 425.182 65.3438 425.969 65.3438C427.12 65.3438 427.938 64.8359 428.422 63.8203V59.8516C427.938 58.7526 427.125 58.2031 425.984 58.2031C425.198 58.2031 424.586 58.513 424.148 59.1328C423.711 59.7474 423.492 60.6562 423.492 61.8594ZM435.086 66.1562C434.367 66.1562 433.716 65.9792 433.133 65.625C432.555 65.2708 432.104 64.7786 431.781 64.1484C431.458 63.513 431.297 62.8021 431.297 62.0156V61.6797C431.297 60.8672 431.453 60.1354 431.766 59.4844C432.083 58.8333 432.523 58.3229 433.086 57.9531C433.648 57.5781 434.258 57.3906 434.914 57.3906C435.94 57.3906 436.753 57.7422 437.352 58.4453C437.956 59.1432 438.258 60.099 438.258 61.3125V61.8359H432.227V62.0156C432.227 62.974 432.5 63.7734 433.047 64.4141C433.599 65.0495 434.292 65.3672 435.125 65.3672C435.625 65.3672 436.065 65.276 436.445 65.0938C436.831 64.9115 437.18 64.6198 437.492 64.2188L438.078 64.6641C437.391 65.6589 436.393 66.1562 435.086 66.1562ZM434.914 58.1875C434.211 58.1875 433.617 58.4453 433.133 58.9609C432.654 59.4766 432.362 60.1693 432.258 61.0391H437.328V60.9375C437.302 60.125 437.07 59.4635 436.633 58.9531C436.195 58.4427 435.622 58.1875 434.914 58.1875ZM445.141 63.8516C445.141 63.388 444.953 63.0156 444.578 62.7344C444.208 62.4531 443.648 62.2344 442.898 62.0781C442.148 61.9167 441.565 61.7344 441.148 61.5312C440.737 61.3229 440.43 61.0703 440.227 60.7734C440.029 60.4766 439.93 60.1172 439.93 59.6953C439.93 59.0286 440.208 58.4792 440.766 58.0469C441.323 57.6094 442.036 57.3906 442.906 57.3906C443.849 57.3906 444.604 57.625 445.172 58.0938C445.745 58.5573 446.031 59.1641 446.031 59.9141H445.094C445.094 59.4193 444.885 59.0078 444.469 58.6797C444.057 58.3516 443.536 58.1875 442.906 58.1875C442.292 58.1875 441.797 58.3255 441.422 58.6016C441.052 58.8724 440.867 59.2266 440.867 59.6641C440.867 60.0859 441.021 60.4141 441.328 60.6484C441.641 60.8776 442.206 61.0885 443.023 61.2812C443.846 61.474 444.461 61.6797 444.867 61.8984C445.279 62.1172 445.583 62.3802 445.781 62.6875C445.979 62.9948 446.078 63.3672 446.078 63.8047C446.078 64.5182 445.789 65.0885 445.211 65.5156C444.638 65.9427 443.888 66.1562 442.961 66.1562C441.977 66.1562 441.177 65.9193 440.562 65.4453C439.953 64.9661 439.648 64.362 439.648 63.6328H440.586C440.622 64.1797 440.852 64.6068 441.273 64.9141C441.701 65.2161 442.263 65.3672 442.961 65.3672C443.612 65.3672 444.138 65.224 444.539 64.9375C444.94 64.651 445.141 64.2891 445.141 63.8516ZM458.875 61.8594C458.875 63.1771 458.583 64.224 458 65C457.417 65.7708 456.635 66.1562 455.656 66.1562C454.5 66.1562 453.615 65.75 453 64.9375V69.25H452.07V57.5469H452.938L452.984 58.7422C453.594 57.8411 454.477 57.3906 455.633 57.3906C456.643 57.3906 457.435 57.7734 458.008 58.5391C458.586 59.3047 458.875 60.3672 458.875 61.7266V61.8594ZM457.938 61.6953C457.938 60.6172 457.716 59.7656 457.273 59.1406C456.831 58.5156 456.214 58.2031 455.422 58.2031C454.849 58.2031 454.357 58.3411 453.945 58.6172C453.534 58.8932 453.219 59.2943 453 59.8203V63.875C453.224 64.3594 453.544 64.7292 453.961 64.9844C454.378 65.2396 454.87 65.3672 455.438 65.3672C456.224 65.3672 456.836 65.0547 457.273 64.4297C457.716 63.7995 457.938 62.888 457.938 61.6953ZM466.289 66C466.195 65.7344 466.135 65.3411 466.109 64.8203C465.781 65.2474 465.362 65.5781 464.852 65.8125C464.346 66.0417 463.81 66.1562 463.242 66.1562C462.43 66.1562 461.771 65.9297 461.266 65.4766C460.766 65.0234 460.516 64.4505 460.516 63.7578C460.516 62.9349 460.857 62.2839 461.539 61.8047C462.227 61.3255 463.182 61.0859 464.406 61.0859H466.102V60.125C466.102 59.5208 465.914 59.0469 465.539 58.7031C465.169 58.3542 464.628 58.1797 463.914 58.1797C463.263 58.1797 462.724 58.3464 462.297 58.6797C461.87 59.013 461.656 59.4141 461.656 59.8828L460.719 59.875C460.719 59.2031 461.031 58.6224 461.656 58.1328C462.281 57.638 463.049 57.3906 463.961 57.3906C464.904 57.3906 465.646 57.6276 466.188 58.1016C466.734 58.5703 467.016 59.2266 467.031 60.0703V64.0703C467.031 64.888 467.117 65.5 467.289 65.9062V66H466.289ZM463.352 65.3281C463.977 65.3281 464.534 65.1771 465.023 64.875C465.518 64.5729 465.878 64.1693 466.102 63.6641V61.8047H464.43C463.497 61.8151 462.768 61.987 462.242 62.3203C461.716 62.6484 461.453 63.1016 461.453 63.6797C461.453 64.1536 461.628 64.5469 461.977 64.8594C462.331 65.1719 462.789 65.3281 463.352 65.3281ZM472.086 64.6562L474.555 57.5469H475.562L471.953 67.4375L471.766 67.875C471.302 68.901 470.586 69.4141 469.617 69.4141C469.393 69.4141 469.154 69.3776 468.898 69.3047L468.891 68.5312L469.375 68.5781C469.833 68.5781 470.203 68.4635 470.484 68.2344C470.771 68.0104 471.013 67.6224 471.211 67.0703L471.625 65.9297L468.438 57.5469H469.461L472.086 64.6562ZM475.977 68.125L475.422 67.7188C475.896 67.0833 476.141 66.4245 476.156 65.7422V64.5312H477.07V65.5078C477.07 66.5911 476.706 67.4635 475.977 68.125ZM486.25 65.3672C486.901 65.3672 487.445 65.1849 487.883 64.8203C488.326 64.4505 488.565 63.974 488.602 63.3906H489.5C489.474 63.9062 489.312 64.3776 489.016 64.8047C488.719 65.2266 488.323 65.5573 487.828 65.7969C487.339 66.0365 486.812 66.1562 486.25 66.1562C485.141 66.1562 484.26 65.7708 483.609 65C482.964 64.2292 482.641 63.1927 482.641 61.8906V61.6094C482.641 60.776 482.786 60.0391 483.078 59.3984C483.37 58.7578 483.786 58.263 484.328 57.9141C484.875 57.5651 485.513 57.3906 486.242 57.3906C487.169 57.3906 487.932 57.6667 488.531 58.2188C489.135 58.7708 489.458 59.4974 489.5 60.3984H488.602C488.56 59.737 488.32 59.2031 487.883 58.7969C487.451 58.3906 486.904 58.1875 486.242 58.1875C485.398 58.1875 484.742 58.4922 484.273 59.1016C483.81 59.7109 483.578 60.5651 483.578 61.6641V61.9375C483.578 63.0156 483.81 63.8568 484.273 64.4609C484.742 65.0651 485.401 65.3672 486.25 65.3672ZM490.859 61.6484C490.859 60.8359 491.016 60.1042 491.328 59.4531C491.646 58.8021 492.091 58.2969 492.664 57.9375C493.242 57.5729 493.896 57.3906 494.625 57.3906C495.75 57.3906 496.661 57.7865 497.359 58.5781C498.057 59.3646 498.406 60.4089 498.406 61.7109V61.9062C498.406 62.724 498.247 63.4609 497.93 64.1172C497.617 64.7682 497.174 65.2708 496.602 65.625C496.029 65.9792 495.375 66.1562 494.641 66.1562C493.521 66.1562 492.609 65.763 491.906 64.9766C491.208 64.1849 490.859 63.138 490.859 61.8359V61.6484ZM491.797 61.9062C491.797 62.9167 492.057 63.7474 492.578 64.3984C493.104 65.0443 493.792 65.3672 494.641 65.3672C495.484 65.3672 496.167 65.0443 496.688 64.3984C497.214 63.7474 497.477 62.8906 497.477 61.8281V61.6484C497.477 61.0026 497.357 60.4115 497.117 59.875C496.878 59.3385 496.542 58.9245 496.109 58.6328C495.677 58.3359 495.182 58.1875 494.625 58.1875C493.792 58.1875 493.112 58.5156 492.586 59.1719C492.06 59.8229 491.797 60.6771 491.797 61.7344V61.9062ZM501.234 57.5469L501.266 58.9922C501.583 58.4714 501.979 58.0755 502.453 57.8047C502.927 57.5286 503.451 57.3906 504.023 57.3906C504.93 57.3906 505.604 57.6458 506.047 58.1562C506.49 58.6667 506.714 59.4323 506.719 60.4531V66H505.789V60.4453C505.784 59.6901 505.622 59.1276 505.305 58.7578C504.992 58.388 504.49 58.2031 503.797 58.2031C503.219 58.2031 502.706 58.3854 502.258 58.75C501.815 59.1094 501.487 59.5964 501.273 60.2109V66H500.344V57.5469H501.234ZM510.594 55.3828V57.5469H512.344V58.3125H510.594V63.9453C510.594 64.4141 510.677 64.763 510.844 64.9922C511.016 65.2214 511.299 65.3359 511.695 65.3359C511.852 65.3359 512.104 65.3099 512.453 65.2578L512.492 66.0234C512.247 66.112 511.914 66.1562 511.492 66.1562C510.852 66.1562 510.385 65.9714 510.094 65.6016C509.802 65.2266 509.656 64.6771 509.656 63.9531V58.3125H508.102V57.5469H509.656V55.3828H510.594ZM518.188 58.3438C517.99 58.3073 517.779 58.2891 517.555 58.2891C516.971 58.2891 516.477 58.4531 516.07 58.7812C515.669 59.1042 515.383 59.5755 515.211 60.1953V66H514.281V57.5469H515.195L515.211 58.8906C515.706 57.8906 516.5 57.3906 517.594 57.3906C517.854 57.3906 518.06 57.4245 518.211 57.4922L518.188 58.3438ZM524.695 66C524.602 65.7344 524.542 65.3411 524.516 64.8203C524.188 65.2474 523.768 65.5781 523.258 65.8125C522.753 66.0417 522.216 66.1562 521.648 66.1562C520.836 66.1562 520.177 65.9297 519.672 65.4766C519.172 65.0234 518.922 64.4505 518.922 63.7578C518.922 62.9349 519.263 62.2839 519.945 61.8047C520.633 61.3255 521.589 61.0859 522.812 61.0859H524.508V60.125C524.508 59.5208 524.32 59.0469 523.945 58.7031C523.576 58.3542 523.034 58.1797 522.32 58.1797C521.669 58.1797 521.13 58.3464 520.703 58.6797C520.276 59.013 520.062 59.4141 520.062 59.8828L519.125 59.875C519.125 59.2031 519.438 58.6224 520.062 58.1328C520.688 57.638 521.456 57.3906 522.367 57.3906C523.31 57.3906 524.052 57.6276 524.594 58.1016C525.141 58.5703 525.422 59.2266 525.438 60.0703V64.0703C525.438 64.888 525.523 65.5 525.695 65.9062V66H524.695ZM521.758 65.3281C522.383 65.3281 522.94 65.1771 523.43 64.875C523.924 64.5729 524.284 64.1693 524.508 63.6641V61.8047H522.836C521.904 61.8151 521.174 61.987 520.648 62.3203C520.122 62.6484 519.859 63.1016 519.859 63.6797C519.859 64.1536 520.034 64.5469 520.383 64.8594C520.737 65.1719 521.195 65.3281 521.758 65.3281ZM531.062 65.3672C531.714 65.3672 532.258 65.1849 532.695 64.8203C533.138 64.4505 533.378 63.974 533.414 63.3906H534.312C534.286 63.9062 534.125 64.3776 533.828 64.8047C533.531 65.2266 533.135 65.5573 532.641 65.7969C532.151 66.0365 531.625 66.1562 531.062 66.1562C529.953 66.1562 529.073 65.7708 528.422 65C527.776 64.2292 527.453 63.1927 527.453 61.8906V61.6094C527.453 60.776 527.599 60.0391 527.891 59.3984C528.182 58.7578 528.599 58.263 529.141 57.9141C529.688 57.5651 530.326 57.3906 531.055 57.3906C531.982 57.3906 532.745 57.6667 533.344 58.2188C533.948 58.7708 534.271 59.4974 534.312 60.3984H533.414C533.372 59.737 533.133 59.2031 532.695 58.7969C532.263 58.3906 531.716 58.1875 531.055 58.1875C530.211 58.1875 529.555 58.4922 529.086 59.1016C528.622 59.7109 528.391 60.5651 528.391 61.6641V61.9375C528.391 63.0156 528.622 63.8568 529.086 64.4609C529.555 65.0651 530.214 65.3672 531.062 65.3672ZM537.641 55.3828V57.5469H539.391V58.3125H537.641V63.9453C537.641 64.4141 537.724 64.763 537.891 64.9922C538.062 65.2214 538.346 65.3359 538.742 65.3359C538.898 65.3359 539.151 65.3099 539.5 65.2578L539.539 66.0234C539.294 66.112 538.961 66.1562 538.539 66.1562C537.898 66.1562 537.432 65.9714 537.141 65.6016C536.849 65.2266 536.703 64.6771 536.703 63.9531V58.3125H535.148V57.5469H536.703V55.3828H537.641ZM546.391 63.8516C546.391 63.388 546.203 63.0156 545.828 62.7344C545.458 62.4531 544.898 62.2344 544.148 62.0781C543.398 61.9167 542.815 61.7344 542.398 61.5312C541.987 61.3229 541.68 61.0703 541.477 60.7734C541.279 60.4766 541.18 60.1172 541.18 59.6953C541.18 59.0286 541.458 58.4792 542.016 58.0469C542.573 57.6094 543.286 57.3906 544.156 57.3906C545.099 57.3906 545.854 57.625 546.422 58.0938C546.995 58.5573 547.281 59.1641 547.281 59.9141H546.344C546.344 59.4193 546.135 59.0078 545.719 58.6797C545.307 58.3516 544.786 58.1875 544.156 58.1875C543.542 58.1875 543.047 58.3255 542.672 58.6016C542.302 58.8724 542.117 59.2266 542.117 59.6641C542.117 60.0859 542.271 60.4141 542.578 60.6484C542.891 60.8776 543.456 61.0885 544.273 61.2812C545.096 61.474 545.711 61.6797 546.117 61.8984C546.529 62.1172 546.833 62.3802 547.031 62.6875C547.229 62.9948 547.328 63.3672 547.328 63.8047C547.328 64.5182 547.039 65.0885 546.461 65.5156C545.888 65.9427 545.138 66.1562 544.211 66.1562C543.227 66.1562 542.427 65.9193 541.812 65.4453C541.203 64.9661 540.898 64.362 540.898 63.6328H541.836C541.872 64.1797 542.102 64.6068 542.523 64.9141C542.951 65.2161 543.513 65.3672 544.211 65.3672C544.862 65.3672 545.388 65.224 545.789 64.9375C546.19 64.651 546.391 64.2891 546.391 63.8516ZM549.242 68.125L548.688 67.7188C549.161 67.0833 549.406 66.4245 549.422 65.7422V64.5312H550.336V65.5078C550.336 66.5911 549.971 67.4635 549.242 68.125ZM557.32 58.9766C557.628 58.4714 558.021 58.0807 558.5 57.8047C558.979 57.5286 559.503 57.3906 560.07 57.3906C560.977 57.3906 561.651 57.6458 562.094 58.1562C562.536 58.6667 562.76 59.4323 562.766 60.4531V66H561.836V60.4453C561.831 59.6901 561.669 59.1276 561.352 58.7578C561.039 58.388 560.536 58.2031 559.844 58.2031C559.266 58.2031 558.753 58.3854 558.305 58.75C557.862 59.1094 557.534 59.5964 557.32 60.2109V66H556.391V54H557.32V58.9766ZM566.219 66H565.281V57.5469H566.219V66ZM565.117 55.1016C565.117 54.9245 565.174 54.776 565.289 54.6562C565.404 54.5312 565.56 54.4688 565.758 54.4688C565.956 54.4688 566.112 54.5312 566.227 54.6562C566.346 54.776 566.406 54.9245 566.406 55.1016C566.406 55.2786 566.346 55.4271 566.227 55.5469C566.112 55.6667 565.956 55.7266 565.758 55.7266C565.56 55.7266 565.404 55.6667 565.289 55.5469C565.174 55.4271 565.117 55.2786 565.117 55.1016ZM572.672 58.3438C572.474 58.3073 572.263 58.2891 572.039 58.2891C571.456 58.2891 570.961 58.4531 570.555 58.7812C570.154 59.1042 569.867 59.5755 569.695 60.1953V66H568.766V57.5469H569.68L569.695 58.8906C570.19 57.8906 570.984 57.3906 572.078 57.3906C572.339 57.3906 572.544 57.4245 572.695 57.4922L572.672 58.3438ZM575.203 66H574.266V57.5469H575.203V66ZM574.102 55.1016C574.102 54.9245 574.159 54.776 574.273 54.6562C574.388 54.5312 574.544 54.4688 574.742 54.4688C574.94 54.4688 575.096 54.5312 575.211 54.6562C575.331 54.776 575.391 54.9245 575.391 55.1016C575.391 55.2786 575.331 55.4271 575.211 55.5469C575.096 55.6667 574.94 55.7266 574.742 55.7266C574.544 55.7266 574.388 55.6667 574.273 55.5469C574.159 55.4271 574.102 55.2786 574.102 55.1016ZM578.641 57.5469L578.672 58.9922C578.99 58.4714 579.385 58.0755 579.859 57.8047C580.333 57.5286 580.857 57.3906 581.43 57.3906C582.336 57.3906 583.01 57.6458 583.453 58.1562C583.896 58.6667 584.12 59.4323 584.125 60.4531V66H583.195V60.4453C583.19 59.6901 583.029 59.1276 582.711 58.7578C582.398 58.388 581.896 58.2031 581.203 58.2031C580.625 58.2031 580.112 58.3854 579.664 58.75C579.221 59.1094 578.893 59.5964 578.68 60.2109V66H577.75V57.5469H578.641ZM586.172 61.6953C586.172 60.3724 586.464 59.3255 587.047 58.5547C587.635 57.7786 588.432 57.3906 589.438 57.3906C590.589 57.3906 591.464 57.849 592.062 58.7656L592.109 57.5469H592.984V65.8281C592.984 66.9167 592.68 67.7786 592.07 68.4141C591.461 69.0495 590.635 69.3672 589.594 69.3672C589.005 69.3672 588.443 69.2344 587.906 68.9688C587.375 68.7083 586.956 68.3594 586.648 67.9219L587.172 67.3594C587.833 68.1719 588.62 68.5781 589.531 68.5781C590.312 68.5781 590.922 68.3464 591.359 67.8828C591.797 67.4245 592.023 66.7865 592.039 65.9688V64.9062C591.44 65.7396 590.568 66.1562 589.422 66.1562C588.443 66.1562 587.656 65.7656 587.062 64.9844C586.469 64.2031 586.172 63.1484 586.172 61.8203V61.6953ZM587.117 61.8594C587.117 62.9375 587.333 63.7891 587.766 64.4141C588.198 65.0339 588.807 65.3438 589.594 65.3438C590.745 65.3438 591.56 64.8281 592.039 63.7969V59.8672C591.82 59.3255 591.505 58.9141 591.094 58.6328C590.682 58.3464 590.188 58.2031 589.609 58.2031C588.823 58.2031 588.211 58.513 587.773 59.1328C587.336 59.7474 587.117 60.6562 587.117 61.8594ZM604.648 66C604.555 65.7344 604.495 65.3411 604.469 64.8203C604.141 65.2474 603.721 65.5781 603.211 65.8125C602.706 66.0417 602.169 66.1562 601.602 66.1562C600.789 66.1562 600.13 65.9297 599.625 65.4766C599.125 65.0234 598.875 64.4505 598.875 63.7578C598.875 62.9349 599.216 62.2839 599.898 61.8047C600.586 61.3255 601.542 61.0859 602.766 61.0859H604.461V60.125C604.461 59.5208 604.273 59.0469 603.898 58.7031C603.529 58.3542 602.987 58.1797 602.273 58.1797C601.622 58.1797 601.083 58.3464 600.656 58.6797C600.229 59.013 600.016 59.4141 600.016 59.8828L599.078 59.875C599.078 59.2031 599.391 58.6224 600.016 58.1328C600.641 57.638 601.409 57.3906 602.32 57.3906C603.263 57.3906 604.005 57.6276 604.547 58.1016C605.094 58.5703 605.375 59.2266 605.391 60.0703V64.0703C605.391 64.888 605.477 65.5 605.648 65.9062V66H604.648ZM601.711 65.3281C602.336 65.3281 602.893 65.1771 603.383 64.875C603.878 64.5729 604.237 64.1693 604.461 63.6641V61.8047H602.789C601.857 61.8151 601.128 61.987 600.602 62.3203C600.076 62.6484 599.812 63.1016 599.812 63.6797C599.812 64.1536 599.987 64.5469 600.336 64.8594C600.69 65.1719 601.148 65.3281 601.711 65.3281ZM608.781 57.5469L608.812 58.9922C609.13 58.4714 609.526 58.0755 610 57.8047C610.474 57.5286 610.997 57.3906 611.57 57.3906C612.477 57.3906 613.151 57.6458 613.594 58.1562C614.036 58.6667 614.26 59.4323 614.266 60.4531V66H613.336V60.4453C613.331 59.6901 613.169 59.1276 612.852 58.7578C612.539 58.388 612.036 58.2031 611.344 58.2031C610.766 58.2031 610.253 58.3854 609.805 58.75C609.362 59.1094 609.034 59.5964 608.82 60.2109V66H607.891V57.5469H608.781ZM616.312 61.6953C616.312 60.3828 616.604 59.3385 617.188 58.5625C617.776 57.7812 618.573 57.3906 619.578 57.3906C620.719 57.3906 621.589 57.8411 622.188 58.7422V54H623.117V66H622.242L622.203 64.875C621.604 65.7292 620.724 66.1562 619.562 66.1562C618.589 66.1562 617.802 65.7656 617.203 64.9844C616.609 64.1979 616.312 63.138 616.312 61.8047V61.6953ZM617.258 61.8594C617.258 62.9375 617.474 63.7891 617.906 64.4141C618.339 65.0339 618.948 65.3438 619.734 65.3438C620.885 65.3438 621.703 64.8359 622.188 63.8203V59.8516C621.703 58.7526 620.891 58.2031 619.75 58.2031C618.964 58.2031 618.352 58.513 617.914 59.1328C617.477 59.7474 617.258 60.6562 617.258 61.8594ZM393.125 77.3438C392.927 77.3073 392.716 77.2891 392.492 77.2891C391.909 77.2891 391.414 77.4531 391.008 77.7812C390.607 78.1042 390.32 78.5755 390.148 79.1953V85H389.219V76.5469H390.133L390.148 77.8906C390.643 76.8906 391.438 76.3906 392.531 76.3906C392.792 76.3906 392.997 76.4245 393.148 76.4922L393.125 77.3438ZM397.727 85.1562C397.008 85.1562 396.357 84.9792 395.773 84.625C395.195 84.2708 394.745 83.7786 394.422 83.1484C394.099 82.513 393.938 81.8021 393.938 81.0156V80.6797C393.938 79.8672 394.094 79.1354 394.406 78.4844C394.724 77.8333 395.164 77.3229 395.727 76.9531C396.289 76.5781 396.898 76.3906 397.555 76.3906C398.581 76.3906 399.393 76.7422 399.992 77.4453C400.596 78.1432 400.898 79.099 400.898 80.3125V80.8359H394.867V81.0156C394.867 81.974 395.141 82.7734 395.688 83.4141C396.24 84.0495 396.932 84.3672 397.766 84.3672C398.266 84.3672 398.706 84.276 399.086 84.0938C399.471 83.9115 399.82 83.6198 400.133 83.2188L400.719 83.6641C400.031 84.6589 399.034 85.1562 397.727 85.1562ZM397.555 77.1875C396.852 77.1875 396.258 77.4453 395.773 77.9609C395.294 78.4766 395.003 79.1693 394.898 80.0391H399.969V79.9375C399.943 79.125 399.711 78.4635 399.273 77.9531C398.836 77.4427 398.263 77.1875 397.555 77.1875ZM402.344 80.6953C402.344 79.3828 402.635 78.3385 403.219 77.5625C403.807 76.7812 404.604 76.3906 405.609 76.3906C406.75 76.3906 407.62 76.8411 408.219 77.7422V73H409.148V85H408.273L408.234 83.875C407.635 84.7292 406.755 85.1562 405.594 85.1562C404.62 85.1562 403.833 84.7656 403.234 83.9844C402.641 83.1979 402.344 82.138 402.344 80.8047V80.6953ZM403.289 80.8594C403.289 81.9375 403.505 82.7891 403.938 83.4141C404.37 84.0339 404.979 84.3438 405.766 84.3438C406.917 84.3438 407.734 83.8359 408.219 82.8203V78.8516C407.734 77.7526 406.922 77.2031 405.781 77.2031C404.995 77.2031 404.383 77.513 403.945 78.1328C403.508 78.7474 403.289 79.6562 403.289 80.8594ZM417.047 83.9297C416.484 84.7474 415.586 85.1562 414.352 85.1562C413.451 85.1562 412.766 84.8958 412.297 84.375C411.828 83.849 411.589 83.0729 411.578 82.0469V76.5469H412.508V81.9297C412.508 83.5391 413.159 84.3438 414.461 84.3438C415.815 84.3438 416.672 83.7839 417.031 82.6641V76.5469H417.969V85H417.062L417.047 83.9297ZM421.297 76.5469L421.328 77.9922C421.646 77.4714 422.042 77.0755 422.516 76.8047C422.99 76.5286 423.513 76.3906 424.086 76.3906C424.992 76.3906 425.667 76.6458 426.109 77.1562C426.552 77.6667 426.776 78.4323 426.781 79.4531V85H425.852V79.4453C425.846 78.6901 425.685 78.1276 425.367 77.7578C425.055 77.388 424.552 77.2031 423.859 77.2031C423.281 77.2031 422.768 77.3854 422.32 77.75C421.878 78.1094 421.549 78.5964 421.336 79.2109V85H420.406V76.5469H421.297ZM428.828 80.6953C428.828 79.3828 429.12 78.3385 429.703 77.5625C430.292 76.7812 431.089 76.3906 432.094 76.3906C433.234 76.3906 434.104 76.8411 434.703 77.7422V73H435.633V85H434.758L434.719 83.875C434.12 84.7292 433.24 85.1562 432.078 85.1562C431.104 85.1562 430.318 84.7656 429.719 83.9844C429.125 83.1979 428.828 82.138 428.828 80.8047V80.6953ZM429.773 80.8594C429.773 81.9375 429.99 82.7891 430.422 83.4141C430.854 84.0339 431.464 84.3438 432.25 84.3438C433.401 84.3438 434.219 83.8359 434.703 82.8203V78.8516C434.219 77.7526 433.406 77.2031 432.266 77.2031C431.479 77.2031 430.867 77.513 430.43 78.1328C429.992 78.7474 429.773 79.6562 429.773 80.8594ZM443.43 85C443.336 84.7344 443.276 84.3411 443.25 83.8203C442.922 84.2474 442.503 84.5781 441.992 84.8125C441.487 85.0417 440.951 85.1562 440.383 85.1562C439.57 85.1562 438.911 84.9297 438.406 84.4766C437.906 84.0234 437.656 83.4505 437.656 82.7578C437.656 81.9349 437.997 81.2839 438.68 80.8047C439.367 80.3255 440.323 80.0859 441.547 80.0859H443.242V79.125C443.242 78.5208 443.055 78.0469 442.68 77.7031C442.31 77.3542 441.768 77.1797 441.055 77.1797C440.404 77.1797 439.865 77.3464 439.438 77.6797C439.01 78.013 438.797 78.4141 438.797 78.8828L437.859 78.875C437.859 78.2031 438.172 77.6224 438.797 77.1328C439.422 76.638 440.19 76.3906 441.102 76.3906C442.044 76.3906 442.786 76.6276 443.328 77.1016C443.875 77.5703 444.156 78.2266 444.172 79.0703V83.0703C444.172 83.888 444.258 84.5 444.43 84.9062V85H443.43ZM440.492 84.3281C441.117 84.3281 441.674 84.1771 442.164 83.875C442.659 83.5729 443.018 83.1693 443.242 82.6641V80.8047H441.57C440.638 80.8151 439.909 80.987 439.383 81.3203C438.857 81.6484 438.594 82.1016 438.594 82.6797C438.594 83.1536 438.768 83.5469 439.117 83.8594C439.471 84.1719 439.93 84.3281 440.492 84.3281ZM447.562 76.5469L447.594 77.9922C447.911 77.4714 448.307 77.0755 448.781 76.8047C449.255 76.5286 449.779 76.3906 450.352 76.3906C451.258 76.3906 451.932 76.6458 452.375 77.1562C452.818 77.6667 453.042 78.4323 453.047 79.4531V85H452.117V79.4453C452.112 78.6901 451.951 78.1276 451.633 77.7578C451.32 77.388 450.818 77.2031 450.125 77.2031C449.547 77.2031 449.034 77.3854 448.586 77.75C448.143 78.1094 447.815 78.5964 447.602 79.2109V85H446.672V76.5469H447.562ZM458.594 84.3672C459.245 84.3672 459.789 84.1849 460.227 83.8203C460.669 83.4505 460.909 82.974 460.945 82.3906H461.844C461.818 82.9062 461.656 83.3776 461.359 83.8047C461.062 84.2266 460.667 84.5573 460.172 84.7969C459.682 85.0365 459.156 85.1562 458.594 85.1562C457.484 85.1562 456.604 84.7708 455.953 84C455.307 83.2292 454.984 82.1927 454.984 80.8906V80.6094C454.984 79.776 455.13 79.0391 455.422 78.3984C455.714 77.7578 456.13 77.263 456.672 76.9141C457.219 76.5651 457.857 76.3906 458.586 76.3906C459.513 76.3906 460.276 76.6667 460.875 77.2188C461.479 77.7708 461.802 78.4974 461.844 79.3984H460.945C460.904 78.737 460.664 78.2031 460.227 77.7969C459.794 77.3906 459.247 77.1875 458.586 77.1875C457.742 77.1875 457.086 77.4922 456.617 78.1016C456.154 78.7109 455.922 79.5651 455.922 80.6641V80.9375C455.922 82.0156 456.154 82.8568 456.617 83.4609C457.086 84.0651 457.745 84.3672 458.594 84.3672ZM464.766 85H463.828V76.5469H464.766V85ZM463.664 74.1016C463.664 73.9245 463.721 73.776 463.836 73.6562C463.951 73.5312 464.107 73.4688 464.305 73.4688C464.503 73.4688 464.659 73.5312 464.773 73.6562C464.893 73.776 464.953 73.9245 464.953 74.1016C464.953 74.2786 464.893 74.4271 464.773 74.5469C464.659 74.6667 464.503 74.7266 464.305 74.7266C464.107 74.7266 463.951 74.6667 463.836 74.5469C463.721 74.4271 463.664 74.2786 463.664 74.1016ZM470.586 85.1562C469.867 85.1562 469.216 84.9792 468.633 84.625C468.055 84.2708 467.604 83.7786 467.281 83.1484C466.958 82.513 466.797 81.8021 466.797 81.0156V80.6797C466.797 79.8672 466.953 79.1354 467.266 78.4844C467.583 77.8333 468.023 77.3229 468.586 76.9531C469.148 76.5781 469.758 76.3906 470.414 76.3906C471.44 76.3906 472.253 76.7422 472.852 77.4453C473.456 78.1432 473.758 79.099 473.758 80.3125V80.8359H467.727V81.0156C467.727 81.974 468 82.7734 468.547 83.4141C469.099 84.0495 469.792 84.3672 470.625 84.3672C471.125 84.3672 471.565 84.276 471.945 84.0938C472.331 83.9115 472.68 83.6198 472.992 83.2188L473.578 83.6641C472.891 84.6589 471.893 85.1562 470.586 85.1562ZM470.414 77.1875C469.711 77.1875 469.117 77.4453 468.633 77.9609C468.154 78.4766 467.862 79.1693 467.758 80.0391H472.828V79.9375C472.802 79.125 472.57 78.4635 472.133 77.9531C471.695 77.4427 471.122 77.1875 470.414 77.1875ZM480.641 82.8516C480.641 82.388 480.453 82.0156 480.078 81.7344C479.708 81.4531 479.148 81.2344 478.398 81.0781C477.648 80.9167 477.065 80.7344 476.648 80.5312C476.237 80.3229 475.93 80.0703 475.727 79.7734C475.529 79.4766 475.43 79.1172 475.43 78.6953C475.43 78.0286 475.708 77.4792 476.266 77.0469C476.823 76.6094 477.536 76.3906 478.406 76.3906C479.349 76.3906 480.104 76.625 480.672 77.0938C481.245 77.5573 481.531 78.1641 481.531 78.9141H480.594C480.594 78.4193 480.385 78.0078 479.969 77.6797C479.557 77.3516 479.036 77.1875 478.406 77.1875C477.792 77.1875 477.297 77.3255 476.922 77.6016C476.552 77.8724 476.367 78.2266 476.367 78.6641C476.367 79.0859 476.521 79.4141 476.828 79.6484C477.141 79.8776 477.706 80.0885 478.523 80.2812C479.346 80.474 479.961 80.6797 480.367 80.8984C480.779 81.1172 481.083 81.3802 481.281 81.6875C481.479 81.9948 481.578 82.3672 481.578 82.8047C481.578 83.5182 481.289 84.0885 480.711 84.5156C480.138 84.9427 479.388 85.1562 478.461 85.1562C477.477 85.1562 476.677 84.9193 476.062 84.4453C475.453 83.9661 475.148 83.362 475.148 82.6328H476.086C476.122 83.1797 476.352 83.6068 476.773 83.9141C477.201 84.2161 477.763 84.3672 478.461 84.3672C479.112 84.3672 479.638 84.224 480.039 83.9375C480.44 83.651 480.641 83.2891 480.641 82.8516Z" fill="black"/>
</g>
<defs>
<filter id="filter0_di_211_2936" x="0" y="0" width="336" height="136" filterUnits="userSpaceOnUse" color-interpolation-filters="sRGB">
<feFlood flood-opacity="0" result="BackgroundImageFix"/>
<feColorMatrix in="SourceAlpha" type="matrix" values="0 0 0 0 0 0 0 0 0 0 0 0 0 0 0 0 0 0 127 0" result="hardAlpha"/>
<feOffset dy="4"/>
<feGaussianBlur stdDeviation="2"/>
<feComposite in2="hardAlpha" operator="out"/>
<feColorMatrix type="matrix" values="0 0 0 0 0 0 0 0 0 0 0 0 0 0 0 0 0 0 0.25 0"/>
<feBlend mode="normal" in2="BackgroundImageFix" result="effect1_dropShadow_211_2936"/>
<feBlend mode="normal" in="SourceGraphic" in2="effect1_dropShadow_211_2936" result="shape"/>
<feColorMatrix in="SourceAlpha" type="matrix" values="0 0 0 0 0 0 0 0 0 0 0 0 0 0 0 0 0 0 127 0" result="hardAlpha"/>
<feOffset dx="10"/>
<feComposite in2="hardAlpha" operator="arithmetic" k2="-1" k3="1"/>
<feColorMatrix type="matrix" values="0 0 0 0 0.0431373 0 0 0 0 0.0470588 0 0 0 0 0.0470588 0 0 0 1 0"/>
<feBlend mode="normal" in2="shape" result="effect2_innerShadow_211_2936"/>
</filter>
<filter id="filter1_di_211_2936" x="360" y="0" width="336" height="117" filterUnits="userSpaceOnUse" color-interpolation-filters="sRGB">
<feFlood flood-opacity="0" result="BackgroundImageFix"/>
<feColorMatrix in="SourceAlpha" type="matrix" values="0 0 0 0 0 0 0 0 0 0 0 0 0 0 0 0 0 0 127 0" result="hardAlpha"/>
<feOffset dy="4"/>
<feGaussianBlur stdDeviation="2"/>
<feComposite in2="hardAlpha" operator="out"/>
<feColorMatrix type="matrix" values="0 0 0 0 0 0 0 0 0 0 0 0 0 0 0 0 0 0 0.25 0"/>
<feBlend mode="normal" in2="BackgroundImageFix" result="effect1_dropShadow_211_2936"/>
<feBlend mode="normal" in="SourceGraphic" in2="effect1_dropShadow_211_2936" result="shape"/>
<feColorMatrix in="SourceAlpha" type="matrix" values="0 0 0 0 0 0 0 0 0 0 0 0 0 0 0 0 0 0 127 0" result="hardAlpha"/>
<feOffset dx="10"/>
<feComposite in2="hardAlpha" operator="arithmetic" k2="-1" k3="1"/>
<feColorMatrix type="matrix" values="0 0 0 0 0.0431373 0 0 0 0 0.0470588 0 0 0 0 0.0470588 0 0 0 1 0"/>
<feBlend mode="normal" in2="shape" result="effect2_innerShadow_211_2936"/>
</filter>
</defs>
</svg>
