<svg width="542" height="147" viewBox="0 0 542 147" fill="none" xmlns="http://www.w3.org/2000/svg">
<rect x="273.5" y="0.5" width="268" height="146" rx="3.5" fill="white" fill-opacity="0.8"/>
<path d="M286.797 28V13.7227H289.824V25.5H295.615V28H286.797ZM306.328 28H298.105V13.7227H306.328V16.2031H301.133V19.3379H305.967V21.8184H301.133V25.5H306.328V28ZM315.361 28L311.924 16.7988H311.836C311.96 19.0775 312.021 20.5977 312.021 21.3594V28H309.316V13.7227H313.438L316.816 24.6406H316.875L320.459 13.7227H324.58V28H321.758V21.2422C321.758 20.9232 321.761 20.5553 321.768 20.1387C321.781 19.722 321.826 18.6152 321.904 16.8184H321.816L318.135 28H315.361ZM339.668 28H336.23L332.49 21.9844L331.211 22.9023V28H328.184V13.7227H331.211V20.2559L332.402 18.5762L336.27 13.7227H339.629L334.648 20.041L339.668 28ZM350.205 28L349.17 24.6016H343.965L342.93 28H339.668L344.707 13.6641H348.408L353.467 28H350.205ZM348.447 22.0625C347.49 18.9831 346.95 17.2415 346.826 16.8379C346.709 16.4342 346.624 16.1152 346.572 15.8809C346.357 16.7142 345.742 18.7747 344.727 22.0625H348.447Z" fill="black"/>
<path d="M293.719 52L292.344 48.4609H287.812L286.453 52H285L289.461 40.5312H290.758L295.211 52H293.719ZM291.914 47.1875L290.633 43.7266L290.086 42.0156C289.93 42.6406 289.766 43.2109 289.594 43.7266L288.297 47.1875H291.914ZM304.188 52.1562C302.953 52.1562 301.992 51.7786 301.305 51.0234C300.617 50.263 300.273 49.1745 300.273 47.7578C300.273 46.3203 300.62 45.2135 301.312 44.4375C302.01 43.6562 303.003 43.2656 304.289 43.2656C304.706 43.2656 305.117 43.3099 305.523 43.3984C305.935 43.4818 306.273 43.5911 306.539 43.7266L306.109 44.8984C305.385 44.6276 304.768 44.4922 304.258 44.4922C303.393 44.4922 302.755 44.7656 302.344 45.3125C301.932 45.8542 301.727 46.6641 301.727 47.7422C301.727 48.7786 301.932 49.5729 302.344 50.125C302.755 50.6719 303.365 50.9453 304.172 50.9453C304.927 50.9453 305.669 50.7786 306.398 50.4453V51.6953C305.805 52.0026 305.068 52.1562 304.188 52.1562ZM314.281 52V46.5156C314.281 45.8177 314.125 45.2995 313.812 44.9609C313.505 44.6172 313.021 44.4453 312.359 44.4453C311.49 44.4453 310.852 44.6875 310.445 45.1719C310.044 45.6562 309.844 46.4557 309.844 47.5703V52H308.438V39.8438H309.844V43.4062C309.844 43.875 309.818 44.276 309.766 44.6094H309.859C310.115 44.1927 310.477 43.8672 310.945 43.6328C311.414 43.3984 311.943 43.2812 312.531 43.2812C313.573 43.2812 314.357 43.5312 314.883 44.0312C315.409 44.526 315.672 45.3203 315.672 46.4141V52H314.281ZM323.625 52L323.352 50.7812H323.289C322.862 51.3177 322.435 51.6823 322.008 51.875C321.586 52.0625 321.052 52.1562 320.406 52.1562C319.562 52.1562 318.901 51.9349 318.422 51.4922C317.943 51.0495 317.703 50.4245 317.703 49.6172C317.703 47.8776 319.076 46.9661 321.82 46.8828L323.273 46.8281V46.3203C323.273 45.6693 323.133 45.1901 322.852 44.8828C322.57 44.5703 322.12 44.4141 321.5 44.4141C321.047 44.4141 320.617 44.4818 320.211 44.6172C319.81 44.7526 319.432 44.9036 319.078 45.0703L318.648 44.0156C319.081 43.7865 319.552 43.6068 320.062 43.4766C320.573 43.3464 321.078 43.2812 321.578 43.2812C322.615 43.2812 323.385 43.5104 323.891 43.9688C324.396 44.4271 324.648 45.1562 324.648 46.1562V52H323.625ZM320.727 51.0234C321.513 51.0234 322.13 50.8125 322.578 50.3906C323.031 49.9635 323.258 49.3594 323.258 48.5781V47.8047L321.992 47.8594C321.008 47.8958 320.289 48.0521 319.836 48.3281C319.388 48.6042 319.164 49.0391 319.164 49.6328C319.164 50.0807 319.299 50.4245 319.57 50.6641C319.846 50.9036 320.232 51.0234 320.727 51.0234ZM328.719 52H327.312V43.4219H328.719V52ZM327.203 41.1016C327.203 40.7891 327.281 40.5625 327.438 40.4219C327.599 40.2812 327.797 40.2109 328.031 40.2109C328.25 40.2109 328.44 40.2812 328.602 40.4219C328.768 40.5625 328.852 40.7891 328.852 41.1016C328.852 41.4089 328.768 41.6354 328.602 41.7812C328.44 41.9271 328.25 42 328.031 42C327.797 42 327.599 41.9271 327.438 41.7812C327.281 41.6354 327.203 41.4089 327.203 41.1016ZM335.438 43.2656C335.818 43.2656 336.154 43.2969 336.445 43.3594L336.273 44.6562C335.956 44.5833 335.646 44.5469 335.344 44.5469C334.891 44.5469 334.469 44.6719 334.078 44.9219C333.693 45.1719 333.391 45.5182 333.172 45.9609C332.953 46.3984 332.844 46.8854 332.844 47.4219V52H331.438V43.4219H332.594L332.75 44.9922H332.812C333.141 44.4245 333.529 43.9948 333.977 43.7031C334.424 43.4115 334.911 43.2656 335.438 43.2656Z" fill="#111111"/>
<path d="M293.125 71.4922C293.125 72.2057 292.859 72.7969 292.328 73.2656C291.802 73.7344 291.049 74.0286 290.07 74.1484V75.9297H289.047V74.2188C288.453 74.2083 287.883 74.1589 287.336 74.0703C286.794 73.9766 286.346 73.849 285.992 73.6875V72.375C286.383 72.5573 286.859 72.7161 287.422 72.8516C287.99 72.9818 288.531 73.0521 289.047 73.0625V69.7188C287.979 69.3802 287.224 68.9844 286.781 68.5312C286.339 68.0729 286.117 67.487 286.117 66.7734C286.117 66.0859 286.38 65.5208 286.906 65.0781C287.432 64.6354 288.146 64.3646 289.047 64.2656V62.8594H290.07V64.25C291.06 64.276 292 64.474 292.891 64.8438L292.453 65.9453C291.646 65.6276 290.852 65.4401 290.07 65.3828V68.6797C290.904 68.9609 291.523 69.2266 291.93 69.4766C292.341 69.7266 292.643 70.013 292.836 70.3359C293.029 70.6536 293.125 71.0391 293.125 71.4922ZM291.703 71.5938C291.703 71.2188 291.581 70.9219 291.336 70.7031C291.091 70.4792 290.669 70.263 290.07 70.0547V72.9844C291.159 72.8177 291.703 72.3542 291.703 71.5938ZM287.547 66.7578C287.547 67.138 287.659 67.4453 287.883 67.6797C288.107 67.9141 288.495 68.1302 289.047 68.3281V65.4141C288.557 65.4974 288.185 65.6562 287.93 65.8906C287.674 66.125 287.547 66.4141 287.547 66.7578ZM301.664 66.25C301.664 66.6302 301.604 66.9766 301.484 67.2891C301.365 67.6016 301.195 67.8724 300.977 68.1016C300.763 68.3307 300.505 68.5208 300.203 68.6719C299.901 68.8177 299.565 68.9219 299.195 68.9844V69.0312C300.117 69.1458 300.818 69.4401 301.297 69.9141C301.776 70.3828 302.016 70.9948 302.016 71.75C302.016 72.25 301.93 72.7083 301.758 73.125C301.591 73.5417 301.336 73.901 300.992 74.2031C300.648 74.5052 300.214 74.7396 299.688 74.9062C299.161 75.0729 298.539 75.1562 297.82 75.1562C297.253 75.1562 296.716 75.112 296.211 75.0234C295.711 74.9349 295.24 74.7734 294.797 74.5391V73.2109C295.25 73.4505 295.74 73.6354 296.266 73.7656C296.797 73.8958 297.305 73.9609 297.789 73.9609C298.268 73.9609 298.682 73.9089 299.031 73.8047C299.38 73.7005 299.667 73.5521 299.891 73.3594C300.12 73.1667 300.286 72.9297 300.391 72.6484C300.5 72.3672 300.555 72.0521 300.555 71.7031C300.555 71.349 300.484 71.0469 300.344 70.7969C300.208 70.5417 300.013 70.3333 299.758 70.1719C299.503 70.0052 299.19 69.8828 298.82 69.8047C298.456 69.7266 298.042 69.6875 297.578 69.6875H296.539V68.5078H297.578C298 68.5078 298.375 68.4557 298.703 68.3516C299.031 68.2474 299.305 68.099 299.523 67.9062C299.747 67.7135 299.917 67.4844 300.031 67.2188C300.146 66.9531 300.203 66.6615 300.203 66.3438C300.203 66.0729 300.156 65.8307 300.062 65.6172C299.969 65.4036 299.836 65.224 299.664 65.0781C299.492 64.9271 299.286 64.8125 299.047 64.7344C298.807 64.6562 298.542 64.6172 298.25 64.6172C297.693 64.6172 297.201 64.7057 296.773 64.8828C296.352 65.0547 295.948 65.2812 295.562 65.5625L294.844 64.5859C295.042 64.4245 295.26 64.2734 295.5 64.1328C295.745 63.9922 296.01 63.8698 296.297 63.7656C296.583 63.6562 296.888 63.5703 297.211 63.5078C297.539 63.4453 297.885 63.4141 298.25 63.4141C298.812 63.4141 299.305 63.4844 299.727 63.625C300.154 63.7656 300.51 63.9635 300.797 64.2188C301.083 64.4688 301.299 64.7682 301.445 65.1172C301.591 65.4609 301.664 65.8385 301.664 66.25ZM303.852 70.1172C303.852 69.5703 303.878 69.026 303.93 68.4844C303.987 67.9427 304.083 67.4245 304.219 66.9297C304.359 66.4297 304.549 65.9661 304.789 65.5391C305.029 65.112 305.333 64.7422 305.703 64.4297C306.073 64.112 306.516 63.8646 307.031 63.6875C307.547 63.5052 308.151 63.4141 308.844 63.4141C308.943 63.4141 309.052 63.4167 309.172 63.4219C309.292 63.4271 309.411 63.4375 309.531 63.4531C309.656 63.4635 309.773 63.4792 309.883 63.5C309.997 63.5156 310.099 63.5365 310.188 63.5625V64.7734C310.005 64.7109 309.799 64.6641 309.57 64.6328C309.341 64.6016 309.115 64.5859 308.891 64.5859C308.422 64.5859 308.008 64.6432 307.648 64.7578C307.294 64.8672 306.987 65.0234 306.727 65.2266C306.466 65.4297 306.247 65.6719 306.07 65.9531C305.898 66.2344 305.758 66.5469 305.648 66.8906C305.539 67.2292 305.458 67.5911 305.406 67.9766C305.354 68.362 305.32 68.763 305.305 69.1797H305.398C305.503 68.9922 305.628 68.8177 305.773 68.6562C305.924 68.4896 306.099 68.349 306.297 68.2344C306.495 68.1146 306.716 68.0208 306.961 67.9531C307.211 67.8854 307.49 67.8516 307.797 67.8516C308.292 67.8516 308.74 67.9297 309.141 68.0859C309.542 68.237 309.883 68.4609 310.164 68.7578C310.445 69.0547 310.661 69.4193 310.812 69.8516C310.969 70.2786 311.047 70.7682 311.047 71.3203C311.047 71.9141 310.966 72.4479 310.805 72.9219C310.643 73.3958 310.411 73.7995 310.109 74.1328C309.807 74.4609 309.443 74.7135 309.016 74.8906C308.589 75.0677 308.109 75.1562 307.578 75.1562C307.057 75.1562 306.568 75.0547 306.109 74.8516C305.656 74.6484 305.263 74.3385 304.93 73.9219C304.596 73.5052 304.333 72.9818 304.141 72.3516C303.948 71.7214 303.852 70.9766 303.852 70.1172ZM307.562 73.9609C307.875 73.9609 308.159 73.9089 308.414 73.8047C308.674 73.6953 308.898 73.5339 309.086 73.3203C309.273 73.1016 309.417 72.8281 309.516 72.5C309.62 72.1667 309.672 71.7734 309.672 71.3203C309.672 70.9557 309.628 70.6302 309.539 70.3438C309.456 70.0521 309.328 69.8047 309.156 69.6016C308.984 69.3984 308.768 69.2422 308.508 69.1328C308.253 69.0234 307.953 68.9688 307.609 68.9688C307.26 68.9688 306.94 69.0312 306.648 69.1562C306.362 69.276 306.117 69.4349 305.914 69.6328C305.711 69.8255 305.552 70.0469 305.438 70.2969C305.328 70.5469 305.273 70.7969 305.273 71.0469C305.273 71.3958 305.32 71.7448 305.414 72.0938C305.513 72.4375 305.656 72.7474 305.844 73.0234C306.036 73.2995 306.276 73.526 306.562 73.7031C306.849 73.875 307.182 73.9609 307.562 73.9609ZM319.812 68.4531C319.812 69 319.784 69.5469 319.727 70.0938C319.674 70.6354 319.578 71.1536 319.438 71.6484C319.302 72.1432 319.115 72.6068 318.875 73.0391C318.635 73.4661 318.331 73.8359 317.961 74.1484C317.591 74.4609 317.148 74.7083 316.633 74.8906C316.117 75.0677 315.513 75.1562 314.82 75.1562C314.721 75.1562 314.612 75.1536 314.492 75.1484C314.372 75.1432 314.253 75.1328 314.133 75.1172C314.013 75.1068 313.896 75.0938 313.781 75.0781C313.667 75.0625 313.565 75.0417 313.477 75.0156V73.7969C313.659 73.8646 313.865 73.9141 314.094 73.9453C314.323 73.9766 314.549 73.9922 314.773 73.9922C315.477 73.9922 316.055 73.8698 316.508 73.625C316.961 73.3802 317.32 73.0495 317.586 72.6328C317.852 72.2109 318.039 71.7214 318.148 71.1641C318.263 70.6068 318.333 70.0182 318.359 69.3984H318.258C318.154 69.5859 318.029 69.7604 317.883 69.9219C317.737 70.0833 317.565 70.224 317.367 70.3438C317.169 70.4635 316.945 70.5573 316.695 70.625C316.445 70.6927 316.167 70.7266 315.859 70.7266C315.365 70.7266 314.917 70.651 314.516 70.5C314.115 70.3438 313.773 70.1172 313.492 69.8203C313.211 69.5234 312.992 69.1615 312.836 68.7344C312.685 68.3021 312.609 67.8099 312.609 67.2578C312.609 66.6641 312.69 66.1302 312.852 65.6562C313.018 65.1771 313.25 64.7734 313.547 64.4453C313.849 64.112 314.214 63.8568 314.641 63.6797C315.073 63.5026 315.555 63.4141 316.086 63.4141C316.612 63.4141 317.102 63.5156 317.555 63.7188C318.008 63.9219 318.401 64.2318 318.734 64.6484C319.068 65.0651 319.331 65.5911 319.523 66.2266C319.716 66.8568 319.812 67.599 319.812 68.4531ZM316.102 64.6172C315.789 64.6172 315.503 64.6693 315.242 64.7734C314.987 64.8776 314.766 65.0391 314.578 65.2578C314.391 65.4766 314.245 65.7526 314.141 66.0859C314.042 66.4141 313.992 66.8047 313.992 67.2578C313.992 67.6224 314.034 67.9505 314.117 68.2422C314.206 68.5286 314.336 68.7734 314.508 68.9766C314.68 69.1797 314.893 69.3359 315.148 69.4453C315.409 69.5547 315.711 69.6094 316.055 69.6094C316.409 69.6094 316.729 69.5495 317.016 69.4297C317.302 69.3047 317.547 69.1458 317.75 68.9531C317.953 68.7552 318.109 68.5312 318.219 68.2812C318.333 68.0312 318.391 67.7812 318.391 67.5312C318.391 67.1823 318.341 66.8359 318.242 66.4922C318.148 66.1432 318.005 65.8307 317.812 65.5547C317.625 65.2734 317.388 65.0469 317.102 64.875C316.815 64.7031 316.482 64.6172 316.102 64.6172Z" fill="#929292"/>
<path d="M455 42H445C444.47 42 443.961 41.7893 443.586 41.4142C443.211 41.0391 443 40.5304 443 40V27H441V25H445V24C445 23.4696 445.211 22.9609 445.586 22.5858C445.961 22.2107 446.47 22 447 22H453C453.53 22 454.039 22.2107 454.414 22.5858C454.789 22.9609 455 23.4696 455 24V25H459V27H457V40C457 40.5304 456.789 41.0391 456.414 41.4142C456.039 41.7893 455.53 42 455 42ZM445 27V40H455V27H445ZM447 24V25H453V24H447Z" fill="black"/>
<path d="M486 32C486 18.7452 496.745 8 510 8V8C523.255 8 534 18.7452 534 32V32C534 45.2548 523.255 56 510 56V56C496.745 56 486 45.2548 486 32V32Z" fill="#0058A3"/>
<path fill-rule="evenodd" clip-rule="evenodd" d="M508.437 24H508.999H510H511H511.562L511.854 24.4801L515.211 29.9971H519H520.281L519.97 31.2396L519.53 33H517.469L517.719 31.9971H502.281L503.591 37.2397C503.703 37.6848 504.103 37.9971 504.562 37.9971H513V39.9971H504.562C503.185 39.9971 501.985 39.0602 501.651 37.7247L500.03 31.2397L499.719 29.9971H501H504.788L508.145 24.4802L508.437 24ZM510.437 26L512.87 29.9971H507.129L509.561 26H510H510.437ZM515.996 36V34H517.996V36H519.996V38H517.996V40H515.996V38H513.996V36H515.996Z" fill="white"/>
<circle cx="293" cy="127" r="12" fill="#D09A16"/>
<circle cx="341" cy="127" r="12" fill="#ACAE16"/>
<circle cx="389" cy="127" r="12" fill="#F68661"/>
<rect x="273.5" y="0.5" width="268" height="146" rx="3.5" stroke="black" stroke-dasharray="2 2"/>
<rect x="0.5" y="0.5" width="253" height="141" rx="3.5" fill="white" fill-opacity="0.8"/>
<path d="M9.79688 28V13.7227H12.8242V25.5H18.6152V28H9.79688ZM29.3281 28H21.1055V13.7227H29.3281V16.2031H24.1328V19.3379H28.9668V21.8184H24.1328V25.5H29.3281V28ZM38.3613 28L34.9238 16.7988H34.8359C34.9596 19.0775 35.0215 20.5977 35.0215 21.3594V28H32.3164V13.7227H36.4375L39.8164 24.6406H39.875L43.459 13.7227H47.5801V28H44.7578V21.2422C44.7578 20.9232 44.7611 20.5553 44.7676 20.1387C44.7806 19.722 44.8262 18.6152 44.9043 16.8184H44.8164L41.1348 28H38.3613ZM62.668 28H59.2305L55.4902 21.9844L54.2109 22.9023V28H51.1836V13.7227H54.2109V20.2559L55.4023 18.5762L59.2695 13.7227H62.6289L57.6484 20.041L62.668 28ZM73.2051 28L72.1699 24.6016H66.9648L65.9297 28H62.668L67.707 13.6641H71.4082L76.4668 28H73.2051ZM71.4473 22.0625C70.4902 18.9831 69.9499 17.2415 69.8262 16.8379C69.709 16.4342 69.6243 16.1152 69.5723 15.8809C69.3574 16.7142 68.7422 18.7747 67.7266 22.0625H71.4473Z" fill="black"/>
<path d="M16.7188 52L15.3438 48.4609H10.8125L9.45312 52H8L12.4609 40.5312H13.7578L18.2109 52H16.7188ZM14.9141 47.1875L13.6328 43.7266L13.0859 42.0156C12.9297 42.6406 12.7656 43.2109 12.5938 43.7266L11.2969 47.1875H14.9141ZM27.1875 52.1562C25.9531 52.1562 24.9922 51.7786 24.3047 51.0234C23.6172 50.263 23.2734 49.1745 23.2734 47.7578C23.2734 46.3203 23.6198 45.2135 24.3125 44.4375C25.0104 43.6562 26.0026 43.2656 27.2891 43.2656C27.7057 43.2656 28.1172 43.3099 28.5234 43.3984C28.9349 43.4818 29.2734 43.5911 29.5391 43.7266L29.1094 44.8984C28.3854 44.6276 27.7682 44.4922 27.2578 44.4922C26.3932 44.4922 25.7552 44.7656 25.3438 45.3125C24.9323 45.8542 24.7266 46.6641 24.7266 47.7422C24.7266 48.7786 24.9323 49.5729 25.3438 50.125C25.7552 50.6719 26.3646 50.9453 27.1719 50.9453C27.9271 50.9453 28.6693 50.7786 29.3984 50.4453V51.6953C28.8047 52.0026 28.0677 52.1562 27.1875 52.1562ZM37.2812 52V46.5156C37.2812 45.8177 37.125 45.2995 36.8125 44.9609C36.5052 44.6172 36.0208 44.4453 35.3594 44.4453C34.4896 44.4453 33.8516 44.6875 33.4453 45.1719C33.0443 45.6562 32.8438 46.4557 32.8438 47.5703V52H31.4375V39.8438H32.8438V43.4062C32.8438 43.875 32.8177 44.276 32.7656 44.6094H32.8594C33.1146 44.1927 33.4766 43.8672 33.9453 43.6328C34.4141 43.3984 34.9427 43.2812 35.5312 43.2812C36.5729 43.2812 37.3568 43.5312 37.8828 44.0312C38.4089 44.526 38.6719 45.3203 38.6719 46.4141V52H37.2812ZM46.625 52L46.3516 50.7812H46.2891C45.862 51.3177 45.4349 51.6823 45.0078 51.875C44.5859 52.0625 44.0521 52.1562 43.4062 52.1562C42.5625 52.1562 41.901 51.9349 41.4219 51.4922C40.9427 51.0495 40.7031 50.4245 40.7031 49.6172C40.7031 47.8776 42.0755 46.9661 44.8203 46.8828L46.2734 46.8281V46.3203C46.2734 45.6693 46.1328 45.1901 45.8516 44.8828C45.5703 44.5703 45.1198 44.4141 44.5 44.4141C44.0469 44.4141 43.6172 44.4818 43.2109 44.6172C42.8099 44.7526 42.4323 44.9036 42.0781 45.0703L41.6484 44.0156C42.0807 43.7865 42.5521 43.6068 43.0625 43.4766C43.5729 43.3464 44.0781 43.2812 44.5781 43.2812C45.6146 43.2812 46.3854 43.5104 46.8906 43.9688C47.3958 44.4271 47.6484 45.1562 47.6484 46.1562V52H46.625ZM43.7266 51.0234C44.513 51.0234 45.1302 50.8125 45.5781 50.3906C46.0312 49.9635 46.2578 49.3594 46.2578 48.5781V47.8047L44.9922 47.8594C44.0078 47.8958 43.2891 48.0521 42.8359 48.3281C42.388 48.6042 42.1641 49.0391 42.1641 49.6328C42.1641 50.0807 42.2995 50.4245 42.5703 50.6641C42.8464 50.9036 43.2318 51.0234 43.7266 51.0234ZM51.7188 52H50.3125V43.4219H51.7188V52ZM50.2031 41.1016C50.2031 40.7891 50.2812 40.5625 50.4375 40.4219C50.599 40.2812 50.7969 40.2109 51.0312 40.2109C51.25 40.2109 51.4401 40.2812 51.6016 40.4219C51.7682 40.5625 51.8516 40.7891 51.8516 41.1016C51.8516 41.4089 51.7682 41.6354 51.6016 41.7812C51.4401 41.9271 51.25 42 51.0312 42C50.7969 42 50.599 41.9271 50.4375 41.7812C50.2812 41.6354 50.2031 41.4089 50.2031 41.1016ZM58.4375 43.2656C58.8177 43.2656 59.1536 43.2969 59.4453 43.3594L59.2734 44.6562C58.9557 44.5833 58.6458 44.5469 58.3438 44.5469C57.8906 44.5469 57.4688 44.6719 57.0781 44.9219C56.6927 45.1719 56.3906 45.5182 56.1719 45.9609C55.9531 46.3984 55.8438 46.8854 55.8438 47.4219V52H54.4375V43.4219H55.5938L55.75 44.9922H55.8125C56.1406 44.4245 56.5286 43.9948 56.9766 43.7031C57.4245 43.4115 57.9115 43.2656 58.4375 43.2656Z" fill="#111111"/>
<path d="M16.125 71.4922C16.125 72.2057 15.8594 72.7969 15.3281 73.2656C14.8021 73.7344 14.0495 74.0286 13.0703 74.1484V75.9297H12.0469V74.2188C11.4531 74.2083 10.8828 74.1589 10.3359 74.0703C9.79427 73.9766 9.34635 73.849 8.99219 73.6875V72.375C9.38281 72.5573 9.85938 72.7161 10.4219 72.8516C10.9896 72.9818 11.5312 73.0521 12.0469 73.0625V69.7188C10.9792 69.3802 10.224 68.9844 9.78125 68.5312C9.33854 68.0729 9.11719 67.487 9.11719 66.7734C9.11719 66.0859 9.38021 65.5208 9.90625 65.0781C10.4323 64.6354 11.1458 64.3646 12.0469 64.2656V62.8594H13.0703V64.25C14.0599 64.276 15 64.474 15.8906 64.8438L15.4531 65.9453C14.6458 65.6276 13.8516 65.4401 13.0703 65.3828V68.6797C13.9036 68.9609 14.5234 69.2266 14.9297 69.4766C15.3411 69.7266 15.6432 70.013 15.8359 70.3359C16.0286 70.6536 16.125 71.0391 16.125 71.4922ZM14.7031 71.5938C14.7031 71.2188 14.5807 70.9219 14.3359 70.7031C14.0911 70.4792 13.6693 70.263 13.0703 70.0547V72.9844C14.1589 72.8177 14.7031 72.3542 14.7031 71.5938ZM10.5469 66.7578C10.5469 67.138 10.6589 67.4453 10.8828 67.6797C11.1068 67.9141 11.4948 68.1302 12.0469 68.3281V65.4141C11.5573 65.4974 11.1849 65.6562 10.9297 65.8906C10.6745 66.125 10.5469 66.4141 10.5469 66.7578ZM24.6641 66.25C24.6641 66.6302 24.6042 66.9766 24.4844 67.2891C24.3646 67.6016 24.1953 67.8724 23.9766 68.1016C23.763 68.3307 23.5052 68.5208 23.2031 68.6719C22.901 68.8177 22.5651 68.9219 22.1953 68.9844V69.0312C23.1172 69.1458 23.8177 69.4401 24.2969 69.9141C24.776 70.3828 25.0156 70.9948 25.0156 71.75C25.0156 72.25 24.9297 72.7083 24.7578 73.125C24.5911 73.5417 24.3359 73.901 23.9922 74.2031C23.6484 74.5052 23.2135 74.7396 22.6875 74.9062C22.1615 75.0729 21.5391 75.1562 20.8203 75.1562C20.2526 75.1562 19.7161 75.112 19.2109 75.0234C18.7109 74.9349 18.2396 74.7734 17.7969 74.5391V73.2109C18.25 73.4505 18.7396 73.6354 19.2656 73.7656C19.7969 73.8958 20.3047 73.9609 20.7891 73.9609C21.2682 73.9609 21.6823 73.9089 22.0312 73.8047C22.3802 73.7005 22.6667 73.5521 22.8906 73.3594C23.1198 73.1667 23.2865 72.9297 23.3906 72.6484C23.5 72.3672 23.5547 72.0521 23.5547 71.7031C23.5547 71.349 23.4844 71.0469 23.3438 70.7969C23.2083 70.5417 23.013 70.3333 22.7578 70.1719C22.5026 70.0052 22.1901 69.8828 21.8203 69.8047C21.4557 69.7266 21.0417 69.6875 20.5781 69.6875H19.5391V68.5078H20.5781C21 68.5078 21.375 68.4557 21.7031 68.3516C22.0312 68.2474 22.3047 68.099 22.5234 67.9062C22.7474 67.7135 22.9167 67.4844 23.0312 67.2188C23.1458 66.9531 23.2031 66.6615 23.2031 66.3438C23.2031 66.0729 23.1562 65.8307 23.0625 65.6172C22.9688 65.4036 22.8359 65.224 22.6641 65.0781C22.4922 64.9271 22.2865 64.8125 22.0469 64.7344C21.8073 64.6562 21.5417 64.6172 21.25 64.6172C20.6927 64.6172 20.2005 64.7057 19.7734 64.8828C19.3516 65.0547 18.9479 65.2812 18.5625 65.5625L17.8438 64.5859C18.0417 64.4245 18.2604 64.2734 18.5 64.1328C18.7448 63.9922 19.0104 63.8698 19.2969 63.7656C19.5833 63.6562 19.888 63.5703 20.2109 63.5078C20.5391 63.4453 20.8854 63.4141 21.25 63.4141C21.8125 63.4141 22.3047 63.4844 22.7266 63.625C23.1536 63.7656 23.5104 63.9635 23.7969 64.2188C24.0833 64.4688 24.2995 64.7682 24.4453 65.1172C24.5911 65.4609 24.6641 65.8385 24.6641 66.25ZM26.8516 70.1172C26.8516 69.5703 26.8776 69.026 26.9297 68.4844C26.987 67.9427 27.0833 67.4245 27.2188 66.9297C27.3594 66.4297 27.5495 65.9661 27.7891 65.5391C28.0286 65.112 28.3333 64.7422 28.7031 64.4297C29.0729 64.112 29.5156 63.8646 30.0312 63.6875C30.5469 63.5052 31.151 63.4141 31.8438 63.4141C31.9427 63.4141 32.0521 63.4167 32.1719 63.4219C32.2917 63.4271 32.4115 63.4375 32.5312 63.4531C32.6562 63.4635 32.7734 63.4792 32.8828 63.5C32.9974 63.5156 33.099 63.5365 33.1875 63.5625V64.7734C33.0052 64.7109 32.7995 64.6641 32.5703 64.6328C32.3411 64.6016 32.1146 64.5859 31.8906 64.5859C31.4219 64.5859 31.0078 64.6432 30.6484 64.7578C30.2943 64.8672 29.987 65.0234 29.7266 65.2266C29.4661 65.4297 29.2474 65.6719 29.0703 65.9531C28.8984 66.2344 28.7578 66.5469 28.6484 66.8906C28.5391 67.2292 28.4583 67.5911 28.4062 67.9766C28.3542 68.362 28.3203 68.763 28.3047 69.1797H28.3984C28.5026 68.9922 28.6276 68.8177 28.7734 68.6562C28.9245 68.4896 29.099 68.349 29.2969 68.2344C29.4948 68.1146 29.7161 68.0208 29.9609 67.9531C30.2109 67.8854 30.4896 67.8516 30.7969 67.8516C31.2917 67.8516 31.7396 67.9297 32.1406 68.0859C32.5417 68.237 32.8828 68.4609 33.1641 68.7578C33.4453 69.0547 33.6615 69.4193 33.8125 69.8516C33.9688 70.2786 34.0469 70.7682 34.0469 71.3203C34.0469 71.9141 33.9661 72.4479 33.8047 72.9219C33.6432 73.3958 33.4115 73.7995 33.1094 74.1328C32.8073 74.4609 32.4427 74.7135 32.0156 74.8906C31.5885 75.0677 31.1094 75.1562 30.5781 75.1562C30.0573 75.1562 29.5677 75.0547 29.1094 74.8516C28.6562 74.6484 28.263 74.3385 27.9297 73.9219C27.5964 73.5052 27.3333 72.9818 27.1406 72.3516C26.9479 71.7214 26.8516 70.9766 26.8516 70.1172ZM30.5625 73.9609C30.875 73.9609 31.1589 73.9089 31.4141 73.8047C31.6745 73.6953 31.8984 73.5339 32.0859 73.3203C32.2734 73.1016 32.4167 72.8281 32.5156 72.5C32.6198 72.1667 32.6719 71.7734 32.6719 71.3203C32.6719 70.9557 32.6276 70.6302 32.5391 70.3438C32.4557 70.0521 32.3281 69.8047 32.1562 69.6016C31.9844 69.3984 31.7682 69.2422 31.5078 69.1328C31.2526 69.0234 30.9531 68.9688 30.6094 68.9688C30.2604 68.9688 29.9401 69.0312 29.6484 69.1562C29.362 69.276 29.1172 69.4349 28.9141 69.6328C28.7109 69.8255 28.5521 70.0469 28.4375 70.2969C28.3281 70.5469 28.2734 70.7969 28.2734 71.0469C28.2734 71.3958 28.3203 71.7448 28.4141 72.0938C28.513 72.4375 28.6562 72.7474 28.8438 73.0234C29.0365 73.2995 29.276 73.526 29.5625 73.7031C29.849 73.875 30.1823 73.9609 30.5625 73.9609ZM42.8125 68.4531C42.8125 69 42.7839 69.5469 42.7266 70.0938C42.6745 70.6354 42.5781 71.1536 42.4375 71.6484C42.3021 72.1432 42.1146 72.6068 41.875 73.0391C41.6354 73.4661 41.3307 73.8359 40.9609 74.1484C40.5911 74.4609 40.1484 74.7083 39.6328 74.8906C39.1172 75.0677 38.513 75.1562 37.8203 75.1562C37.7214 75.1562 37.612 75.1536 37.4922 75.1484C37.3724 75.1432 37.2526 75.1328 37.1328 75.1172C37.013 75.1068 36.8958 75.0938 36.7812 75.0781C36.6667 75.0625 36.5651 75.0417 36.4766 75.0156V73.7969C36.6589 73.8646 36.8646 73.9141 37.0938 73.9453C37.3229 73.9766 37.5495 73.9922 37.7734 73.9922C38.4766 73.9922 39.0547 73.8698 39.5078 73.625C39.9609 73.3802 40.3203 73.0495 40.5859 72.6328C40.8516 72.2109 41.0391 71.7214 41.1484 71.1641C41.263 70.6068 41.3333 70.0182 41.3594 69.3984H41.2578C41.1536 69.5859 41.0286 69.7604 40.8828 69.9219C40.737 70.0833 40.5651 70.224 40.3672 70.3438C40.1693 70.4635 39.9453 70.5573 39.6953 70.625C39.4453 70.6927 39.1667 70.7266 38.8594 70.7266C38.3646 70.7266 37.9167 70.651 37.5156 70.5C37.1146 70.3438 36.7734 70.1172 36.4922 69.8203C36.2109 69.5234 35.9922 69.1615 35.8359 68.7344C35.6849 68.3021 35.6094 67.8099 35.6094 67.2578C35.6094 66.6641 35.6901 66.1302 35.8516 65.6562C36.0182 65.1771 36.25 64.7734 36.5469 64.4453C36.849 64.112 37.2135 63.8568 37.6406 63.6797C38.0729 63.5026 38.5547 63.4141 39.0859 63.4141C39.612 63.4141 40.1016 63.5156 40.5547 63.7188C41.0078 63.9219 41.401 64.2318 41.7344 64.6484C42.0677 65.0651 42.3307 65.5911 42.5234 66.2266C42.7161 66.8568 42.8125 67.599 42.8125 68.4531ZM39.1016 64.6172C38.7891 64.6172 38.5026 64.6693 38.2422 64.7734C37.987 64.8776 37.7656 65.0391 37.5781 65.2578C37.3906 65.4766 37.2448 65.7526 37.1406 66.0859C37.0417 66.4141 36.9922 66.8047 36.9922 67.2578C36.9922 67.6224 37.0339 67.9505 37.1172 68.2422C37.2057 68.5286 37.3359 68.7734 37.5078 68.9766C37.6797 69.1797 37.8932 69.3359 38.1484 69.4453C38.4089 69.5547 38.7109 69.6094 39.0547 69.6094C39.4089 69.6094 39.7292 69.5495 40.0156 69.4297C40.3021 69.3047 40.5469 69.1458 40.75 68.9531C40.9531 68.7552 41.1094 68.5312 41.2188 68.2812C41.3333 68.0312 41.3906 67.7812 41.3906 67.5312C41.3906 67.1823 41.3411 66.8359 41.2422 66.4922C41.1484 66.1432 41.0052 65.8307 40.8125 65.5547C40.625 65.2734 40.388 65.0469 40.1016 64.875C39.8151 64.7031 39.4818 64.6172 39.1016 64.6172Z" fill="#929292"/>
<circle cx="156" cy="18" r="10" fill="#D09A16"/>
<circle cx="196" cy="18" r="10" fill="#ACAE16"/>
<circle cx="236" cy="18" r="10" fill="#F68661"/>
<path d="M170 124H160C159.47 124 158.961 123.789 158.586 123.414C158.211 123.039 158 122.53 158 122V109H156V107H160V106C160 105.47 160.211 104.961 160.586 104.586C160.961 104.211 161.47 104 162 104H168C168.53 104 169.039 104.211 169.414 104.586C169.789 104.961 170 105.47 170 106V107H174V109H172V122C172 122.53 171.789 123.039 171.414 123.414C171.039 123.789 170.53 124 170 124ZM160 109V122H170V109H160ZM162 106V107H168V106H162Z" fill="black"/>
<path d="M202 114C202 100.745 212.745 90 226 90V90C239.255 90 250 100.745 250 114V114C250 127.255 239.255 138 226 138V138C212.745 138 202 127.255 202 114V114Z" fill="#0058A3"/>
<path fill-rule="evenodd" clip-rule="evenodd" d="M224.437 106H224.999H226H227H227.562L227.854 106.48L231.211 111.997H235H236.281L235.97 113.24L235.53 115H233.469L233.719 113.997H218.281L219.591 119.24C219.703 119.685 220.103 119.997 220.562 119.997H229V121.997H220.562C219.185 121.997 217.985 121.06 217.651 119.725L216.03 113.24L215.719 111.997H217H220.788L224.145 106.48L224.437 106ZM226.437 108L228.87 111.997H223.129L225.561 108H226H226.437ZM231.996 118V116H233.996V118H235.996V120H233.996V122H231.996V120H229.996V118H231.996Z" fill="white"/>
<rect x="0.5" y="0.5" width="253" height="141" rx="3.5" stroke="black" stroke-dasharray="2 2"/>
</svg>
