<svg width="414" height="64" viewBox="0 0 414 64" fill="none" xmlns="http://www.w3.org/2000/svg">
<path fill-rule="evenodd" clip-rule="evenodd" d="M37.9804 35.3946C36.9443 36.1448 35.6705 36.5871 34.2935 36.5871C30.8177 36.5871 28 33.7694 28 30.2935C28 26.8177 30.8177 24 34.2935 24C37.7694 24 40.5871 26.8177 40.5871 30.2935C40.5871 31.6705 40.1448 32.9443 39.3946 33.9804L43.9962 38.582L42.582 39.9962L37.9804 35.3946ZM38.5871 30.2935C38.5871 32.6648 36.6648 34.5871 34.2935 34.5871C31.9223 34.5871 30 32.6648 30 30.2935C30 27.9223 31.9223 26 34.2935 26C36.6648 26 38.5871 27.9223 38.5871 30.2935V30.2935Z" fill="black"/>
<path d="M85.4285 23L88 21.5L90.5716 23" stroke="black" stroke-width="1.5" stroke-linecap="round" stroke-linejoin="round"/>
<path d="M88 21.5V25.25" stroke="black" stroke-width="1.5" stroke-miterlimit="10" stroke-linecap="round"/>
<path d="M90.5716 41L88 42.5L85.4285 41" stroke="black" stroke-width="1.5" stroke-linecap="round" stroke-linejoin="round"/>
<path d="M88 42.5V38.75" stroke="black" stroke-width="1.5" stroke-miterlimit="10" stroke-linecap="round"/>
<path d="M79 29.727V26.75L81.4914 25.2729" stroke="black" stroke-width="1.5" stroke-linecap="round" stroke-linejoin="round"/>
<path d="M79 26.75L82.1542 28.625" stroke="black" stroke-width="1.5" stroke-miterlimit="10" stroke-linecap="round"/>
<path d="M97 34.2729V37.25L94.5086 38.727" stroke="black" stroke-width="1.5" stroke-linecap="round" stroke-linejoin="round"/>
<path d="M97 37.25L93.8458 35.375" stroke="black" stroke-width="1.5" stroke-miterlimit="10" stroke-linecap="round"/>
<path d="M81.4914 38.75L79 37.25V34.2729" stroke="black" stroke-width="1.5" stroke-linecap="round" stroke-linejoin="round"/>
<path d="M79 37.25L82.1237 35.375" stroke="black" stroke-width="1.5" stroke-miterlimit="10" stroke-linecap="round"/>
<path d="M94.5086 25.2729L97 26.75V29.727" stroke="black" stroke-width="1.5" stroke-linecap="round" stroke-linejoin="round"/>
<path d="M97 26.75L93.8458 28.625" stroke="black" stroke-width="1.5" stroke-miterlimit="10" stroke-linecap="round"/>
<path d="M88 35V32L90.5716 30.5" stroke="black" stroke-width="1.5" stroke-miterlimit="10" stroke-linecap="round"/>
<path d="M88 32L85.4285 30.5" stroke="black" stroke-width="1.5" stroke-miterlimit="10" stroke-linecap="round"/>
<path fill-rule="evenodd" clip-rule="evenodd" d="M144.002 33C144.002 34.0609 143.581 35.0783 142.83 35.8284C142.08 36.5786 141.063 37 140.002 37C138.941 37 137.924 36.5786 137.174 35.8284C136.423 35.0783 136.002 34.0609 136.002 33C136.002 31.9391 136.423 30.9217 137.174 30.1716C137.924 29.4214 138.941 29 140.002 29C141.063 29 142.08 29.4214 142.83 30.1716C143.581 30.9217 144.002 31.9391 144.002 33V33ZM142.002 33C142.002 33.5304 141.791 34.0391 141.416 34.4142C141.041 34.7893 140.532 35 140.002 35C139.472 35 138.963 34.7893 138.588 34.4142C138.213 34.0391 138.002 33.5304 138.002 33C138.002 32.4696 138.213 31.9609 138.588 31.5858C138.963 31.2107 139.472 31 140.002 31C140.532 31 141.041 31.2107 141.416 31.5858C141.791 31.9609 142.002 32.4696 142.002 33V33Z" fill="black"/>
<path fill-rule="evenodd" clip-rule="evenodd" d="M137.443 24L135.586 27H131V40H149V27H144.414L142.557 24H137.443ZM138.557 26H141.443L143.3 29H147V38H133V29H136.7L138.557 26V26Z" fill="black"/>
<path d="M0 0V-0.5H-0.5V0H0ZM176 0H176.5V-0.5H176V0ZM176 64V64.5H176.5V64H176ZM0 64H-0.5V64.5H0V64ZM-0.5 0V1.45455H0.5V0H-0.5ZM-0.5 4.36364V7.27273H0.5V4.36364H-0.5ZM-0.5 10.1818V13.0909H0.5V10.1818H-0.5ZM-0.5 16V18.9091H0.5V16H-0.5ZM-0.5 21.8182V24.7273H0.5V21.8182H-0.5ZM-0.5 27.6364V30.5455H0.5V27.6364H-0.5ZM-0.5 33.4546V36.3636H0.5V33.4546H-0.5ZM-0.5 39.2727V42.1818H0.5V39.2727H-0.5ZM-0.5 45.0909V48H0.5V45.0909H-0.5ZM-0.5 50.9091V53.8182H0.5V50.9091H-0.5ZM-0.5 56.7273V59.6364H0.5V56.7273H-0.5ZM-0.5 62.5455V64H0.5V62.5455H-0.5ZM0 64.5H1.51724V63.5H0V64.5ZM4.55172 64.5H7.58621V63.5H4.55172V64.5ZM10.6207 64.5H13.6552V63.5H10.6207V64.5ZM16.6897 64.5H19.7241V63.5H16.6897V64.5ZM22.7586 64.5H25.7931V63.5H22.7586V64.5ZM28.8276 64.5H31.8621V63.5H28.8276V64.5ZM34.8966 64.5H37.931V63.5H34.8966V64.5ZM40.9655 64.5H44V63.5H40.9655V64.5ZM47.0345 64.5H50.069V63.5H47.0345V64.5ZM53.1034 64.5H56.1379V63.5H53.1034V64.5ZM59.1724 64.5H62.2069V63.5H59.1724V64.5ZM65.2414 64.5H68.2758V63.5H65.2414V64.5ZM71.3103 64.5H74.3448V63.5H71.3103V64.5ZM77.3793 64.5H80.4138V63.5H77.3793V64.5ZM83.4483 64.5H86.4828V63.5H83.4483V64.5ZM89.5172 64.5H92.5517V63.5H89.5172V64.5ZM95.5862 64.5H98.6207V63.5H95.5862V64.5ZM101.655 64.5H104.69V63.5H101.655V64.5ZM107.724 64.5H110.759V63.5H107.724V64.5ZM113.793 64.5H116.828V63.5H113.793V64.5ZM119.862 64.5H122.897V63.5H119.862V64.5ZM125.931 64.5H128.966V63.5H125.931V64.5ZM132 64.5H135.035V63.5H132V64.5ZM138.069 64.5H141.103V63.5H138.069V64.5ZM144.138 64.5H147.172V63.5H144.138V64.5ZM150.207 64.5H153.241V63.5H150.207V64.5ZM156.276 64.5H159.31V63.5H156.276V64.5ZM162.345 64.5H165.379V63.5H162.345V64.5ZM168.414 64.5H171.448V63.5H168.414V64.5ZM174.483 64.5H176V63.5H174.483V64.5ZM176.5 64V62.5455H175.5V64H176.5ZM176.5 59.6364V56.7273H175.5V59.6364H176.5ZM176.5 53.8182V50.9091H175.5V53.8182H176.5ZM176.5 48V45.0909H175.5V48H176.5ZM176.5 42.1818V39.2727H175.5V42.1818H176.5ZM176.5 36.3636V33.4545H175.5V36.3636H176.5ZM176.5 30.5454V27.6364H175.5V30.5454H176.5ZM176.5 24.7273V21.8182H175.5V24.7273H176.5ZM176.5 18.9091V16H175.5V18.9091H176.5ZM176.5 13.0909V10.1818H175.5V13.0909H176.5ZM176.5 7.27271V4.36362H175.5V7.27271H176.5ZM176.5 1.45453V0H175.5V1.45453H176.5ZM176 -0.5H174.483V0.5H176V-0.5ZM171.448 -0.5H168.414V0.5H171.448V-0.5ZM165.379 -0.5H162.345V0.5H165.379V-0.5ZM159.31 -0.5H156.276V0.5H159.31V-0.5ZM153.241 -0.5H150.207V0.5H153.241V-0.5ZM147.172 -0.5H144.138V0.5H147.172V-0.5ZM141.103 -0.5H138.069V0.5H141.103V-0.5ZM135.034 -0.5H132V0.5H135.034V-0.5ZM128.966 -0.5H125.931V0.5H128.966V-0.5ZM122.897 -0.5H119.862V0.5H122.897V-0.5ZM116.828 -0.5H113.793V0.5H116.828V-0.5ZM110.759 -0.5H107.724V0.5H110.759V-0.5ZM104.69 -0.5H101.655V0.5H104.69V-0.5ZM98.6207 -0.5H95.5862V0.5H98.6207V-0.5ZM92.5517 -0.5H89.5172V0.5H92.5517V-0.5ZM86.4828 -0.5H83.4483V0.5H86.4828V-0.5ZM80.4138 -0.5H77.3793V0.5H80.4138V-0.5ZM74.3448 -0.5H71.3103V0.5H74.3448V-0.5ZM68.2758 -0.5H65.2414V0.5H68.2758V-0.5ZM62.2069 -0.5H59.1724V0.5H62.2069V-0.5ZM56.1379 -0.5H53.1034V0.5H56.1379V-0.5ZM50.0689 -0.5H47.0345V0.5H50.0689V-0.5ZM44 -0.5H40.9655V0.5H44V-0.5ZM37.931 -0.5H34.8965V0.5H37.931V-0.5ZM31.862 -0.5H28.8275V0.5H31.862V-0.5ZM25.7931 -0.5H22.7586V0.5H25.7931V-0.5ZM19.7241 -0.5H16.6896V0.5H19.7241V-0.5ZM13.6551 -0.5H10.6206V0.5H13.6551V-0.5ZM7.58616 -0.5H4.55167V0.5H7.58616V-0.5ZM1.51718 -0.5H0V0.5H1.51718V-0.5ZM0 0V-1H-1V0H0ZM176 0H177V-1H176V0ZM176 64V65H177V64H176ZM0 64H-1V65H0V64ZM-1 0V1.45455H1V0H-1ZM-1 4.36364V7.27273H1V4.36364H-1ZM-1 10.1818V13.0909H1V10.1818H-1ZM-1 16V18.9091H1V16H-1ZM-1 21.8182V24.7273H1V21.8182H-1ZM-1 27.6364V30.5455H1V27.6364H-1ZM-1 33.4546V36.3636H1V33.4546H-1ZM-1 39.2727V42.1818H1V39.2727H-1ZM-1 45.0909V48H1V45.0909H-1ZM-1 50.9091V53.8182H1V50.9091H-1ZM-1 56.7273V59.6364H1V56.7273H-1ZM-1 62.5455V64H1V62.5455H-1ZM0 65H1.51724V63H0V65ZM4.55172 65H7.58621V63H4.55172V65ZM10.6207 65H13.6552V63H10.6207V65ZM16.6897 65H19.7241V63H16.6897V65ZM22.7586 65H25.7931V63H22.7586V65ZM28.8276 65H31.8621V63H28.8276V65ZM34.8966 65H37.931V63H34.8966V65ZM40.9655 65H44V63H40.9655V65ZM47.0345 65H50.069V63H47.0345V65ZM53.1034 65H56.1379V63H53.1034V65ZM59.1724 65H62.2069V63H59.1724V65ZM65.2414 65H68.2758V63H65.2414V65ZM71.3103 65H74.3448V63H71.3103V65ZM77.3793 65H80.4138V63H77.3793V65ZM83.4483 65H86.4828V63H83.4483V65ZM89.5172 65H92.5517V63H89.5172V65ZM95.5862 65H98.6207V63H95.5862V65ZM101.655 65H104.69V63H101.655V65ZM107.724 65H110.759V63H107.724V65ZM113.793 65H116.828V63H113.793V65ZM119.862 65H122.897V63H119.862V65ZM125.931 65H128.966V63H125.931V65ZM132 65H135.035V63H132V65ZM138.069 65H141.103V63H138.069V65ZM144.138 65H147.172V63H144.138V65ZM150.207 65H153.241V63H150.207V65ZM156.276 65H159.31V63H156.276V65ZM162.345 65H165.379V63H162.345V65ZM168.414 65H171.448V63H168.414V65ZM174.483 65H176V63H174.483V65ZM177 64V62.5455H175V64H177ZM177 59.6364V56.7273H175V59.6364H177ZM177 53.8182V50.9091H175V53.8182H177ZM177 48V45.0909H175V48H177ZM177 42.1818V39.2727H175V42.1818H177ZM177 36.3636V33.4545H175V36.3636H177ZM177 30.5454V27.6364H175V30.5454H177ZM177 24.7273V21.8182H175V24.7273H177ZM177 18.9091V16H175V18.9091H177ZM177 13.0909V10.1818H175V13.0909H177ZM177 7.27271V4.36362H175V7.27271H177ZM177 1.45453V0H175V1.45453H177ZM176 -1H174.483V1H176V-1ZM171.448 -1H168.414V1H171.448V-1ZM165.379 -1H162.345V1H165.379V-1ZM159.31 -1H156.276V1H159.31V-1ZM153.241 -1H150.207V1H153.241V-1ZM147.172 -1H144.138V1H147.172V-1ZM141.103 -1H138.069V1H141.103V-1ZM135.034 -1H132V1H135.034V-1ZM128.966 -1H125.931V1H128.966V-1ZM122.897 -1H119.862V1H122.897V-1ZM116.828 -1H113.793V1H116.828V-1ZM110.759 -1H107.724V1H110.759V-1ZM104.69 -1H101.655V1H104.69V-1ZM98.6207 -1H95.5862V1H98.6207V-1ZM92.5517 -1H89.5172V1H92.5517V-1ZM86.4828 -1H83.4483V1H86.4828V-1ZM80.4138 -1H77.3793V1H80.4138V-1ZM74.3448 -1H71.3103V1H74.3448V-1ZM68.2758 -1H65.2414V1H68.2758V-1ZM62.2069 -1H59.1724V1H62.2069V-1ZM56.1379 -1H53.1034V1H56.1379V-1ZM50.0689 -1H47.0345V1H50.0689V-1ZM44 -1H40.9655V1H44V-1ZM37.931 -1H34.8965V1H37.931V-1ZM31.862 -1H28.8275V1H31.862V-1ZM25.7931 -1H22.7586V1H25.7931V-1ZM19.7241 -1H16.6896V1H19.7241V-1ZM13.6551 -1H10.6206V1H13.6551V-1ZM7.58616 -1H4.55167V1H7.58616V-1ZM1.51718 -1H0V1H1.51718V-1Z" fill="black"/>
<path fill-rule="evenodd" clip-rule="evenodd" d="M275.98 35.3946C274.944 36.1448 273.67 36.5871 272.293 36.5871C268.818 36.5871 266 33.7694 266 30.2935C266 26.8177 268.818 24 272.293 24C275.769 24 278.587 26.8177 278.587 30.2935C278.587 31.6705 278.145 32.9443 277.395 33.9804L281.996 38.582L280.582 39.9962L275.98 35.3946ZM276.587 30.2935C276.587 32.6648 274.665 34.5871 272.293 34.5871C269.922 34.5871 268 32.6648 268 30.2935C268 27.9223 269.922 26 272.293 26C274.665 26 276.587 27.9223 276.587 30.2935V30.2935Z" fill="#111111"/>
<path d="M323.428 23L326 21.5L328.572 23" stroke="#111111" stroke-width="1.5" stroke-linecap="round" stroke-linejoin="round"/>
<path d="M326 21.5V25.25" stroke="#111111" stroke-width="1.5" stroke-miterlimit="10" stroke-linecap="round"/>
<path d="M328.572 41L326 42.5L323.428 41" stroke="#111111" stroke-width="1.5" stroke-linecap="round" stroke-linejoin="round"/>
<path d="M326 42.5V38.75" stroke="#111111" stroke-width="1.5" stroke-miterlimit="10" stroke-linecap="round"/>
<path d="M317 29.727V26.75L319.491 25.2729" stroke="#111111" stroke-width="1.5" stroke-linecap="round" stroke-linejoin="round"/>
<path d="M317 26.75L320.154 28.625" stroke="#111111" stroke-width="1.5" stroke-miterlimit="10" stroke-linecap="round"/>
<path d="M335 34.2729V37.25L332.509 38.727" stroke="#111111" stroke-width="1.5" stroke-linecap="round" stroke-linejoin="round"/>
<path d="M335 37.25L331.846 35.375" stroke="#111111" stroke-width="1.5" stroke-miterlimit="10" stroke-linecap="round"/>
<path d="M319.491 38.75L317 37.25V34.2729" stroke="#111111" stroke-width="1.5" stroke-linecap="round" stroke-linejoin="round"/>
<path d="M317 37.25L320.124 35.375" stroke="#111111" stroke-width="1.5" stroke-miterlimit="10" stroke-linecap="round"/>
<path d="M332.509 25.2729L335 26.75V29.727" stroke="#111111" stroke-width="1.5" stroke-linecap="round" stroke-linejoin="round"/>
<path d="M335 26.75L331.846 28.625" stroke="#111111" stroke-width="1.5" stroke-miterlimit="10" stroke-linecap="round"/>
<path d="M326 35V32L328.572 30.5" stroke="#111111" stroke-width="1.5" stroke-miterlimit="10" stroke-linecap="round"/>
<path d="M326 32L323.428 30.5" stroke="#111111" stroke-width="1.5" stroke-miterlimit="10" stroke-linecap="round"/>
<path d="M377 27.8294L373.758 31.0714L372.344 29.6572L378 24L383.658 29.6572L382.243 31.0714L379 27.8284V36H377V27.8294Z" fill="#111111"/>
<path d="M368 41.0029H388V32.0029H386V39.0029H370V32.0029H368V41.0029Z" fill="#111111"/>
<path d="M238 0V-0.5H237.5V0H238ZM414 0H414.5V-0.5H414V0ZM414 64V64.5H414.5V64H414ZM238 64H237.5V64.5H238V64ZM237.5 0V1.45455H238.5V0H237.5ZM237.5 4.36364V7.27273H238.5V4.36364H237.5ZM237.5 10.1818V13.0909H238.5V10.1818H237.5ZM237.5 16V18.9091H238.5V16H237.5ZM237.5 21.8182V24.7273H238.5V21.8182H237.5ZM237.5 27.6364V30.5455H238.5V27.6364H237.5ZM237.5 33.4546V36.3636H238.5V33.4546H237.5ZM237.5 39.2727V42.1818H238.5V39.2727H237.5ZM237.5 45.0909V48H238.5V45.0909H237.5ZM237.5 50.9091V53.8182H238.5V50.9091H237.5ZM237.5 56.7273V59.6364H238.5V56.7273H237.5ZM237.5 62.5455V64H238.5V62.5455H237.5ZM238 64.5H239.517V63.5H238V64.5ZM242.552 64.5H245.586V63.5H242.552V64.5ZM248.621 64.5H251.655V63.5H248.621V64.5ZM254.69 64.5H257.724V63.5H254.69V64.5ZM260.759 64.5H263.793V63.5H260.759V64.5ZM266.828 64.5H269.862V63.5H266.828V64.5ZM272.897 64.5H275.931V63.5H272.897V64.5ZM278.966 64.5H282V63.5H278.966V64.5ZM285.034 64.5H288.069V63.5H285.034V64.5ZM291.103 64.5H294.138V63.5H291.103V64.5ZM297.172 64.5H300.207V63.5H297.172V64.5ZM303.241 64.5H306.276V63.5H303.241V64.5ZM309.31 64.5H312.345V63.5H309.31V64.5ZM315.379 64.5H318.414V63.5H315.379V64.5ZM321.448 64.5H324.483V63.5H321.448V64.5ZM327.517 64.5H330.552V63.5H327.517V64.5ZM333.586 64.5H336.621V63.5H333.586V64.5ZM339.655 64.5H342.69V63.5H339.655V64.5ZM345.724 64.5H348.759V63.5H345.724V64.5ZM351.793 64.5H354.828V63.5H351.793V64.5ZM357.862 64.5H360.897V63.5H357.862V64.5ZM363.931 64.5H366.966V63.5H363.931V64.5ZM370 64.5H373.035V63.5H370V64.5ZM376.069 64.5H379.103V63.5H376.069V64.5ZM382.138 64.5H385.172V63.5H382.138V64.5ZM388.207 64.5H391.241V63.5H388.207V64.5ZM394.276 64.5H397.31V63.5H394.276V64.5ZM400.345 64.5H403.379V63.5H400.345V64.5ZM406.414 64.5H409.448V63.5H406.414V64.5ZM412.483 64.5H414V63.5H412.483V64.5ZM414.5 64V62.5455H413.5V64H414.5ZM414.5 59.6364V56.7273H413.5V59.6364H414.5ZM414.5 53.8182V50.9091H413.5V53.8182H414.5ZM414.5 48V45.0909H413.5V48H414.5ZM414.5 42.1818V39.2727H413.5V42.1818H414.5ZM414.5 36.3636V33.4545H413.5V36.3636H414.5ZM414.5 30.5454V27.6364H413.5V30.5454H414.5ZM414.5 24.7273V21.8182H413.5V24.7273H414.5ZM414.5 18.9091V16H413.5V18.9091H414.5ZM414.5 13.0909V10.1818H413.5V13.0909H414.5ZM414.5 7.27271V4.36362H413.5V7.27271H414.5ZM414.5 1.45453V0H413.5V1.45453H414.5ZM414 -0.5H412.483V0.5H414V-0.5ZM409.448 -0.5H406.414V0.5H409.448V-0.5ZM403.379 -0.5H400.345V0.5H403.379V-0.5ZM397.31 -0.5H394.276V0.5H397.31V-0.5ZM391.241 -0.5H388.207V0.5H391.241V-0.5ZM385.172 -0.5H382.138V0.5H385.172V-0.5ZM379.103 -0.5H376.069V0.5H379.103V-0.5ZM373.034 -0.5H370V0.5H373.034V-0.5ZM366.966 -0.5H363.931V0.5H366.966V-0.5ZM360.897 -0.5H357.862V0.5H360.897V-0.5ZM354.828 -0.5H351.793V0.5H354.828V-0.5ZM348.759 -0.5H345.724V0.5H348.759V-0.5ZM342.69 -0.5H339.655V0.5H342.69V-0.5ZM336.621 -0.5H333.586V0.5H336.621V-0.5ZM330.552 -0.5H327.517V0.5H330.552V-0.5ZM324.483 -0.5H321.448V0.5H324.483V-0.5ZM318.414 -0.5H315.379V0.5H318.414V-0.5ZM312.345 -0.5H309.31V0.5H312.345V-0.5ZM306.276 -0.5H303.241V0.5H306.276V-0.5ZM300.207 -0.5H297.172V0.5H300.207V-0.5ZM294.138 -0.5H291.103V0.5H294.138V-0.5ZM288.069 -0.5H285.034V0.5H288.069V-0.5ZM282 -0.5H278.965V0.5H282V-0.5ZM275.931 -0.5H272.897V0.5H275.931V-0.5ZM269.862 -0.5H266.828V0.5H269.862V-0.5ZM263.793 -0.5H260.759V0.5H263.793V-0.5ZM257.724 -0.5H254.69V0.5H257.724V-0.5ZM251.655 -0.5H248.621V0.5H251.655V-0.5ZM245.586 -0.5H242.552V0.5H245.586V-0.5ZM239.517 -0.5H238V0.5H239.517V-0.5ZM238 0V-1H237V0H238ZM414 0H415V-1H414V0ZM414 64V65H415V64H414ZM238 64H237V65H238V64ZM237 0V1.45455H239V0H237ZM237 4.36364V7.27273H239V4.36364H237ZM237 10.1818V13.0909H239V10.1818H237ZM237 16V18.9091H239V16H237ZM237 21.8182V24.7273H239V21.8182H237ZM237 27.6364V30.5455H239V27.6364H237ZM237 33.4546V36.3636H239V33.4546H237ZM237 39.2727V42.1818H239V39.2727H237ZM237 45.0909V48H239V45.0909H237ZM237 50.9091V53.8182H239V50.9091H237ZM237 56.7273V59.6364H239V56.7273H237ZM237 62.5455V64H239V62.5455H237ZM238 65H239.517V63H238V65ZM242.552 65H245.586V63H242.552V65ZM248.621 65H251.655V63H248.621V65ZM254.69 65H257.724V63H254.69V65ZM260.759 65H263.793V63H260.759V65ZM266.828 65H269.862V63H266.828V65ZM272.897 65H275.931V63H272.897V65ZM278.966 65H282V63H278.966V65ZM285.034 65H288.069V63H285.034V65ZM291.103 65H294.138V63H291.103V65ZM297.172 65H300.207V63H297.172V65ZM303.241 65H306.276V63H303.241V65ZM309.31 65H312.345V63H309.31V65ZM315.379 65H318.414V63H315.379V65ZM321.448 65H324.483V63H321.448V65ZM327.517 65H330.552V63H327.517V65ZM333.586 65H336.621V63H333.586V65ZM339.655 65H342.69V63H339.655V65ZM345.724 65H348.759V63H345.724V65ZM351.793 65H354.828V63H351.793V65ZM357.862 65H360.897V63H357.862V65ZM363.931 65H366.966V63H363.931V65ZM370 65H373.035V63H370V65ZM376.069 65H379.103V63H376.069V65ZM382.138 65H385.172V63H382.138V65ZM388.207 65H391.241V63H388.207V65ZM394.276 65H397.31V63H394.276V65ZM400.345 65H403.379V63H400.345V65ZM406.414 65H409.448V63H406.414V65ZM412.483 65H414V63H412.483V65ZM415 64V62.5455H413V64H415ZM415 59.6364V56.7273H413V59.6364H415ZM415 53.8182V50.9091H413V53.8182H415ZM415 48V45.0909H413V48H415ZM415 42.1818V39.2727H413V42.1818H415ZM415 36.3636V33.4545H413V36.3636H415ZM415 30.5454V27.6364H413V30.5454H415ZM415 24.7273V21.8182H413V24.7273H415ZM415 18.9091V16H413V18.9091H415ZM415 13.0909V10.1818H413V13.0909H415ZM415 7.27271V4.36362H413V7.27271H415ZM415 1.45453V0H413V1.45453H415ZM414 -1H412.483V1H414V-1ZM409.448 -1H406.414V1H409.448V-1ZM403.379 -1H400.345V1H403.379V-1ZM397.31 -1H394.276V1H397.31V-1ZM391.241 -1H388.207V1H391.241V-1ZM385.172 -1H382.138V1H385.172V-1ZM379.103 -1H376.069V1H379.103V-1ZM373.034 -1H370V1H373.034V-1ZM366.966 -1H363.931V1H366.966V-1ZM360.897 -1H357.862V1H360.897V-1ZM354.828 -1H351.793V1H354.828V-1ZM348.759 -1H345.724V1H348.759V-1ZM342.69 -1H339.655V1H342.69V-1ZM336.621 -1H333.586V1H336.621V-1ZM330.552 -1H327.517V1H330.552V-1ZM324.483 -1H321.448V1H324.483V-1ZM318.414 -1H315.379V1H318.414V-1ZM312.345 -1H309.31V1H312.345V-1ZM306.276 -1H303.241V1H306.276V-1ZM300.207 -1H297.172V1H300.207V-1ZM294.138 -1H291.103V1H294.138V-1ZM288.069 -1H285.034V1H288.069V-1ZM282 -1H278.965V1H282V-1ZM275.931 -1H272.897V1H275.931V-1ZM269.862 -1H266.828V1H269.862V-1ZM263.793 -1H260.759V1H263.793V-1ZM257.724 -1H254.69V1H257.724V-1ZM251.655 -1H248.621V1H251.655V-1ZM245.586 -1H242.552V1H245.586V-1ZM239.517 -1H238V1H239.517V-1Z" fill="black"/>
<path d="M200.824 37.0586L203.965 27.3203H206.18L201.633 40H199.98L195.387 27.3203H197.602L200.824 37.0586ZM215.648 36.6367C215.648 36.0508 215.426 35.5977 214.98 35.2773C214.543 34.9492 213.773 34.668 212.672 34.4336C211.578 34.1992 210.707 33.918 210.059 33.5898C209.418 33.2617 208.941 32.8711 208.629 32.418C208.324 31.9648 208.172 31.4258 208.172 30.8008C208.172 29.7617 208.609 28.8828 209.484 28.1641C210.367 27.4453 211.492 27.0859 212.859 27.0859C214.297 27.0859 215.461 27.457 216.352 28.1992C217.25 28.9414 217.699 29.8906 217.699 31.0469H215.52C215.52 30.4531 215.266 29.9414 214.758 29.5117C214.258 29.082 213.625 28.8672 212.859 28.8672C212.07 28.8672 211.453 29.0391 211.008 29.3828C210.562 29.7266 210.34 30.1758 210.34 30.7305C210.34 31.2539 210.547 31.6484 210.961 31.9141C211.375 32.1797 212.121 32.4336 213.199 32.6758C214.285 32.918 215.164 33.207 215.836 33.543C216.508 33.8789 217.004 34.2852 217.324 34.7617C217.652 35.2305 217.816 35.8047 217.816 36.4844C217.816 37.6172 217.363 38.5273 216.457 39.2148C215.551 39.8945 214.375 40.2344 212.93 40.2344C211.914 40.2344 211.016 40.0547 210.234 39.6953C209.453 39.3359 208.84 38.8359 208.395 38.1953C207.957 37.5469 207.738 36.8477 207.738 36.0977H209.906C209.945 36.8242 210.234 37.4023 210.773 37.832C211.32 38.2539 212.039 38.4648 212.93 38.4648C213.75 38.4648 214.406 38.3008 214.898 37.9727C215.398 37.6367 215.648 37.1914 215.648 36.6367Z" fill="black"/>
</svg>
